M48
;DRILL file {KiCad 4.0.5} date 11/09/17 02:59:39
;FORMAT={-:-/ absolute / metric / decimal}
FMAT,2
METRIC,TZ
T1C0.800
T2C1.000
T3C1.001
T4C3.500
%
G90
G05
M71
T1
X69.44Y-114.52
X69.44Y-119.6
X69.44Y-124.68
X69.44Y-129.76
X69.44Y-134.84
X69.44Y-139.92
X69.44Y-145.
X69.44Y-150.08
X69.44Y-155.16
X69.44Y-160.24
X69.44Y-165.32
X69.44Y-170.4
X69.44Y-175.48
X69.44Y-180.56
X69.44Y-185.64
X69.44Y-190.72
X79.6Y-114.52
X79.6Y-119.6
X79.6Y-124.68
X79.6Y-129.76
X79.6Y-134.84
X79.6Y-139.92
X79.6Y-145.
X79.6Y-150.08
X79.6Y-155.16
X79.6Y-160.24
X79.6Y-165.32
X79.6Y-170.4
X79.6Y-175.48
X79.6Y-180.56
X79.6Y-185.64
X79.6Y-190.72
X89.76Y-114.52
X89.76Y-119.6
X89.76Y-124.68
X89.76Y-129.76
X89.76Y-134.84
X89.76Y-139.92
X89.76Y-145.
X89.76Y-150.08
X89.76Y-155.16
X89.76Y-160.24
X89.76Y-165.32
X89.76Y-170.4
X89.76Y-175.48
X89.76Y-180.56
X89.76Y-185.64
X89.76Y-190.72
X99.92Y-114.52
X99.92Y-119.6
X99.92Y-124.68
X99.92Y-129.76
X99.92Y-134.84
X99.92Y-139.92
X99.92Y-145.
X99.92Y-150.08
X99.92Y-155.16
X99.92Y-160.24
X99.92Y-165.32
X99.92Y-170.4
X99.92Y-175.48
X99.92Y-180.56
X99.92Y-185.64
X99.92Y-190.72
X110.08Y-114.52
X110.08Y-119.6
X110.08Y-124.68
X110.08Y-129.76
X110.08Y-134.84
X110.08Y-139.92
X110.08Y-145.
X110.08Y-150.08
X110.08Y-155.16
X110.08Y-160.24
X110.08Y-165.32
X110.08Y-170.4
X110.08Y-175.48
X110.08Y-180.56
X110.08Y-185.64
X110.08Y-190.72
X120.24Y-114.52
X120.24Y-119.6
X120.24Y-124.68
X120.24Y-129.76
X120.24Y-134.84
X120.24Y-139.92
X120.24Y-145.
X120.24Y-150.08
X120.24Y-155.16
X120.24Y-160.24
X120.24Y-165.32
X120.24Y-170.4
X120.24Y-175.48
X120.24Y-180.56
X120.24Y-185.64
X120.24Y-190.72
X130.4Y-114.52
X130.4Y-119.6
X130.4Y-124.68
X130.4Y-129.76
X130.4Y-134.84
X130.4Y-139.92
X130.4Y-145.
X130.4Y-150.08
X130.4Y-155.16
X130.4Y-160.24
X130.4Y-165.32
X130.4Y-170.4
X130.4Y-175.48
X130.4Y-180.56
X130.4Y-185.64
X130.4Y-190.72
X140.56Y-114.52
X140.56Y-119.6
X140.56Y-124.68
X140.56Y-129.76
X140.56Y-134.84
X140.56Y-139.92
X140.56Y-145.
X140.56Y-150.08
X140.56Y-155.16
X140.56Y-160.24
X140.56Y-165.32
X140.56Y-170.4
X140.56Y-175.48
X140.56Y-180.56
X140.56Y-185.64
X140.56Y-190.72
T2
X58.01Y-105.63
X58.01Y-108.17
X58.01Y-110.71
X58.01Y-113.25
X58.01Y-115.79
X58.01Y-118.33
X58.01Y-120.87
X58.01Y-123.41
X58.01Y-125.95
X58.01Y-128.49
X58.01Y-131.03
X58.01Y-133.57
X58.01Y-136.11
X58.01Y-138.65
X58.01Y-141.19
X58.01Y-143.73
X58.01Y-146.27
X58.01Y-148.81
X58.01Y-151.35
X58.01Y-153.89
X58.01Y-156.43
X58.01Y-158.97
X58.01Y-161.51
X58.01Y-164.05
X58.01Y-166.59
X58.01Y-169.13
X58.01Y-171.67
X58.01Y-174.21
X58.01Y-176.75
X58.01Y-179.29
X58.01Y-181.83
X58.01Y-184.37
X60.55Y-105.63
X60.55Y-108.17
X60.55Y-110.71
X60.55Y-113.25
X60.55Y-115.79
X60.55Y-118.33
X60.55Y-120.87
X60.55Y-123.41
X60.55Y-125.95
X60.55Y-128.49
X60.55Y-131.03
X60.55Y-133.57
X60.55Y-136.11
X60.55Y-138.65
X60.55Y-141.19
X60.55Y-143.73
X60.55Y-146.27
X60.55Y-148.81
X60.55Y-151.35
X60.55Y-153.89
X60.55Y-156.43
X60.55Y-158.97
X60.55Y-161.51
X60.55Y-164.05
X60.55Y-166.59
X60.55Y-169.13
X60.55Y-171.67
X60.55Y-174.21
X60.55Y-176.75
X60.55Y-179.29
X60.55Y-181.83
X60.55Y-184.37
X63.09Y-105.63
X63.09Y-108.17
X63.09Y-110.71
X63.09Y-113.25
X63.09Y-115.79
X63.09Y-118.33
X63.09Y-120.87
X63.09Y-123.41
X63.09Y-125.95
X63.09Y-128.49
X63.09Y-131.03
X63.09Y-133.57
X63.09Y-136.11
X63.09Y-138.65
X63.09Y-141.19
X63.09Y-143.73
X63.09Y-146.27
X63.09Y-148.81
X63.09Y-151.35
X63.09Y-153.89
X63.09Y-156.43
X63.09Y-158.97
X63.09Y-161.51
X63.09Y-164.05
X63.09Y-166.59
X63.09Y-169.13
X63.09Y-171.67
X63.09Y-174.21
X63.09Y-176.75
X63.09Y-179.29
X63.09Y-181.83
X63.09Y-184.37
X65.63Y-100.55
X65.63Y-103.09
X65.63Y-105.63
X65.63Y-108.17
X65.63Y-110.71
X66.19Y-114.81
X66.19Y-119.31
X66.19Y-124.97
X66.19Y-129.47
X66.19Y-135.13
X66.19Y-139.63
X66.19Y-145.29
X66.19Y-149.79
X66.19Y-155.45
X66.19Y-159.95
X66.19Y-165.61
X66.19Y-170.11
X66.19Y-175.77
X66.19Y-180.27
X66.19Y-185.93
X66.19Y-190.43
X68.17Y-100.55
X68.17Y-103.09
X68.17Y-105.63
X68.17Y-108.17
X68.17Y-110.71
X70.71Y-100.55
X70.71Y-103.09
X70.71Y-105.63
X70.71Y-108.17
X70.71Y-110.71
X72.69Y-114.81
X72.69Y-119.31
X72.69Y-124.97
X72.69Y-129.47
X72.69Y-135.13
X72.69Y-139.63
X72.69Y-145.29
X72.69Y-149.79
X72.69Y-155.45
X72.69Y-159.95
X72.69Y-165.61
X72.69Y-170.11
X72.69Y-175.77
X72.69Y-180.27
X72.69Y-185.93
X72.69Y-190.43
X73.25Y-100.55
X73.25Y-103.09
X73.25Y-105.63
X73.25Y-108.17
X73.25Y-110.71
X75.79Y-100.55
X75.79Y-103.09
X75.79Y-105.63
X75.79Y-108.17
X75.79Y-110.71
X76.35Y-114.81
X76.35Y-119.31
X76.35Y-124.97
X76.35Y-129.47
X76.35Y-135.13
X76.35Y-139.63
X76.35Y-145.29
X76.35Y-149.79
X76.35Y-155.45
X76.35Y-159.95
X76.35Y-165.61
X76.35Y-170.11
X76.35Y-175.77
X76.35Y-180.27
X76.35Y-185.93
X76.35Y-190.43
X78.33Y-100.55
X78.33Y-103.09
X78.33Y-105.63
X78.33Y-108.17
X78.33Y-110.71
X80.87Y-100.55
X80.87Y-103.09
X80.87Y-105.63
X80.87Y-108.17
X80.87Y-110.71
X82.85Y-114.81
X82.85Y-119.31
X82.85Y-124.97
X82.85Y-129.47
X82.85Y-135.13
X82.85Y-139.63
X82.85Y-145.29
X82.85Y-149.79
X82.85Y-155.45
X82.85Y-159.95
X82.85Y-165.61
X82.85Y-170.11
X82.85Y-175.77
X82.85Y-180.27
X82.85Y-185.93
X82.85Y-190.43
X83.41Y-100.55
X83.41Y-103.09
X83.41Y-105.63
X83.41Y-108.17
X83.41Y-110.71
X85.95Y-100.55
X85.95Y-103.09
X85.95Y-105.63
X85.95Y-108.17
X85.95Y-110.71
X86.51Y-114.81
X86.51Y-119.31
X86.51Y-124.97
X86.51Y-129.47
X86.51Y-135.13
X86.51Y-139.63
X86.51Y-145.29
X86.51Y-149.79
X86.51Y-155.45
X86.51Y-159.95
X86.51Y-165.61
X86.51Y-170.11
X86.51Y-175.77
X86.51Y-180.27
X86.51Y-185.93
X86.51Y-190.43
X88.49Y-100.55
X88.49Y-103.09
X88.49Y-105.63
X88.49Y-108.17
X88.49Y-110.71
X91.03Y-100.55
X91.03Y-103.09
X91.03Y-105.63
X91.03Y-108.17
X91.03Y-110.71
X93.01Y-114.81
X93.01Y-119.31
X93.01Y-124.97
X93.01Y-129.47
X93.01Y-135.13
X93.01Y-139.63
X93.01Y-145.29
X93.01Y-149.79
X93.01Y-155.45
X93.01Y-159.95
X93.01Y-165.61
X93.01Y-170.11
X93.01Y-175.77
X93.01Y-180.27
X93.01Y-185.93
X93.01Y-190.43
X93.57Y-100.55
X93.57Y-103.09
X93.57Y-105.63
X93.57Y-108.17
X93.57Y-110.71
X96.11Y-100.55
X96.11Y-103.09
X96.11Y-105.63
X96.11Y-108.17
X96.11Y-110.71
X96.67Y-114.81
X96.67Y-119.31
X96.67Y-124.97
X96.67Y-129.47
X96.67Y-135.13
X96.67Y-139.63
X96.67Y-145.29
X96.67Y-149.79
X96.67Y-155.45
X96.67Y-159.95
X96.67Y-165.61
X96.67Y-170.11
X96.67Y-175.77
X96.67Y-180.27
X96.67Y-185.93
X96.67Y-190.43
X98.65Y-100.55
X98.65Y-103.09
X98.65Y-105.63
X98.65Y-108.17
X98.65Y-110.71
X101.19Y-100.55
X101.19Y-103.09
X101.19Y-105.63
X101.19Y-108.17
X101.19Y-110.71
X103.17Y-114.81
X103.17Y-119.31
X103.17Y-124.97
X103.17Y-129.47
X103.17Y-135.13
X103.17Y-139.63
X103.17Y-145.29
X103.17Y-149.79
X103.17Y-155.45
X103.17Y-159.95
X103.17Y-165.61
X103.17Y-170.11
X103.17Y-175.77
X103.17Y-180.27
X103.17Y-185.93
X103.17Y-190.43
X103.73Y-100.55
X103.73Y-103.09
X103.73Y-105.63
X103.73Y-108.17
X103.73Y-110.71
X106.27Y-100.55
X106.27Y-103.09
X106.27Y-105.63
X106.27Y-108.17
X106.27Y-110.71
X106.83Y-114.81
X106.83Y-119.31
X106.83Y-124.97
X106.83Y-129.47
X106.83Y-135.13
X106.83Y-139.63
X106.83Y-145.29
X106.83Y-149.79
X106.83Y-155.45
X106.83Y-159.95
X106.83Y-165.61
X106.83Y-170.11
X106.83Y-175.77
X106.83Y-180.27
X106.83Y-185.93
X106.83Y-190.43
X108.81Y-100.55
X108.81Y-103.09
X108.81Y-105.63
X108.81Y-108.17
X108.81Y-110.71
X111.35Y-100.55
X111.35Y-103.09
X111.35Y-105.63
X111.35Y-108.17
X111.35Y-110.71
X113.33Y-114.81
X113.33Y-119.31
X113.33Y-124.97
X113.33Y-129.47
X113.33Y-135.13
X113.33Y-139.63
X113.33Y-145.29
X113.33Y-149.79
X113.33Y-155.45
X113.33Y-159.95
X113.33Y-165.61
X113.33Y-170.11
X113.33Y-175.77
X113.33Y-180.27
X113.33Y-185.93
X113.33Y-190.43
X113.89Y-100.55
X113.89Y-103.09
X113.89Y-105.63
X113.89Y-108.17
X113.89Y-110.71
X116.43Y-100.55
X116.43Y-103.09
X116.43Y-105.63
X116.43Y-108.17
X116.43Y-110.71
X116.99Y-114.81
X116.99Y-119.31
X116.99Y-124.97
X116.99Y-129.47
X116.99Y-135.13
X116.99Y-139.63
X116.99Y-145.29
X116.99Y-149.79
X116.99Y-155.45
X116.99Y-159.95
X116.99Y-165.61
X116.99Y-170.11
X116.99Y-175.77
X116.99Y-180.27
X116.99Y-185.93
X116.99Y-190.43
X118.97Y-100.55
X118.97Y-103.09
X118.97Y-105.63
X118.97Y-108.17
X118.97Y-110.71
X121.51Y-100.55
X121.51Y-103.09
X121.51Y-105.63
X121.51Y-108.17
X121.51Y-110.71
X123.49Y-114.81
X123.49Y-119.31
X123.49Y-124.97
X123.49Y-129.47
X123.49Y-135.13
X123.49Y-139.63
X123.49Y-145.29
X123.49Y-149.79
X123.49Y-155.45
X123.49Y-159.95
X123.49Y-165.61
X123.49Y-170.11
X123.49Y-175.77
X123.49Y-180.27
X123.49Y-185.93
X123.49Y-190.43
X124.05Y-100.55
X124.05Y-103.09
X124.05Y-105.63
X124.05Y-108.17
X124.05Y-110.71
X126.59Y-100.55
X126.59Y-103.09
X126.59Y-105.63
X126.59Y-108.17
X126.59Y-110.71
X127.15Y-114.81
X127.15Y-119.31
X127.15Y-124.97
X127.15Y-129.47
X127.15Y-135.13
X127.15Y-139.63
X127.15Y-145.29
X127.15Y-149.79
X127.15Y-155.45
X127.15Y-159.95
X127.15Y-165.61
X127.15Y-170.11
X127.15Y-175.77
X127.15Y-180.27
X127.15Y-185.93
X127.15Y-190.43
X129.13Y-100.55
X129.13Y-103.09
X129.13Y-105.63
X129.13Y-108.17
X129.13Y-110.71
X131.67Y-100.55
X131.67Y-103.09
X131.67Y-105.63
X131.67Y-108.17
X131.67Y-110.71
X133.65Y-114.81
X133.65Y-119.31
X133.65Y-124.97
X133.65Y-129.47
X133.65Y-135.13
X133.65Y-139.63
X133.65Y-145.29
X133.65Y-149.79
X133.65Y-155.45
X133.65Y-159.95
X133.65Y-165.61
X133.65Y-170.11
X133.65Y-175.77
X133.65Y-180.27
X133.65Y-185.93
X133.65Y-190.43
X134.21Y-100.55
X134.21Y-103.09
X134.21Y-105.63
X134.21Y-108.17
X134.21Y-110.71
X136.75Y-100.55
X136.75Y-103.09
X136.75Y-105.63
X136.75Y-108.17
X136.75Y-110.71
X137.31Y-114.81
X137.31Y-119.31
X137.31Y-124.97
X137.31Y-129.47
X137.31Y-135.13
X137.31Y-139.63
X137.31Y-145.29
X137.31Y-149.79
X137.31Y-155.45
X137.31Y-159.95
X137.31Y-165.61
X137.31Y-170.11
X137.31Y-175.77
X137.31Y-180.27
X137.31Y-185.93
X137.31Y-190.43
X139.29Y-100.55
X139.29Y-103.09
X139.29Y-105.63
X139.29Y-108.17
X139.29Y-110.71
X141.83Y-100.55
X141.83Y-103.09
X141.83Y-105.63
X141.83Y-108.17
X141.83Y-110.71
X143.81Y-114.81
X143.81Y-119.31
X143.81Y-124.97
X143.81Y-129.47
X143.81Y-135.13
X143.81Y-139.63
X143.81Y-145.29
X143.81Y-149.79
X143.81Y-155.45
X143.81Y-159.95
X143.81Y-165.61
X143.81Y-170.11
X143.81Y-175.77
X143.81Y-180.27
X143.81Y-185.93
X143.81Y-190.43
X144.37Y-100.55
X144.37Y-103.09
X144.37Y-105.63
X144.37Y-108.17
X144.37Y-110.71
X146.91Y-105.63
X146.91Y-108.17
X146.91Y-110.71
X146.91Y-113.25
X146.91Y-115.79
X146.91Y-118.33
X146.91Y-120.87
X146.91Y-123.41
X146.91Y-125.95
X146.91Y-128.49
X146.91Y-131.03
X146.91Y-133.57
X146.91Y-136.11
X146.91Y-138.65
X146.91Y-141.19
X146.91Y-143.73
X146.91Y-146.27
X146.91Y-148.81
X146.91Y-151.35
X146.91Y-153.89
X146.91Y-156.43
X146.91Y-158.97
X146.91Y-161.51
X146.91Y-164.05
X146.91Y-166.59
X146.91Y-169.13
X146.91Y-171.67
X146.91Y-174.21
X146.91Y-176.75
X146.91Y-179.29
X146.91Y-181.83
X146.91Y-184.37
X149.45Y-105.63
X149.45Y-108.17
X149.45Y-110.71
X149.45Y-113.25
X149.45Y-115.79
X149.45Y-118.33
X149.45Y-120.87
X149.45Y-123.41
X149.45Y-125.95
X149.45Y-128.49
X149.45Y-131.03
X149.45Y-133.57
X149.45Y-136.11
X149.45Y-138.65
X149.45Y-141.19
X149.45Y-143.73
X149.45Y-146.27
X149.45Y-148.81
X149.45Y-151.35
X149.45Y-153.89
X149.45Y-156.43
X149.45Y-158.97
X149.45Y-161.51
X149.45Y-164.05
X149.45Y-166.59
X149.45Y-169.13
X149.45Y-171.67
X149.45Y-174.21
X149.45Y-176.75
X149.45Y-179.29
X149.45Y-181.83
X149.45Y-184.37
X151.99Y-105.63
X151.99Y-108.17
X151.99Y-110.71
X151.99Y-113.25
X151.99Y-115.79
X151.99Y-118.33
X151.99Y-120.87
X151.99Y-123.41
X151.99Y-125.95
X151.99Y-128.49
X151.99Y-131.03
X151.99Y-133.57
X151.99Y-136.11
X151.99Y-138.65
X151.99Y-141.19
X151.99Y-143.73
X151.99Y-146.27
X151.99Y-148.81
X151.99Y-151.35
X151.99Y-153.89
X151.99Y-156.43
X151.99Y-158.97
X151.99Y-161.51
X151.99Y-164.05
X151.99Y-166.59
X151.99Y-169.13
X151.99Y-171.67
X151.99Y-174.21
X151.99Y-176.75
X151.99Y-179.29
X151.99Y-181.83
X151.99Y-184.37
T3
X65.63Y-98.01
X68.17Y-98.01
X70.71Y-98.01
X73.25Y-98.01
X75.79Y-98.01
X78.33Y-98.01
X80.87Y-98.01
X83.41Y-98.01
X85.95Y-98.01
X88.49Y-98.01
X91.03Y-98.01
X93.57Y-98.01
X96.11Y-98.01
X98.65Y-98.01
X101.19Y-98.01
X103.73Y-98.01
X106.27Y-98.01
X108.81Y-98.01
X111.35Y-98.01
X113.89Y-98.01
X116.43Y-98.01
X118.97Y-98.01
X121.51Y-98.01
X124.05Y-98.01
X126.59Y-98.01
X129.13Y-98.01
X131.67Y-98.01
X134.21Y-98.01
X136.75Y-98.01
X139.29Y-98.01
X141.83Y-98.01
X144.37Y-98.01
T4
X60.Y-100.
X60.Y-100.
X60.Y-190.
X60.Y-190.
X150.Y-100.
X150.Y-100.
X150.Y-190.
X150.Y-190.
T0
M30
