G04 #@! TF.FileFunction,Legend,Bot*
%FSLAX46Y46*%
G04 Gerber Fmt 4.6, Leading zero omitted, Abs format (unit mm)*
G04 Created by KiCad (PCBNEW 4.0.5) date 11/09/17 02:57:30*
%MOMM*%
%LPD*%
G01*
G04 APERTURE LIST*
%ADD10C,0.150000*%
%ADD11C,0.400000*%
%ADD12C,0.300000*%
%ADD13C,0.100000*%
%ADD14C,0.254000*%
%ADD15C,0.304800*%
%ADD16C,0.200000*%
G04 APERTURE END LIST*
D10*
D11*
X110080000Y-114520000D02*
X110080000Y-171670000D01*
X99920000Y-171670000D02*
X99920000Y-114520000D01*
X110080000Y-181830000D02*
X110080000Y-174210000D01*
X99920000Y-181830000D02*
X99920000Y-174210000D01*
X110080000Y-192625000D02*
X110080000Y-184370000D01*
X99920000Y-192625000D02*
X99920000Y-184370000D01*
D12*
X109535713Y-183635714D02*
X109607142Y-183707143D01*
X109821428Y-183778571D01*
X109964285Y-183778571D01*
X110178570Y-183707143D01*
X110321428Y-183564286D01*
X110392856Y-183421429D01*
X110464285Y-183135714D01*
X110464285Y-182921429D01*
X110392856Y-182635714D01*
X110321428Y-182492857D01*
X110178570Y-182350000D01*
X109964285Y-182278571D01*
X109821428Y-182278571D01*
X109607142Y-182350000D01*
X109535713Y-182421429D01*
X108035713Y-183635714D02*
X108107142Y-183707143D01*
X108321428Y-183778571D01*
X108464285Y-183778571D01*
X108678570Y-183707143D01*
X108821428Y-183564286D01*
X108892856Y-183421429D01*
X108964285Y-183135714D01*
X108964285Y-182921429D01*
X108892856Y-182635714D01*
X108821428Y-182492857D01*
X108678570Y-182350000D01*
X108464285Y-182278571D01*
X108321428Y-182278571D01*
X108107142Y-182350000D01*
X108035713Y-182421429D01*
X105749999Y-182992857D02*
X105535713Y-183064286D01*
X105464285Y-183135714D01*
X105392856Y-183278571D01*
X105392856Y-183492857D01*
X105464285Y-183635714D01*
X105535713Y-183707143D01*
X105678571Y-183778571D01*
X106249999Y-183778571D01*
X106249999Y-182278571D01*
X105749999Y-182278571D01*
X105607142Y-182350000D01*
X105535713Y-182421429D01*
X105464285Y-182564286D01*
X105464285Y-182707143D01*
X105535713Y-182850000D01*
X105607142Y-182921429D01*
X105749999Y-182992857D01*
X106249999Y-182992857D01*
X104464285Y-183064286D02*
X104464285Y-183778571D01*
X104964285Y-182278571D02*
X104464285Y-183064286D01*
X103964285Y-182278571D01*
X103464285Y-183207143D02*
X102321428Y-183207143D01*
X101678571Y-183707143D02*
X101464285Y-183778571D01*
X101107142Y-183778571D01*
X100964285Y-183707143D01*
X100892856Y-183635714D01*
X100821428Y-183492857D01*
X100821428Y-183350000D01*
X100892856Y-183207143D01*
X100964285Y-183135714D01*
X101107142Y-183064286D01*
X101392856Y-182992857D01*
X101535714Y-182921429D01*
X101607142Y-182850000D01*
X101678571Y-182707143D01*
X101678571Y-182564286D01*
X101607142Y-182421429D01*
X101535714Y-182350000D01*
X101392856Y-182278571D01*
X101035714Y-182278571D01*
X100821428Y-182350000D01*
X100250000Y-183350000D02*
X99535714Y-183350000D01*
X100392857Y-183778571D02*
X99892857Y-182278571D01*
X99392857Y-183778571D01*
X116107142Y-173618571D02*
X116107142Y-172118571D01*
X115749999Y-172118571D01*
X115535714Y-172190000D01*
X115392856Y-172332857D01*
X115321428Y-172475714D01*
X115249999Y-172761429D01*
X115249999Y-172975714D01*
X115321428Y-173261429D01*
X115392856Y-173404286D01*
X115535714Y-173547143D01*
X115749999Y-173618571D01*
X116107142Y-173618571D01*
X114607142Y-173618571D02*
X114607142Y-172618571D01*
X114607142Y-172118571D02*
X114678571Y-172190000D01*
X114607142Y-172261429D01*
X114535714Y-172190000D01*
X114607142Y-172118571D01*
X114607142Y-172261429D01*
X113892856Y-173618571D02*
X113892856Y-172618571D01*
X113892856Y-172904286D02*
X113821428Y-172761429D01*
X113749999Y-172690000D01*
X113607142Y-172618571D01*
X113464285Y-172618571D01*
X112964285Y-173618571D02*
X112964285Y-172118571D01*
X112821428Y-173047143D02*
X112392857Y-173618571D01*
X112392857Y-172618571D02*
X112964285Y-173190000D01*
X110607142Y-173618571D02*
X110607142Y-172118571D01*
X110607142Y-172832857D02*
X109749999Y-172832857D01*
X109749999Y-173618571D02*
X109749999Y-172118571D01*
X108464285Y-173547143D02*
X108607142Y-173618571D01*
X108892856Y-173618571D01*
X109035713Y-173547143D01*
X109107142Y-173404286D01*
X109107142Y-172832857D01*
X109035713Y-172690000D01*
X108892856Y-172618571D01*
X108607142Y-172618571D01*
X108464285Y-172690000D01*
X108392856Y-172832857D01*
X108392856Y-172975714D01*
X109107142Y-173118571D01*
X107749999Y-173618571D02*
X107749999Y-172618571D01*
X107749999Y-172118571D02*
X107821428Y-172190000D01*
X107749999Y-172261429D01*
X107678571Y-172190000D01*
X107749999Y-172118571D01*
X107749999Y-172261429D01*
X107107142Y-173547143D02*
X106964285Y-173618571D01*
X106678570Y-173618571D01*
X106535713Y-173547143D01*
X106464285Y-173404286D01*
X106464285Y-173332857D01*
X106535713Y-173190000D01*
X106678570Y-173118571D01*
X106892856Y-173118571D01*
X107035713Y-173047143D01*
X107107142Y-172904286D01*
X107107142Y-172832857D01*
X107035713Y-172690000D01*
X106892856Y-172618571D01*
X106678570Y-172618571D01*
X106535713Y-172690000D01*
X105892856Y-173547143D02*
X105749999Y-173618571D01*
X105464284Y-173618571D01*
X105321427Y-173547143D01*
X105249999Y-173404286D01*
X105249999Y-173332857D01*
X105321427Y-173190000D01*
X105464284Y-173118571D01*
X105678570Y-173118571D01*
X105821427Y-173047143D01*
X105892856Y-172904286D01*
X105892856Y-172832857D01*
X105821427Y-172690000D01*
X105678570Y-172618571D01*
X105464284Y-172618571D01*
X105321427Y-172690000D01*
X104749998Y-172618571D02*
X104464284Y-173618571D01*
X104178570Y-172904286D01*
X103892855Y-173618571D01*
X103607141Y-172618571D01*
X102821426Y-173618571D02*
X102964284Y-173547143D01*
X103035712Y-173475714D01*
X103107141Y-173332857D01*
X103107141Y-172904286D01*
X103035712Y-172761429D01*
X102964284Y-172690000D01*
X102821426Y-172618571D01*
X102607141Y-172618571D01*
X102464284Y-172690000D01*
X102392855Y-172761429D01*
X102321426Y-172904286D01*
X102321426Y-173332857D01*
X102392855Y-173475714D01*
X102464284Y-173547143D01*
X102607141Y-173618571D01*
X102821426Y-173618571D01*
X101464283Y-173618571D02*
X101607141Y-173547143D01*
X101678569Y-173404286D01*
X101678569Y-172118571D01*
X101107141Y-172618571D02*
X100535712Y-172618571D01*
X100892855Y-173618571D02*
X100892855Y-172332857D01*
X100821427Y-172190000D01*
X100678569Y-172118571D01*
X100535712Y-172118571D01*
X98964284Y-172261429D02*
X98892855Y-172190000D01*
X98749998Y-172118571D01*
X98392855Y-172118571D01*
X98249998Y-172190000D01*
X98178569Y-172261429D01*
X98107141Y-172404286D01*
X98107141Y-172547143D01*
X98178569Y-172761429D01*
X99035712Y-173618571D01*
X98107141Y-173618571D01*
X97178570Y-172118571D02*
X97035713Y-172118571D01*
X96892856Y-172190000D01*
X96821427Y-172261429D01*
X96749998Y-172404286D01*
X96678570Y-172690000D01*
X96678570Y-173047143D01*
X96749998Y-173332857D01*
X96821427Y-173475714D01*
X96892856Y-173547143D01*
X97035713Y-173618571D01*
X97178570Y-173618571D01*
X97321427Y-173547143D01*
X97392856Y-173475714D01*
X97464284Y-173332857D01*
X97535713Y-173047143D01*
X97535713Y-172690000D01*
X97464284Y-172404286D01*
X97392856Y-172261429D01*
X97321427Y-172190000D01*
X97178570Y-172118571D01*
X95249999Y-173618571D02*
X96107142Y-173618571D01*
X95678570Y-173618571D02*
X95678570Y-172118571D01*
X95821427Y-172332857D01*
X95964285Y-172475714D01*
X96107142Y-172547143D01*
X94749999Y-172118571D02*
X93749999Y-172118571D01*
X94392856Y-173618571D01*
D11*
X66265000Y-117060000D02*
X143735000Y-117060000D01*
X66265000Y-127220000D02*
X143735000Y-127220000D01*
X66265000Y-137380000D02*
X143735000Y-137380000D01*
X66265000Y-147540000D02*
X143735000Y-147540000D01*
X66265000Y-157700000D02*
X143735000Y-157700000D01*
X66265000Y-167860000D02*
X143735000Y-167860000D01*
X66265000Y-178020000D02*
X143735000Y-178020000D01*
X66265000Y-188180000D02*
X143735000Y-188180000D01*
D12*
X145362143Y-188380000D02*
X144647857Y-188380000D01*
X145505000Y-188722857D02*
X145005000Y-187522857D01*
X144505000Y-188722857D01*
X144897857Y-177934286D02*
X144683571Y-177991429D01*
X144612143Y-178048571D01*
X144540714Y-178162857D01*
X144540714Y-178334286D01*
X144612143Y-178448571D01*
X144683571Y-178505714D01*
X144826429Y-178562857D01*
X145397857Y-178562857D01*
X145397857Y-177362857D01*
X144897857Y-177362857D01*
X144755000Y-177420000D01*
X144683571Y-177477143D01*
X144612143Y-177591429D01*
X144612143Y-177705714D01*
X144683571Y-177820000D01*
X144755000Y-177877143D01*
X144897857Y-177934286D01*
X145397857Y-177934286D01*
X144540714Y-168288571D02*
X144612143Y-168345714D01*
X144826429Y-168402857D01*
X144969286Y-168402857D01*
X145183571Y-168345714D01*
X145326429Y-168231429D01*
X145397857Y-168117143D01*
X145469286Y-167888571D01*
X145469286Y-167717143D01*
X145397857Y-167488571D01*
X145326429Y-167374286D01*
X145183571Y-167260000D01*
X144969286Y-167202857D01*
X144826429Y-167202857D01*
X144612143Y-167260000D01*
X144540714Y-167317143D01*
X145397857Y-158242857D02*
X145397857Y-157042857D01*
X145040714Y-157042857D01*
X144826429Y-157100000D01*
X144683571Y-157214286D01*
X144612143Y-157328571D01*
X144540714Y-157557143D01*
X144540714Y-157728571D01*
X144612143Y-157957143D01*
X144683571Y-158071429D01*
X144826429Y-158185714D01*
X145040714Y-158242857D01*
X145397857Y-158242857D01*
X145326428Y-147454286D02*
X144826428Y-147454286D01*
X144612142Y-148082857D02*
X145326428Y-148082857D01*
X145326428Y-146882857D01*
X144612142Y-146882857D01*
X144790714Y-137294286D02*
X145290714Y-137294286D01*
X145290714Y-137922857D02*
X145290714Y-136722857D01*
X144576428Y-136722857D01*
X144612143Y-126620000D02*
X144755000Y-126562857D01*
X144969286Y-126562857D01*
X145183571Y-126620000D01*
X145326429Y-126734286D01*
X145397857Y-126848571D01*
X145469286Y-127077143D01*
X145469286Y-127248571D01*
X145397857Y-127477143D01*
X145326429Y-127591429D01*
X145183571Y-127705714D01*
X144969286Y-127762857D01*
X144826429Y-127762857D01*
X144612143Y-127705714D01*
X144540714Y-127648571D01*
X144540714Y-127248571D01*
X144826429Y-127248571D01*
X145433571Y-117602857D02*
X145433571Y-116402857D01*
X145433571Y-116974286D02*
X144576428Y-116974286D01*
X144576428Y-117602857D02*
X144576428Y-116402857D01*
D11*
X130400000Y-114520000D02*
X130400000Y-192625000D01*
X120240000Y-114520000D02*
X120240000Y-192625000D01*
X89760000Y-114520000D02*
X89760000Y-192625000D01*
X79600000Y-114520000D02*
X79600000Y-192625000D01*
X69440000Y-114520000D02*
X69440000Y-192625000D01*
X140560000Y-114520000D02*
X140560000Y-192625000D01*
D12*
X140631428Y-193237857D02*
X140488571Y-193237857D01*
X140345714Y-193295000D01*
X140274285Y-193352143D01*
X140202856Y-193466429D01*
X140131428Y-193695000D01*
X140131428Y-193980714D01*
X140202856Y-194209286D01*
X140274285Y-194323571D01*
X140345714Y-194380714D01*
X140488571Y-194437857D01*
X140631428Y-194437857D01*
X140774285Y-194380714D01*
X140845714Y-194323571D01*
X140917142Y-194209286D01*
X140988571Y-193980714D01*
X140988571Y-193695000D01*
X140917142Y-193466429D01*
X140845714Y-193352143D01*
X140774285Y-193295000D01*
X140631428Y-193237857D01*
X129971428Y-194437857D02*
X130828571Y-194437857D01*
X130399999Y-194437857D02*
X130399999Y-193237857D01*
X130542856Y-193409286D01*
X130685714Y-193523571D01*
X130828571Y-193580714D01*
X120668571Y-193352143D02*
X120597142Y-193295000D01*
X120454285Y-193237857D01*
X120097142Y-193237857D01*
X119954285Y-193295000D01*
X119882856Y-193352143D01*
X119811428Y-193466429D01*
X119811428Y-193580714D01*
X119882856Y-193752143D01*
X120739999Y-194437857D01*
X119811428Y-194437857D01*
X110579999Y-193237857D02*
X109651428Y-193237857D01*
X110151428Y-193695000D01*
X109937142Y-193695000D01*
X109794285Y-193752143D01*
X109722856Y-193809286D01*
X109651428Y-193923571D01*
X109651428Y-194209286D01*
X109722856Y-194323571D01*
X109794285Y-194380714D01*
X109937142Y-194437857D01*
X110365714Y-194437857D01*
X110508571Y-194380714D01*
X110579999Y-194323571D01*
X99634285Y-193637857D02*
X99634285Y-194437857D01*
X99991428Y-193180714D02*
X100348571Y-194037857D01*
X99419999Y-194037857D01*
X89402856Y-193237857D02*
X90117142Y-193237857D01*
X90188571Y-193809286D01*
X90117142Y-193752143D01*
X89974285Y-193695000D01*
X89617142Y-193695000D01*
X89474285Y-193752143D01*
X89402856Y-193809286D01*
X89331428Y-193923571D01*
X89331428Y-194209286D01*
X89402856Y-194323571D01*
X89474285Y-194380714D01*
X89617142Y-194437857D01*
X89974285Y-194437857D01*
X90117142Y-194380714D01*
X90188571Y-194323571D01*
X79314285Y-193237857D02*
X79599999Y-193237857D01*
X79742856Y-193295000D01*
X79814285Y-193352143D01*
X79957142Y-193523571D01*
X80028571Y-193752143D01*
X80028571Y-194209286D01*
X79957142Y-194323571D01*
X79885714Y-194380714D01*
X79742856Y-194437857D01*
X79457142Y-194437857D01*
X79314285Y-194380714D01*
X79242856Y-194323571D01*
X79171428Y-194209286D01*
X79171428Y-193923571D01*
X79242856Y-193809286D01*
X79314285Y-193752143D01*
X79457142Y-193695000D01*
X79742856Y-193695000D01*
X79885714Y-193752143D01*
X79957142Y-193809286D01*
X80028571Y-193923571D01*
X69939999Y-193237857D02*
X68939999Y-193237857D01*
X69582856Y-194437857D01*
X65423571Y-117602857D02*
X65423571Y-116402857D01*
X65423571Y-116974286D02*
X64566428Y-116974286D01*
X64566428Y-117602857D02*
X64566428Y-116402857D01*
X64602143Y-126620000D02*
X64745000Y-126562857D01*
X64959286Y-126562857D01*
X65173571Y-126620000D01*
X65316429Y-126734286D01*
X65387857Y-126848571D01*
X65459286Y-127077143D01*
X65459286Y-127248571D01*
X65387857Y-127477143D01*
X65316429Y-127591429D01*
X65173571Y-127705714D01*
X64959286Y-127762857D01*
X64816429Y-127762857D01*
X64602143Y-127705714D01*
X64530714Y-127648571D01*
X64530714Y-127248571D01*
X64816429Y-127248571D01*
X64780714Y-137294286D02*
X65280714Y-137294286D01*
X65280714Y-137922857D02*
X65280714Y-136722857D01*
X64566428Y-136722857D01*
X65316428Y-147454286D02*
X64816428Y-147454286D01*
X64602142Y-148082857D02*
X65316428Y-148082857D01*
X65316428Y-146882857D01*
X64602142Y-146882857D01*
X65387857Y-158242857D02*
X65387857Y-157042857D01*
X65030714Y-157042857D01*
X64816429Y-157100000D01*
X64673571Y-157214286D01*
X64602143Y-157328571D01*
X64530714Y-157557143D01*
X64530714Y-157728571D01*
X64602143Y-157957143D01*
X64673571Y-158071429D01*
X64816429Y-158185714D01*
X65030714Y-158242857D01*
X65387857Y-158242857D01*
X64530714Y-168288571D02*
X64602143Y-168345714D01*
X64816429Y-168402857D01*
X64959286Y-168402857D01*
X65173571Y-168345714D01*
X65316429Y-168231429D01*
X65387857Y-168117143D01*
X65459286Y-167888571D01*
X65459286Y-167717143D01*
X65387857Y-167488571D01*
X65316429Y-167374286D01*
X65173571Y-167260000D01*
X64959286Y-167202857D01*
X64816429Y-167202857D01*
X64602143Y-167260000D01*
X64530714Y-167317143D01*
X64887857Y-177934286D02*
X64673571Y-177991429D01*
X64602143Y-178048571D01*
X64530714Y-178162857D01*
X64530714Y-178334286D01*
X64602143Y-178448571D01*
X64673571Y-178505714D01*
X64816429Y-178562857D01*
X65387857Y-178562857D01*
X65387857Y-177362857D01*
X64887857Y-177362857D01*
X64745000Y-177420000D01*
X64673571Y-177477143D01*
X64602143Y-177591429D01*
X64602143Y-177705714D01*
X64673571Y-177820000D01*
X64745000Y-177877143D01*
X64887857Y-177934286D01*
X65387857Y-177934286D01*
X65352143Y-188380000D02*
X64637857Y-188380000D01*
X65495000Y-188722857D02*
X64995000Y-187522857D01*
X64495000Y-188722857D01*
X104087143Y-96178000D02*
X103372857Y-96178000D01*
X104230000Y-96520857D02*
X103730000Y-95320857D01*
X103230000Y-96520857D01*
X101082857Y-95892286D02*
X100868571Y-95949429D01*
X100797143Y-96006571D01*
X100725714Y-96120857D01*
X100725714Y-96292286D01*
X100797143Y-96406571D01*
X100868571Y-96463714D01*
X101011429Y-96520857D01*
X101582857Y-96520857D01*
X101582857Y-95320857D01*
X101082857Y-95320857D01*
X100940000Y-95378000D01*
X100868571Y-95435143D01*
X100797143Y-95549429D01*
X100797143Y-95663714D01*
X100868571Y-95778000D01*
X100940000Y-95835143D01*
X101082857Y-95892286D01*
X101582857Y-95892286D01*
X98185714Y-96406571D02*
X98257143Y-96463714D01*
X98471429Y-96520857D01*
X98614286Y-96520857D01*
X98828571Y-96463714D01*
X98971429Y-96349429D01*
X99042857Y-96235143D01*
X99114286Y-96006571D01*
X99114286Y-95835143D01*
X99042857Y-95606571D01*
X98971429Y-95492286D01*
X98828571Y-95378000D01*
X98614286Y-95320857D01*
X98471429Y-95320857D01*
X98257143Y-95378000D01*
X98185714Y-95435143D01*
X96502857Y-96520857D02*
X96502857Y-95320857D01*
X96145714Y-95320857D01*
X95931429Y-95378000D01*
X95788571Y-95492286D01*
X95717143Y-95606571D01*
X95645714Y-95835143D01*
X95645714Y-96006571D01*
X95717143Y-96235143D01*
X95788571Y-96349429D01*
X95931429Y-96463714D01*
X96145714Y-96520857D01*
X96502857Y-96520857D01*
X93891428Y-95892286D02*
X93391428Y-95892286D01*
X93177142Y-96520857D02*
X93891428Y-96520857D01*
X93891428Y-95320857D01*
X93177142Y-95320857D01*
X90815714Y-95892286D02*
X91315714Y-95892286D01*
X91315714Y-96520857D02*
X91315714Y-95320857D01*
X90601428Y-95320857D01*
X88097143Y-95378000D02*
X88240000Y-95320857D01*
X88454286Y-95320857D01*
X88668571Y-95378000D01*
X88811429Y-95492286D01*
X88882857Y-95606571D01*
X88954286Y-95835143D01*
X88954286Y-96006571D01*
X88882857Y-96235143D01*
X88811429Y-96349429D01*
X88668571Y-96463714D01*
X88454286Y-96520857D01*
X88311429Y-96520857D01*
X88097143Y-96463714D01*
X88025714Y-96406571D01*
X88025714Y-96006571D01*
X88311429Y-96006571D01*
X86378571Y-96520857D02*
X86378571Y-95320857D01*
X86378571Y-95892286D02*
X85521428Y-95892286D01*
X85521428Y-96520857D02*
X85521428Y-95320857D01*
X106769999Y-95320857D02*
X105769999Y-95320857D01*
X106412856Y-96520857D01*
X108524285Y-95320857D02*
X108809999Y-95320857D01*
X108952856Y-95378000D01*
X109024285Y-95435143D01*
X109167142Y-95606571D01*
X109238571Y-95835143D01*
X109238571Y-96292286D01*
X109167142Y-96406571D01*
X109095714Y-96463714D01*
X108952856Y-96520857D01*
X108667142Y-96520857D01*
X108524285Y-96463714D01*
X108452856Y-96406571D01*
X108381428Y-96292286D01*
X108381428Y-96006571D01*
X108452856Y-95892286D01*
X108524285Y-95835143D01*
X108667142Y-95778000D01*
X108952856Y-95778000D01*
X109095714Y-95835143D01*
X109167142Y-95892286D01*
X109238571Y-96006571D01*
X110992856Y-95320857D02*
X111707142Y-95320857D01*
X111778571Y-95892286D01*
X111707142Y-95835143D01*
X111564285Y-95778000D01*
X111207142Y-95778000D01*
X111064285Y-95835143D01*
X110992856Y-95892286D01*
X110921428Y-96006571D01*
X110921428Y-96292286D01*
X110992856Y-96406571D01*
X111064285Y-96463714D01*
X111207142Y-96520857D01*
X111564285Y-96520857D01*
X111707142Y-96463714D01*
X111778571Y-96406571D01*
X113604285Y-95720857D02*
X113604285Y-96520857D01*
X113961428Y-95263714D02*
X114318571Y-96120857D01*
X113389999Y-96120857D01*
X116929999Y-95320857D02*
X116001428Y-95320857D01*
X116501428Y-95778000D01*
X116287142Y-95778000D01*
X116144285Y-95835143D01*
X116072856Y-95892286D01*
X116001428Y-96006571D01*
X116001428Y-96292286D01*
X116072856Y-96406571D01*
X116144285Y-96463714D01*
X116287142Y-96520857D01*
X116715714Y-96520857D01*
X116858571Y-96463714D01*
X116929999Y-96406571D01*
X119398571Y-95435143D02*
X119327142Y-95378000D01*
X119184285Y-95320857D01*
X118827142Y-95320857D01*
X118684285Y-95378000D01*
X118612856Y-95435143D01*
X118541428Y-95549429D01*
X118541428Y-95663714D01*
X118612856Y-95835143D01*
X119469999Y-96520857D01*
X118541428Y-96520857D01*
X121081428Y-96520857D02*
X121938571Y-96520857D01*
X121509999Y-96520857D02*
X121509999Y-95320857D01*
X121652856Y-95492286D01*
X121795714Y-95606571D01*
X121938571Y-95663714D01*
X124121428Y-95320857D02*
X123978571Y-95320857D01*
X123835714Y-95378000D01*
X123764285Y-95435143D01*
X123692856Y-95549429D01*
X123621428Y-95778000D01*
X123621428Y-96063714D01*
X123692856Y-96292286D01*
X123764285Y-96406571D01*
X123835714Y-96463714D01*
X123978571Y-96520857D01*
X124121428Y-96520857D01*
X124264285Y-96463714D01*
X124335714Y-96406571D01*
X124407142Y-96292286D01*
X124478571Y-96063714D01*
X124478571Y-95778000D01*
X124407142Y-95549429D01*
X124335714Y-95435143D01*
X124264285Y-95378000D01*
X124121428Y-95320857D01*
D13*
X60000000Y-95000000D02*
G75*
G03X55000000Y-100000000I0J-5000000D01*
G01*
X155000000Y-100000000D02*
G75*
G03X150000000Y-95000000I-5000000J0D01*
G01*
X150000000Y-195000000D02*
G75*
G03X155000000Y-190000000I0J5000000D01*
G01*
X55000000Y-190000000D02*
G75*
G03X60000000Y-195000000I5000000J0D01*
G01*
X60000000Y-95000000D02*
X150000000Y-95000000D01*
X155000000Y-100000000D02*
X155000000Y-190000000D01*
X150000000Y-195000000D02*
X60000000Y-195000000D01*
X55000000Y-190000000D02*
X55000000Y-100000000D01*
D14*
X62032000Y-100000000D02*
G75*
G03X62032000Y-100000000I-2032000J0D01*
G01*
X60000000Y-97587000D02*
X60000000Y-102413000D01*
X57587000Y-100000000D02*
X62413000Y-100000000D01*
X152032000Y-100000000D02*
G75*
G03X152032000Y-100000000I-2032000J0D01*
G01*
X150000000Y-97587000D02*
X150000000Y-102413000D01*
X147587000Y-100000000D02*
X152413000Y-100000000D01*
X152032000Y-190000000D02*
G75*
G03X152032000Y-190000000I-2032000J0D01*
G01*
X150000000Y-187587000D02*
X150000000Y-192413000D01*
X147587000Y-190000000D02*
X152413000Y-190000000D01*
X62032000Y-190000000D02*
G75*
G03X62032000Y-190000000I-2032000J0D01*
G01*
X60000000Y-187587000D02*
X60000000Y-192413000D01*
X57587000Y-190000000D02*
X62413000Y-190000000D01*
D15*
X84680000Y-99280000D02*
X84680000Y-96740000D01*
X105000000Y-99280000D02*
X84680000Y-99280000D01*
X105000000Y-96740000D02*
X105000000Y-99280000D01*
X84680000Y-96740000D02*
X105000000Y-96740000D01*
X105000000Y-99280000D02*
X105000000Y-96740000D01*
X125320000Y-99280000D02*
X105000000Y-99280000D01*
X125320000Y-96740000D02*
X125320000Y-99280000D01*
X105000000Y-96740000D02*
X125320000Y-96740000D01*
X64360000Y-99280000D02*
X64360000Y-96740000D01*
X84680000Y-99280000D02*
X64360000Y-99280000D01*
X84680000Y-96740000D02*
X84680000Y-99280000D01*
X64360000Y-96740000D02*
X84680000Y-96740000D01*
X125320000Y-99280000D02*
X125320000Y-96740000D01*
X145640000Y-99280000D02*
X125320000Y-99280000D01*
X145640000Y-96740000D02*
X145640000Y-99280000D01*
X125320000Y-96740000D02*
X145640000Y-96740000D01*
D16*
X59130000Y-176750000D02*
G75*
G03X56890000Y-176750000I-1120000J0D01*
G01*
X56890000Y-179290000D02*
G75*
G03X59130000Y-179290000I1120000J0D01*
G01*
X56890000Y-179290000D02*
X56890000Y-176750000D01*
X59130000Y-179290000D02*
X59130000Y-176750000D01*
X61670000Y-176750000D02*
G75*
G03X59430000Y-176750000I-1120000J0D01*
G01*
X59430000Y-179290000D02*
G75*
G03X61670000Y-179290000I1120000J0D01*
G01*
X59430000Y-179290000D02*
X59430000Y-176750000D01*
X61670000Y-179290000D02*
X61670000Y-176750000D01*
X64210000Y-176750000D02*
G75*
G03X61970000Y-176750000I-1120000J0D01*
G01*
X61970000Y-179290000D02*
G75*
G03X64210000Y-179290000I1120000J0D01*
G01*
X61970000Y-179290000D02*
X61970000Y-176750000D01*
X64210000Y-179290000D02*
X64210000Y-176750000D01*
X59130000Y-181830000D02*
G75*
G03X56890000Y-181830000I-1120000J0D01*
G01*
X56890000Y-184370000D02*
G75*
G03X59130000Y-184370000I1120000J0D01*
G01*
X56890000Y-184370000D02*
X56890000Y-181830000D01*
X59130000Y-184370000D02*
X59130000Y-181830000D01*
X64210000Y-181830000D02*
G75*
G03X61970000Y-181830000I-1120000J0D01*
G01*
X61970000Y-184370000D02*
G75*
G03X64210000Y-184370000I1120000J0D01*
G01*
X61970000Y-184370000D02*
X61970000Y-181830000D01*
X64210000Y-184370000D02*
X64210000Y-181830000D01*
X61670000Y-181830000D02*
G75*
G03X59430000Y-181830000I-1120000J0D01*
G01*
X59430000Y-184370000D02*
G75*
G03X61670000Y-184370000I1120000J0D01*
G01*
X59430000Y-184370000D02*
X59430000Y-181830000D01*
X61670000Y-184370000D02*
X61670000Y-181830000D01*
X59130000Y-171670000D02*
G75*
G03X56890000Y-171670000I-1120000J0D01*
G01*
X56890000Y-174210000D02*
G75*
G03X59130000Y-174210000I1120000J0D01*
G01*
X56890000Y-174210000D02*
X56890000Y-171670000D01*
X59130000Y-174210000D02*
X59130000Y-171670000D01*
X61670000Y-171670000D02*
G75*
G03X59430000Y-171670000I-1120000J0D01*
G01*
X59430000Y-174210000D02*
G75*
G03X61670000Y-174210000I1120000J0D01*
G01*
X59430000Y-174210000D02*
X59430000Y-171670000D01*
X61670000Y-174210000D02*
X61670000Y-171670000D01*
X64210000Y-171670000D02*
G75*
G03X61970000Y-171670000I-1120000J0D01*
G01*
X61970000Y-174210000D02*
G75*
G03X64210000Y-174210000I1120000J0D01*
G01*
X61970000Y-174210000D02*
X61970000Y-171670000D01*
X64210000Y-174210000D02*
X64210000Y-171670000D01*
X64210000Y-151350000D02*
G75*
G03X61970000Y-151350000I-1120000J0D01*
G01*
X61970000Y-153890000D02*
G75*
G03X64210000Y-153890000I1120000J0D01*
G01*
X61970000Y-153890000D02*
X61970000Y-151350000D01*
X64210000Y-153890000D02*
X64210000Y-151350000D01*
X61670000Y-151350000D02*
G75*
G03X59430000Y-151350000I-1120000J0D01*
G01*
X59430000Y-153890000D02*
G75*
G03X61670000Y-153890000I1120000J0D01*
G01*
X59430000Y-153890000D02*
X59430000Y-151350000D01*
X61670000Y-153890000D02*
X61670000Y-151350000D01*
X59130000Y-151350000D02*
G75*
G03X56890000Y-151350000I-1120000J0D01*
G01*
X56890000Y-153890000D02*
G75*
G03X59130000Y-153890000I1120000J0D01*
G01*
X56890000Y-153890000D02*
X56890000Y-151350000D01*
X59130000Y-153890000D02*
X59130000Y-151350000D01*
X59130000Y-146270000D02*
G75*
G03X56890000Y-146270000I-1120000J0D01*
G01*
X56890000Y-148810000D02*
G75*
G03X59130000Y-148810000I1120000J0D01*
G01*
X56890000Y-148810000D02*
X56890000Y-146270000D01*
X59130000Y-148810000D02*
X59130000Y-146270000D01*
X61670000Y-146270000D02*
G75*
G03X59430000Y-146270000I-1120000J0D01*
G01*
X59430000Y-148810000D02*
G75*
G03X61670000Y-148810000I1120000J0D01*
G01*
X59430000Y-148810000D02*
X59430000Y-146270000D01*
X61670000Y-148810000D02*
X61670000Y-146270000D01*
X64210000Y-146270000D02*
G75*
G03X61970000Y-146270000I-1120000J0D01*
G01*
X61970000Y-148810000D02*
G75*
G03X64210000Y-148810000I1120000J0D01*
G01*
X61970000Y-148810000D02*
X61970000Y-146270000D01*
X64210000Y-148810000D02*
X64210000Y-146270000D01*
X64210000Y-158970000D02*
G75*
G03X61970000Y-158970000I-1120000J0D01*
G01*
X61970000Y-161510000D02*
G75*
G03X64210000Y-161510000I1120000J0D01*
G01*
X61970000Y-161510000D02*
X61970000Y-158970000D01*
X64210000Y-161510000D02*
X64210000Y-158970000D01*
X61670000Y-158970000D02*
G75*
G03X59430000Y-158970000I-1120000J0D01*
G01*
X59430000Y-161510000D02*
G75*
G03X61670000Y-161510000I1120000J0D01*
G01*
X59430000Y-161510000D02*
X59430000Y-158970000D01*
X61670000Y-161510000D02*
X61670000Y-158970000D01*
X59130000Y-158970000D02*
G75*
G03X56890000Y-158970000I-1120000J0D01*
G01*
X56890000Y-161510000D02*
G75*
G03X59130000Y-161510000I1120000J0D01*
G01*
X56890000Y-161510000D02*
X56890000Y-158970000D01*
X59130000Y-161510000D02*
X59130000Y-158970000D01*
X59130000Y-164050000D02*
G75*
G03X56890000Y-164050000I-1120000J0D01*
G01*
X56890000Y-166590000D02*
G75*
G03X59130000Y-166590000I1120000J0D01*
G01*
X56890000Y-166590000D02*
X56890000Y-164050000D01*
X59130000Y-166590000D02*
X59130000Y-164050000D01*
X61670000Y-164050000D02*
G75*
G03X59430000Y-164050000I-1120000J0D01*
G01*
X59430000Y-166590000D02*
G75*
G03X61670000Y-166590000I1120000J0D01*
G01*
X59430000Y-166590000D02*
X59430000Y-164050000D01*
X61670000Y-166590000D02*
X61670000Y-164050000D01*
X64210000Y-164050000D02*
G75*
G03X61970000Y-164050000I-1120000J0D01*
G01*
X61970000Y-166590000D02*
G75*
G03X64210000Y-166590000I1120000J0D01*
G01*
X61970000Y-166590000D02*
X61970000Y-164050000D01*
X64210000Y-166590000D02*
X64210000Y-164050000D01*
X64210000Y-120870000D02*
G75*
G03X61970000Y-120870000I-1120000J0D01*
G01*
X61970000Y-123410000D02*
G75*
G03X64210000Y-123410000I1120000J0D01*
G01*
X61970000Y-123410000D02*
X61970000Y-120870000D01*
X64210000Y-123410000D02*
X64210000Y-120870000D01*
X61670000Y-120870000D02*
G75*
G03X59430000Y-120870000I-1120000J0D01*
G01*
X59430000Y-123410000D02*
G75*
G03X61670000Y-123410000I1120000J0D01*
G01*
X59430000Y-123410000D02*
X59430000Y-120870000D01*
X61670000Y-123410000D02*
X61670000Y-120870000D01*
X59130000Y-120870000D02*
G75*
G03X56890000Y-120870000I-1120000J0D01*
G01*
X56890000Y-123410000D02*
G75*
G03X59130000Y-123410000I1120000J0D01*
G01*
X56890000Y-123410000D02*
X56890000Y-120870000D01*
X59130000Y-123410000D02*
X59130000Y-120870000D01*
X66750000Y-103090000D02*
G75*
G03X64510000Y-103090000I-1120000J0D01*
G01*
X64510000Y-105630000D02*
G75*
G03X66750000Y-105630000I1120000J0D01*
G01*
X64510000Y-105630000D02*
X64510000Y-103090000D01*
X66750000Y-105630000D02*
X66750000Y-103090000D01*
X64210000Y-108170000D02*
G75*
G03X61970000Y-108170000I-1120000J0D01*
G01*
X61970000Y-110710000D02*
G75*
G03X64210000Y-110710000I1120000J0D01*
G01*
X61970000Y-110710000D02*
X61970000Y-108170000D01*
X64210000Y-110710000D02*
X64210000Y-108170000D01*
X61670000Y-108170000D02*
G75*
G03X59430000Y-108170000I-1120000J0D01*
G01*
X59430000Y-110710000D02*
G75*
G03X61670000Y-110710000I1120000J0D01*
G01*
X59430000Y-110710000D02*
X59430000Y-108170000D01*
X61670000Y-110710000D02*
X61670000Y-108170000D01*
X59130000Y-108170000D02*
G75*
G03X56890000Y-108170000I-1120000J0D01*
G01*
X56890000Y-110710000D02*
G75*
G03X59130000Y-110710000I1120000J0D01*
G01*
X56890000Y-110710000D02*
X56890000Y-108170000D01*
X59130000Y-110710000D02*
X59130000Y-108170000D01*
X59130000Y-113250000D02*
G75*
G03X56890000Y-113250000I-1120000J0D01*
G01*
X56890000Y-115790000D02*
G75*
G03X59130000Y-115790000I1120000J0D01*
G01*
X56890000Y-115790000D02*
X56890000Y-113250000D01*
X59130000Y-115790000D02*
X59130000Y-113250000D01*
X61670000Y-113250000D02*
G75*
G03X59430000Y-113250000I-1120000J0D01*
G01*
X59430000Y-115790000D02*
G75*
G03X61670000Y-115790000I1120000J0D01*
G01*
X59430000Y-115790000D02*
X59430000Y-113250000D01*
X61670000Y-115790000D02*
X61670000Y-113250000D01*
X64210000Y-113250000D02*
G75*
G03X61970000Y-113250000I-1120000J0D01*
G01*
X61970000Y-115790000D02*
G75*
G03X64210000Y-115790000I1120000J0D01*
G01*
X61970000Y-115790000D02*
X61970000Y-113250000D01*
X64210000Y-115790000D02*
X64210000Y-113250000D01*
X64210000Y-133570000D02*
G75*
G03X61970000Y-133570000I-1120000J0D01*
G01*
X61970000Y-136110000D02*
G75*
G03X64210000Y-136110000I1120000J0D01*
G01*
X61970000Y-136110000D02*
X61970000Y-133570000D01*
X64210000Y-136110000D02*
X64210000Y-133570000D01*
X61670000Y-133570000D02*
G75*
G03X59430000Y-133570000I-1120000J0D01*
G01*
X59430000Y-136110000D02*
G75*
G03X61670000Y-136110000I1120000J0D01*
G01*
X59430000Y-136110000D02*
X59430000Y-133570000D01*
X61670000Y-136110000D02*
X61670000Y-133570000D01*
X59130000Y-133570000D02*
G75*
G03X56890000Y-133570000I-1120000J0D01*
G01*
X56890000Y-136110000D02*
G75*
G03X59130000Y-136110000I1120000J0D01*
G01*
X56890000Y-136110000D02*
X56890000Y-133570000D01*
X59130000Y-136110000D02*
X59130000Y-133570000D01*
X59130000Y-125950000D02*
G75*
G03X56890000Y-125950000I-1120000J0D01*
G01*
X56890000Y-128490000D02*
G75*
G03X59130000Y-128490000I1120000J0D01*
G01*
X56890000Y-128490000D02*
X56890000Y-125950000D01*
X59130000Y-128490000D02*
X59130000Y-125950000D01*
X61670000Y-125950000D02*
G75*
G03X59430000Y-125950000I-1120000J0D01*
G01*
X59430000Y-128490000D02*
G75*
G03X61670000Y-128490000I1120000J0D01*
G01*
X59430000Y-128490000D02*
X59430000Y-125950000D01*
X61670000Y-128490000D02*
X61670000Y-125950000D01*
X64210000Y-125950000D02*
G75*
G03X61970000Y-125950000I-1120000J0D01*
G01*
X61970000Y-128490000D02*
G75*
G03X64210000Y-128490000I1120000J0D01*
G01*
X61970000Y-128490000D02*
X61970000Y-125950000D01*
X64210000Y-128490000D02*
X64210000Y-125950000D01*
X64210000Y-138650000D02*
G75*
G03X61970000Y-138650000I-1120000J0D01*
G01*
X61970000Y-141190000D02*
G75*
G03X64210000Y-141190000I1120000J0D01*
G01*
X61970000Y-141190000D02*
X61970000Y-138650000D01*
X64210000Y-141190000D02*
X64210000Y-138650000D01*
X61670000Y-138650000D02*
G75*
G03X59430000Y-138650000I-1120000J0D01*
G01*
X59430000Y-141190000D02*
G75*
G03X61670000Y-141190000I1120000J0D01*
G01*
X59430000Y-141190000D02*
X59430000Y-138650000D01*
X61670000Y-141190000D02*
X61670000Y-138650000D01*
X59130000Y-138650000D02*
G75*
G03X56890000Y-138650000I-1120000J0D01*
G01*
X56890000Y-141190000D02*
G75*
G03X59130000Y-141190000I1120000J0D01*
G01*
X56890000Y-141190000D02*
X56890000Y-138650000D01*
X59130000Y-141190000D02*
X59130000Y-138650000D01*
X153110000Y-146270000D02*
G75*
G03X150870000Y-146270000I-1120000J0D01*
G01*
X150870000Y-148810000D02*
G75*
G03X153110000Y-148810000I1120000J0D01*
G01*
X150870000Y-148810000D02*
X150870000Y-146270000D01*
X153110000Y-148810000D02*
X153110000Y-146270000D01*
X150570000Y-146270000D02*
G75*
G03X148330000Y-146270000I-1120000J0D01*
G01*
X148330000Y-148810000D02*
G75*
G03X150570000Y-148810000I1120000J0D01*
G01*
X148330000Y-148810000D02*
X148330000Y-146270000D01*
X150570000Y-148810000D02*
X150570000Y-146270000D01*
X148030000Y-146270000D02*
G75*
G03X145790000Y-146270000I-1120000J0D01*
G01*
X145790000Y-148810000D02*
G75*
G03X148030000Y-148810000I1120000J0D01*
G01*
X145790000Y-148810000D02*
X145790000Y-146270000D01*
X148030000Y-148810000D02*
X148030000Y-146270000D01*
X148030000Y-138650000D02*
G75*
G03X145790000Y-138650000I-1120000J0D01*
G01*
X145790000Y-141190000D02*
G75*
G03X148030000Y-141190000I1120000J0D01*
G01*
X145790000Y-141190000D02*
X145790000Y-138650000D01*
X148030000Y-141190000D02*
X148030000Y-138650000D01*
X150570000Y-138650000D02*
G75*
G03X148330000Y-138650000I-1120000J0D01*
G01*
X148330000Y-141190000D02*
G75*
G03X150570000Y-141190000I1120000J0D01*
G01*
X148330000Y-141190000D02*
X148330000Y-138650000D01*
X150570000Y-141190000D02*
X150570000Y-138650000D01*
X153110000Y-138650000D02*
G75*
G03X150870000Y-138650000I-1120000J0D01*
G01*
X150870000Y-141190000D02*
G75*
G03X153110000Y-141190000I1120000J0D01*
G01*
X150870000Y-141190000D02*
X150870000Y-138650000D01*
X153110000Y-141190000D02*
X153110000Y-138650000D01*
X148030000Y-133570000D02*
G75*
G03X145790000Y-133570000I-1120000J0D01*
G01*
X145790000Y-136110000D02*
G75*
G03X148030000Y-136110000I1120000J0D01*
G01*
X145790000Y-136110000D02*
X145790000Y-133570000D01*
X148030000Y-136110000D02*
X148030000Y-133570000D01*
X150570000Y-133570000D02*
G75*
G03X148330000Y-133570000I-1120000J0D01*
G01*
X148330000Y-136110000D02*
G75*
G03X150570000Y-136110000I1120000J0D01*
G01*
X148330000Y-136110000D02*
X148330000Y-133570000D01*
X150570000Y-136110000D02*
X150570000Y-133570000D01*
X153110000Y-133570000D02*
G75*
G03X150870000Y-133570000I-1120000J0D01*
G01*
X150870000Y-136110000D02*
G75*
G03X153110000Y-136110000I1120000J0D01*
G01*
X150870000Y-136110000D02*
X150870000Y-133570000D01*
X153110000Y-136110000D02*
X153110000Y-133570000D01*
X153110000Y-113250000D02*
G75*
G03X150870000Y-113250000I-1120000J0D01*
G01*
X150870000Y-115790000D02*
G75*
G03X153110000Y-115790000I1120000J0D01*
G01*
X150870000Y-115790000D02*
X150870000Y-113250000D01*
X153110000Y-115790000D02*
X153110000Y-113250000D01*
X150570000Y-113250000D02*
G75*
G03X148330000Y-113250000I-1120000J0D01*
G01*
X148330000Y-115790000D02*
G75*
G03X150570000Y-115790000I1120000J0D01*
G01*
X148330000Y-115790000D02*
X148330000Y-113250000D01*
X150570000Y-115790000D02*
X150570000Y-113250000D01*
X148030000Y-113250000D02*
G75*
G03X145790000Y-113250000I-1120000J0D01*
G01*
X145790000Y-115790000D02*
G75*
G03X148030000Y-115790000I1120000J0D01*
G01*
X145790000Y-115790000D02*
X145790000Y-113250000D01*
X148030000Y-115790000D02*
X148030000Y-113250000D01*
X148030000Y-108170000D02*
G75*
G03X145790000Y-108170000I-1120000J0D01*
G01*
X145790000Y-110710000D02*
G75*
G03X148030000Y-110710000I1120000J0D01*
G01*
X145790000Y-110710000D02*
X145790000Y-108170000D01*
X148030000Y-110710000D02*
X148030000Y-108170000D01*
X150570000Y-108170000D02*
G75*
G03X148330000Y-108170000I-1120000J0D01*
G01*
X148330000Y-110710000D02*
G75*
G03X150570000Y-110710000I1120000J0D01*
G01*
X148330000Y-110710000D02*
X148330000Y-108170000D01*
X150570000Y-110710000D02*
X150570000Y-108170000D01*
X153110000Y-108170000D02*
G75*
G03X150870000Y-108170000I-1120000J0D01*
G01*
X150870000Y-110710000D02*
G75*
G03X153110000Y-110710000I1120000J0D01*
G01*
X150870000Y-110710000D02*
X150870000Y-108170000D01*
X153110000Y-110710000D02*
X153110000Y-108170000D01*
X153110000Y-120870000D02*
G75*
G03X150870000Y-120870000I-1120000J0D01*
G01*
X150870000Y-123410000D02*
G75*
G03X153110000Y-123410000I1120000J0D01*
G01*
X150870000Y-123410000D02*
X150870000Y-120870000D01*
X153110000Y-123410000D02*
X153110000Y-120870000D01*
X150570000Y-120870000D02*
G75*
G03X148330000Y-120870000I-1120000J0D01*
G01*
X148330000Y-123410000D02*
G75*
G03X150570000Y-123410000I1120000J0D01*
G01*
X148330000Y-123410000D02*
X148330000Y-120870000D01*
X150570000Y-123410000D02*
X150570000Y-120870000D01*
X148030000Y-120870000D02*
G75*
G03X145790000Y-120870000I-1120000J0D01*
G01*
X145790000Y-123410000D02*
G75*
G03X148030000Y-123410000I1120000J0D01*
G01*
X145790000Y-123410000D02*
X145790000Y-120870000D01*
X148030000Y-123410000D02*
X148030000Y-120870000D01*
X148030000Y-125950000D02*
G75*
G03X145790000Y-125950000I-1120000J0D01*
G01*
X145790000Y-128490000D02*
G75*
G03X148030000Y-128490000I1120000J0D01*
G01*
X145790000Y-128490000D02*
X145790000Y-125950000D01*
X148030000Y-128490000D02*
X148030000Y-125950000D01*
X150570000Y-125950000D02*
G75*
G03X148330000Y-125950000I-1120000J0D01*
G01*
X148330000Y-128490000D02*
G75*
G03X150570000Y-128490000I1120000J0D01*
G01*
X148330000Y-128490000D02*
X148330000Y-125950000D01*
X150570000Y-128490000D02*
X150570000Y-125950000D01*
X153110000Y-125950000D02*
G75*
G03X150870000Y-125950000I-1120000J0D01*
G01*
X150870000Y-128490000D02*
G75*
G03X153110000Y-128490000I1120000J0D01*
G01*
X150870000Y-128490000D02*
X150870000Y-125950000D01*
X153110000Y-128490000D02*
X153110000Y-125950000D01*
X153110000Y-164050000D02*
G75*
G03X150870000Y-164050000I-1120000J0D01*
G01*
X150870000Y-166590000D02*
G75*
G03X153110000Y-166590000I1120000J0D01*
G01*
X150870000Y-166590000D02*
X150870000Y-164050000D01*
X153110000Y-166590000D02*
X153110000Y-164050000D01*
X150570000Y-164050000D02*
G75*
G03X148330000Y-164050000I-1120000J0D01*
G01*
X148330000Y-166590000D02*
G75*
G03X150570000Y-166590000I1120000J0D01*
G01*
X148330000Y-166590000D02*
X148330000Y-164050000D01*
X150570000Y-166590000D02*
X150570000Y-164050000D01*
X148030000Y-164050000D02*
G75*
G03X145790000Y-164050000I-1120000J0D01*
G01*
X145790000Y-166590000D02*
G75*
G03X148030000Y-166590000I1120000J0D01*
G01*
X145790000Y-166590000D02*
X145790000Y-164050000D01*
X148030000Y-166590000D02*
X148030000Y-164050000D01*
X148030000Y-158970000D02*
G75*
G03X145790000Y-158970000I-1120000J0D01*
G01*
X145790000Y-161510000D02*
G75*
G03X148030000Y-161510000I1120000J0D01*
G01*
X145790000Y-161510000D02*
X145790000Y-158970000D01*
X148030000Y-161510000D02*
X148030000Y-158970000D01*
X150570000Y-158970000D02*
G75*
G03X148330000Y-158970000I-1120000J0D01*
G01*
X148330000Y-161510000D02*
G75*
G03X150570000Y-161510000I1120000J0D01*
G01*
X148330000Y-161510000D02*
X148330000Y-158970000D01*
X150570000Y-161510000D02*
X150570000Y-158970000D01*
X153110000Y-158970000D02*
G75*
G03X150870000Y-158970000I-1120000J0D01*
G01*
X150870000Y-161510000D02*
G75*
G03X153110000Y-161510000I1120000J0D01*
G01*
X150870000Y-161510000D02*
X150870000Y-158970000D01*
X153110000Y-161510000D02*
X153110000Y-158970000D01*
X153110000Y-151350000D02*
G75*
G03X150870000Y-151350000I-1120000J0D01*
G01*
X150870000Y-153890000D02*
G75*
G03X153110000Y-153890000I1120000J0D01*
G01*
X150870000Y-153890000D02*
X150870000Y-151350000D01*
X153110000Y-153890000D02*
X153110000Y-151350000D01*
X150570000Y-151350000D02*
G75*
G03X148330000Y-151350000I-1120000J0D01*
G01*
X148330000Y-153890000D02*
G75*
G03X150570000Y-153890000I1120000J0D01*
G01*
X148330000Y-153890000D02*
X148330000Y-151350000D01*
X150570000Y-153890000D02*
X150570000Y-151350000D01*
X148030000Y-151350000D02*
G75*
G03X145790000Y-151350000I-1120000J0D01*
G01*
X145790000Y-153890000D02*
G75*
G03X148030000Y-153890000I1120000J0D01*
G01*
X145790000Y-153890000D02*
X145790000Y-151350000D01*
X148030000Y-153890000D02*
X148030000Y-151350000D01*
X153110000Y-176750000D02*
G75*
G03X150870000Y-176750000I-1120000J0D01*
G01*
X150870000Y-179290000D02*
G75*
G03X153110000Y-179290000I1120000J0D01*
G01*
X150870000Y-179290000D02*
X150870000Y-176750000D01*
X153110000Y-179290000D02*
X153110000Y-176750000D01*
X150570000Y-176750000D02*
G75*
G03X148330000Y-176750000I-1120000J0D01*
G01*
X148330000Y-179290000D02*
G75*
G03X150570000Y-179290000I1120000J0D01*
G01*
X148330000Y-179290000D02*
X148330000Y-176750000D01*
X150570000Y-179290000D02*
X150570000Y-176750000D01*
X148030000Y-176750000D02*
G75*
G03X145790000Y-176750000I-1120000J0D01*
G01*
X145790000Y-179290000D02*
G75*
G03X148030000Y-179290000I1120000J0D01*
G01*
X145790000Y-179290000D02*
X145790000Y-176750000D01*
X148030000Y-179290000D02*
X148030000Y-176750000D01*
X148030000Y-171670000D02*
G75*
G03X145790000Y-171670000I-1120000J0D01*
G01*
X145790000Y-174210000D02*
G75*
G03X148030000Y-174210000I1120000J0D01*
G01*
X145790000Y-174210000D02*
X145790000Y-171670000D01*
X148030000Y-174210000D02*
X148030000Y-171670000D01*
X150570000Y-171670000D02*
G75*
G03X148330000Y-171670000I-1120000J0D01*
G01*
X148330000Y-174210000D02*
G75*
G03X150570000Y-174210000I1120000J0D01*
G01*
X148330000Y-174210000D02*
X148330000Y-171670000D01*
X150570000Y-174210000D02*
X150570000Y-171670000D01*
X153110000Y-171670000D02*
G75*
G03X150870000Y-171670000I-1120000J0D01*
G01*
X150870000Y-174210000D02*
G75*
G03X153110000Y-174210000I1120000J0D01*
G01*
X150870000Y-174210000D02*
X150870000Y-171670000D01*
X153110000Y-174210000D02*
X153110000Y-171670000D01*
X153110000Y-181830000D02*
G75*
G03X150870000Y-181830000I-1120000J0D01*
G01*
X150870000Y-184370000D02*
G75*
G03X153110000Y-184370000I1120000J0D01*
G01*
X150870000Y-184370000D02*
X150870000Y-181830000D01*
X153110000Y-184370000D02*
X153110000Y-181830000D01*
X150570000Y-181830000D02*
G75*
G03X148330000Y-181830000I-1120000J0D01*
G01*
X148330000Y-184370000D02*
G75*
G03X150570000Y-184370000I1120000J0D01*
G01*
X148330000Y-184370000D02*
X148330000Y-181830000D01*
X150570000Y-184370000D02*
X150570000Y-181830000D01*
X148030000Y-181830000D02*
G75*
G03X145790000Y-181830000I-1120000J0D01*
G01*
X145790000Y-184370000D02*
G75*
G03X148030000Y-184370000I1120000J0D01*
G01*
X145790000Y-184370000D02*
X145790000Y-181830000D01*
X148030000Y-184370000D02*
X148030000Y-181830000D01*
X144370000Y-111830000D02*
X141830000Y-111830000D01*
X144370000Y-109590000D02*
X141830000Y-109590000D01*
X144370000Y-109590000D02*
G75*
G02X144370000Y-111830000I0J-1120000D01*
G01*
X141830000Y-111830000D02*
G75*
G02X141830000Y-109590000I0J1120000D01*
G01*
X68170000Y-109290000D02*
X65630000Y-109290000D01*
X68170000Y-107050000D02*
X65630000Y-107050000D01*
X68170000Y-107050000D02*
G75*
G02X68170000Y-109290000I0J-1120000D01*
G01*
X65630000Y-109290000D02*
G75*
G02X65630000Y-107050000I0J1120000D01*
G01*
X73250000Y-109290000D02*
X70710000Y-109290000D01*
X73250000Y-107050000D02*
X70710000Y-107050000D01*
X73250000Y-107050000D02*
G75*
G02X73250000Y-109290000I0J-1120000D01*
G01*
X70710000Y-109290000D02*
G75*
G02X70710000Y-107050000I0J1120000D01*
G01*
X83410000Y-111830000D02*
X80870000Y-111830000D01*
X83410000Y-109590000D02*
X80870000Y-109590000D01*
X83410000Y-109590000D02*
G75*
G02X83410000Y-111830000I0J-1120000D01*
G01*
X80870000Y-111830000D02*
G75*
G02X80870000Y-109590000I0J1120000D01*
G01*
X83410000Y-109290000D02*
X80870000Y-109290000D01*
X83410000Y-107050000D02*
X80870000Y-107050000D01*
X83410000Y-107050000D02*
G75*
G02X83410000Y-109290000I0J-1120000D01*
G01*
X80870000Y-109290000D02*
G75*
G02X80870000Y-107050000I0J1120000D01*
G01*
X78330000Y-111830000D02*
X75790000Y-111830000D01*
X78330000Y-109590000D02*
X75790000Y-109590000D01*
X78330000Y-109590000D02*
G75*
G02X78330000Y-111830000I0J-1120000D01*
G01*
X75790000Y-111830000D02*
G75*
G02X75790000Y-109590000I0J1120000D01*
G01*
X68170000Y-111830000D02*
X65630000Y-111830000D01*
X68170000Y-109590000D02*
X65630000Y-109590000D01*
X68170000Y-109590000D02*
G75*
G02X68170000Y-111830000I0J-1120000D01*
G01*
X65630000Y-111830000D02*
G75*
G02X65630000Y-109590000I0J1120000D01*
G01*
X73250000Y-111830000D02*
X70710000Y-111830000D01*
X73250000Y-109590000D02*
X70710000Y-109590000D01*
X73250000Y-109590000D02*
G75*
G02X73250000Y-111830000I0J-1120000D01*
G01*
X70710000Y-111830000D02*
G75*
G02X70710000Y-109590000I0J1120000D01*
G01*
X78330000Y-109290000D02*
X75790000Y-109290000D01*
X78330000Y-107050000D02*
X75790000Y-107050000D01*
X78330000Y-107050000D02*
G75*
G02X78330000Y-109290000I0J-1120000D01*
G01*
X75790000Y-109290000D02*
G75*
G02X75790000Y-107050000I0J1120000D01*
G01*
X108810000Y-109290000D02*
X106270000Y-109290000D01*
X108810000Y-107050000D02*
X106270000Y-107050000D01*
X108810000Y-107050000D02*
G75*
G02X108810000Y-109290000I0J-1120000D01*
G01*
X106270000Y-109290000D02*
G75*
G02X106270000Y-107050000I0J1120000D01*
G01*
X103730000Y-111830000D02*
X101190000Y-111830000D01*
X103730000Y-109590000D02*
X101190000Y-109590000D01*
X103730000Y-109590000D02*
G75*
G02X103730000Y-111830000I0J-1120000D01*
G01*
X101190000Y-111830000D02*
G75*
G02X101190000Y-109590000I0J1120000D01*
G01*
X103730000Y-109290000D02*
X101190000Y-109290000D01*
X103730000Y-107050000D02*
X101190000Y-107050000D01*
X103730000Y-107050000D02*
G75*
G02X103730000Y-109290000I0J-1120000D01*
G01*
X101190000Y-109290000D02*
G75*
G02X101190000Y-107050000I0J1120000D01*
G01*
X108810000Y-111830000D02*
X106270000Y-111830000D01*
X108810000Y-109590000D02*
X106270000Y-109590000D01*
X108810000Y-109590000D02*
G75*
G02X108810000Y-111830000I0J-1120000D01*
G01*
X106270000Y-111830000D02*
G75*
G02X106270000Y-109590000I0J1120000D01*
G01*
X113890000Y-109290000D02*
X111350000Y-109290000D01*
X113890000Y-107050000D02*
X111350000Y-107050000D01*
X113890000Y-107050000D02*
G75*
G02X113890000Y-109290000I0J-1120000D01*
G01*
X111350000Y-109290000D02*
G75*
G02X111350000Y-107050000I0J1120000D01*
G01*
X113890000Y-111830000D02*
X111350000Y-111830000D01*
X113890000Y-109590000D02*
X111350000Y-109590000D01*
X113890000Y-109590000D02*
G75*
G02X113890000Y-111830000I0J-1120000D01*
G01*
X111350000Y-111830000D02*
G75*
G02X111350000Y-109590000I0J1120000D01*
G01*
X98650000Y-111830000D02*
X96110000Y-111830000D01*
X98650000Y-109590000D02*
X96110000Y-109590000D01*
X98650000Y-109590000D02*
G75*
G02X98650000Y-111830000I0J-1120000D01*
G01*
X96110000Y-111830000D02*
G75*
G02X96110000Y-109590000I0J1120000D01*
G01*
X98650000Y-109290000D02*
X96110000Y-109290000D01*
X98650000Y-107050000D02*
X96110000Y-107050000D01*
X98650000Y-107050000D02*
G75*
G02X98650000Y-109290000I0J-1120000D01*
G01*
X96110000Y-109290000D02*
G75*
G02X96110000Y-107050000I0J1120000D01*
G01*
X93570000Y-111830000D02*
X91030000Y-111830000D01*
X93570000Y-109590000D02*
X91030000Y-109590000D01*
X93570000Y-109590000D02*
G75*
G02X93570000Y-111830000I0J-1120000D01*
G01*
X91030000Y-111830000D02*
G75*
G02X91030000Y-109590000I0J1120000D01*
G01*
X88490000Y-109290000D02*
X85950000Y-109290000D01*
X88490000Y-107050000D02*
X85950000Y-107050000D01*
X88490000Y-107050000D02*
G75*
G02X88490000Y-109290000I0J-1120000D01*
G01*
X85950000Y-109290000D02*
G75*
G02X85950000Y-107050000I0J1120000D01*
G01*
X88490000Y-111830000D02*
X85950000Y-111830000D01*
X88490000Y-109590000D02*
X85950000Y-109590000D01*
X88490000Y-109590000D02*
G75*
G02X88490000Y-111830000I0J-1120000D01*
G01*
X85950000Y-111830000D02*
G75*
G02X85950000Y-109590000I0J1120000D01*
G01*
X93570000Y-109290000D02*
X91030000Y-109290000D01*
X93570000Y-107050000D02*
X91030000Y-107050000D01*
X93570000Y-107050000D02*
G75*
G02X93570000Y-109290000I0J-1120000D01*
G01*
X91030000Y-109290000D02*
G75*
G02X91030000Y-107050000I0J1120000D01*
G01*
X124050000Y-109290000D02*
X121510000Y-109290000D01*
X124050000Y-107050000D02*
X121510000Y-107050000D01*
X124050000Y-107050000D02*
G75*
G02X124050000Y-109290000I0J-1120000D01*
G01*
X121510000Y-109290000D02*
G75*
G02X121510000Y-107050000I0J1120000D01*
G01*
X118970000Y-111830000D02*
X116430000Y-111830000D01*
X118970000Y-109590000D02*
X116430000Y-109590000D01*
X118970000Y-109590000D02*
G75*
G02X118970000Y-111830000I0J-1120000D01*
G01*
X116430000Y-111830000D02*
G75*
G02X116430000Y-109590000I0J1120000D01*
G01*
X118970000Y-109290000D02*
X116430000Y-109290000D01*
X118970000Y-107050000D02*
X116430000Y-107050000D01*
X118970000Y-107050000D02*
G75*
G02X118970000Y-109290000I0J-1120000D01*
G01*
X116430000Y-109290000D02*
G75*
G02X116430000Y-107050000I0J1120000D01*
G01*
X124050000Y-111830000D02*
X121510000Y-111830000D01*
X124050000Y-109590000D02*
X121510000Y-109590000D01*
X124050000Y-109590000D02*
G75*
G02X124050000Y-111830000I0J-1120000D01*
G01*
X121510000Y-111830000D02*
G75*
G02X121510000Y-109590000I0J1120000D01*
G01*
X129130000Y-109290000D02*
X126590000Y-109290000D01*
X129130000Y-107050000D02*
X126590000Y-107050000D01*
X129130000Y-107050000D02*
G75*
G02X129130000Y-109290000I0J-1120000D01*
G01*
X126590000Y-109290000D02*
G75*
G02X126590000Y-107050000I0J1120000D01*
G01*
X129130000Y-111830000D02*
X126590000Y-111830000D01*
X129130000Y-109590000D02*
X126590000Y-109590000D01*
X129130000Y-109590000D02*
G75*
G02X129130000Y-111830000I0J-1120000D01*
G01*
X126590000Y-111830000D02*
G75*
G02X126590000Y-109590000I0J1120000D01*
G01*
X144370000Y-109290000D02*
X141830000Y-109290000D01*
X144370000Y-107050000D02*
X141830000Y-107050000D01*
X144370000Y-107050000D02*
G75*
G02X144370000Y-109290000I0J-1120000D01*
G01*
X141830000Y-109290000D02*
G75*
G02X141830000Y-107050000I0J1120000D01*
G01*
X139290000Y-111830000D02*
X136750000Y-111830000D01*
X139290000Y-109590000D02*
X136750000Y-109590000D01*
X139290000Y-109590000D02*
G75*
G02X139290000Y-111830000I0J-1120000D01*
G01*
X136750000Y-111830000D02*
G75*
G02X136750000Y-109590000I0J1120000D01*
G01*
X134210000Y-109290000D02*
X131670000Y-109290000D01*
X134210000Y-107050000D02*
X131670000Y-107050000D01*
X134210000Y-107050000D02*
G75*
G02X134210000Y-109290000I0J-1120000D01*
G01*
X131670000Y-109290000D02*
G75*
G02X131670000Y-107050000I0J1120000D01*
G01*
X134210000Y-111830000D02*
X131670000Y-111830000D01*
X134210000Y-109590000D02*
X131670000Y-109590000D01*
X134210000Y-109590000D02*
G75*
G02X134210000Y-111830000I0J-1120000D01*
G01*
X131670000Y-111830000D02*
G75*
G02X131670000Y-109590000I0J1120000D01*
G01*
X139290000Y-109290000D02*
X136750000Y-109290000D01*
X139290000Y-107050000D02*
X136750000Y-107050000D01*
X139290000Y-107050000D02*
G75*
G02X139290000Y-109290000I0J-1120000D01*
G01*
X136750000Y-109290000D02*
G75*
G02X136750000Y-107050000I0J1120000D01*
G01*
X140410000Y-103090000D02*
G75*
G03X138170000Y-103090000I-1120000J0D01*
G01*
X138170000Y-105630000D02*
G75*
G03X140410000Y-105630000I1120000J0D01*
G01*
X138170000Y-105630000D02*
X138170000Y-103090000D01*
X140410000Y-105630000D02*
X140410000Y-103090000D01*
X137870000Y-103090000D02*
G75*
G03X135630000Y-103090000I-1120000J0D01*
G01*
X135630000Y-105630000D02*
G75*
G03X137870000Y-105630000I1120000J0D01*
G01*
X135630000Y-105630000D02*
X135630000Y-103090000D01*
X137870000Y-105630000D02*
X137870000Y-103090000D01*
X135330000Y-103090000D02*
G75*
G03X133090000Y-103090000I-1120000J0D01*
G01*
X133090000Y-105630000D02*
G75*
G03X135330000Y-105630000I1120000J0D01*
G01*
X133090000Y-105630000D02*
X133090000Y-103090000D01*
X135330000Y-105630000D02*
X135330000Y-103090000D01*
X142950000Y-103090000D02*
G75*
G03X140710000Y-103090000I-1120000J0D01*
G01*
X140710000Y-105630000D02*
G75*
G03X142950000Y-105630000I1120000J0D01*
G01*
X140710000Y-105630000D02*
X140710000Y-103090000D01*
X142950000Y-105630000D02*
X142950000Y-103090000D01*
X145490000Y-103090000D02*
G75*
G03X143250000Y-103090000I-1120000J0D01*
G01*
X143250000Y-105630000D02*
G75*
G03X145490000Y-105630000I1120000J0D01*
G01*
X143250000Y-105630000D02*
X143250000Y-103090000D01*
X145490000Y-105630000D02*
X145490000Y-103090000D01*
X132790000Y-103090000D02*
G75*
G03X130550000Y-103090000I-1120000J0D01*
G01*
X130550000Y-105630000D02*
G75*
G03X132790000Y-105630000I1120000J0D01*
G01*
X130550000Y-105630000D02*
X130550000Y-103090000D01*
X132790000Y-105630000D02*
X132790000Y-103090000D01*
X130250000Y-103090000D02*
G75*
G03X128010000Y-103090000I-1120000J0D01*
G01*
X128010000Y-105630000D02*
G75*
G03X130250000Y-105630000I1120000J0D01*
G01*
X128010000Y-105630000D02*
X128010000Y-103090000D01*
X130250000Y-105630000D02*
X130250000Y-103090000D01*
X127710000Y-103090000D02*
G75*
G03X125470000Y-103090000I-1120000J0D01*
G01*
X125470000Y-105630000D02*
G75*
G03X127710000Y-105630000I1120000J0D01*
G01*
X125470000Y-105630000D02*
X125470000Y-103090000D01*
X127710000Y-105630000D02*
X127710000Y-103090000D01*
X122630000Y-103090000D02*
G75*
G03X120390000Y-103090000I-1120000J0D01*
G01*
X120390000Y-105630000D02*
G75*
G03X122630000Y-105630000I1120000J0D01*
G01*
X120390000Y-105630000D02*
X120390000Y-103090000D01*
X122630000Y-105630000D02*
X122630000Y-103090000D01*
X125170000Y-103090000D02*
G75*
G03X122930000Y-103090000I-1120000J0D01*
G01*
X122930000Y-105630000D02*
G75*
G03X125170000Y-105630000I1120000J0D01*
G01*
X122930000Y-105630000D02*
X122930000Y-103090000D01*
X125170000Y-105630000D02*
X125170000Y-103090000D01*
X94690000Y-103090000D02*
G75*
G03X92450000Y-103090000I-1120000J0D01*
G01*
X92450000Y-105630000D02*
G75*
G03X94690000Y-105630000I1120000J0D01*
G01*
X92450000Y-105630000D02*
X92450000Y-103090000D01*
X94690000Y-105630000D02*
X94690000Y-103090000D01*
X92150000Y-103090000D02*
G75*
G03X89910000Y-103090000I-1120000J0D01*
G01*
X89910000Y-105630000D02*
G75*
G03X92150000Y-105630000I1120000J0D01*
G01*
X89910000Y-105630000D02*
X89910000Y-103090000D01*
X92150000Y-105630000D02*
X92150000Y-103090000D01*
X89610000Y-103090000D02*
G75*
G03X87370000Y-103090000I-1120000J0D01*
G01*
X87370000Y-105630000D02*
G75*
G03X89610000Y-105630000I1120000J0D01*
G01*
X87370000Y-105630000D02*
X87370000Y-103090000D01*
X89610000Y-105630000D02*
X89610000Y-103090000D01*
X97230000Y-103090000D02*
G75*
G03X94990000Y-103090000I-1120000J0D01*
G01*
X94990000Y-105630000D02*
G75*
G03X97230000Y-105630000I1120000J0D01*
G01*
X94990000Y-105630000D02*
X94990000Y-103090000D01*
X97230000Y-105630000D02*
X97230000Y-103090000D01*
X99770000Y-103090000D02*
G75*
G03X97530000Y-103090000I-1120000J0D01*
G01*
X97530000Y-105630000D02*
G75*
G03X99770000Y-105630000I1120000J0D01*
G01*
X97530000Y-105630000D02*
X97530000Y-103090000D01*
X99770000Y-105630000D02*
X99770000Y-103090000D01*
X102310000Y-103090000D02*
G75*
G03X100070000Y-103090000I-1120000J0D01*
G01*
X100070000Y-105630000D02*
G75*
G03X102310000Y-105630000I1120000J0D01*
G01*
X100070000Y-105630000D02*
X100070000Y-103090000D01*
X102310000Y-105630000D02*
X102310000Y-103090000D01*
X117550000Y-103090000D02*
G75*
G03X115310000Y-103090000I-1120000J0D01*
G01*
X115310000Y-105630000D02*
G75*
G03X117550000Y-105630000I1120000J0D01*
G01*
X115310000Y-105630000D02*
X115310000Y-103090000D01*
X117550000Y-105630000D02*
X117550000Y-103090000D01*
X115010000Y-103090000D02*
G75*
G03X112770000Y-103090000I-1120000J0D01*
G01*
X112770000Y-105630000D02*
G75*
G03X115010000Y-105630000I1120000J0D01*
G01*
X112770000Y-105630000D02*
X112770000Y-103090000D01*
X115010000Y-105630000D02*
X115010000Y-103090000D01*
X112470000Y-103090000D02*
G75*
G03X110230000Y-103090000I-1120000J0D01*
G01*
X110230000Y-105630000D02*
G75*
G03X112470000Y-105630000I1120000J0D01*
G01*
X110230000Y-105630000D02*
X110230000Y-103090000D01*
X112470000Y-105630000D02*
X112470000Y-103090000D01*
X104850000Y-103090000D02*
G75*
G03X102610000Y-103090000I-1120000J0D01*
G01*
X102610000Y-105630000D02*
G75*
G03X104850000Y-105630000I1120000J0D01*
G01*
X102610000Y-105630000D02*
X102610000Y-103090000D01*
X104850000Y-105630000D02*
X104850000Y-103090000D01*
X107390000Y-103090000D02*
G75*
G03X105150000Y-103090000I-1120000J0D01*
G01*
X105150000Y-105630000D02*
G75*
G03X107390000Y-105630000I1120000J0D01*
G01*
X105150000Y-105630000D02*
X105150000Y-103090000D01*
X107390000Y-105630000D02*
X107390000Y-103090000D01*
X109930000Y-103090000D02*
G75*
G03X107690000Y-103090000I-1120000J0D01*
G01*
X107690000Y-105630000D02*
G75*
G03X109930000Y-105630000I1120000J0D01*
G01*
X107690000Y-105630000D02*
X107690000Y-103090000D01*
X109930000Y-105630000D02*
X109930000Y-103090000D01*
X79450000Y-103090000D02*
G75*
G03X77210000Y-103090000I-1120000J0D01*
G01*
X77210000Y-105630000D02*
G75*
G03X79450000Y-105630000I1120000J0D01*
G01*
X77210000Y-105630000D02*
X77210000Y-103090000D01*
X79450000Y-105630000D02*
X79450000Y-103090000D01*
X76910000Y-103090000D02*
G75*
G03X74670000Y-103090000I-1120000J0D01*
G01*
X74670000Y-105630000D02*
G75*
G03X76910000Y-105630000I1120000J0D01*
G01*
X74670000Y-105630000D02*
X74670000Y-103090000D01*
X76910000Y-105630000D02*
X76910000Y-103090000D01*
X74370000Y-103090000D02*
G75*
G03X72130000Y-103090000I-1120000J0D01*
G01*
X72130000Y-105630000D02*
G75*
G03X74370000Y-105630000I1120000J0D01*
G01*
X72130000Y-105630000D02*
X72130000Y-103090000D01*
X74370000Y-105630000D02*
X74370000Y-103090000D01*
X81990000Y-103090000D02*
G75*
G03X79750000Y-103090000I-1120000J0D01*
G01*
X79750000Y-105630000D02*
G75*
G03X81990000Y-105630000I1120000J0D01*
G01*
X79750000Y-105630000D02*
X79750000Y-103090000D01*
X81990000Y-105630000D02*
X81990000Y-103090000D01*
X84530000Y-103090000D02*
G75*
G03X82290000Y-103090000I-1120000J0D01*
G01*
X82290000Y-105630000D02*
G75*
G03X84530000Y-105630000I1120000J0D01*
G01*
X82290000Y-105630000D02*
X82290000Y-103090000D01*
X84530000Y-105630000D02*
X84530000Y-103090000D01*
X87070000Y-103090000D02*
G75*
G03X84830000Y-103090000I-1120000J0D01*
G01*
X84830000Y-105630000D02*
G75*
G03X87070000Y-105630000I1120000J0D01*
G01*
X84830000Y-105630000D02*
X84830000Y-103090000D01*
X87070000Y-105630000D02*
X87070000Y-103090000D01*
X71830000Y-103090000D02*
G75*
G03X69590000Y-103090000I-1120000J0D01*
G01*
X69590000Y-105630000D02*
G75*
G03X71830000Y-105630000I1120000J0D01*
G01*
X69590000Y-105630000D02*
X69590000Y-103090000D01*
X71830000Y-105630000D02*
X71830000Y-103090000D01*
X69290000Y-103090000D02*
G75*
G03X67050000Y-103090000I-1120000J0D01*
G01*
X67050000Y-105630000D02*
G75*
G03X69290000Y-105630000I1120000J0D01*
G01*
X67050000Y-105630000D02*
X67050000Y-103090000D01*
X69290000Y-105630000D02*
X69290000Y-103090000D01*
X120090000Y-103090000D02*
G75*
G03X117850000Y-103090000I-1120000J0D01*
G01*
X117850000Y-105630000D02*
G75*
G03X120090000Y-105630000I1120000J0D01*
G01*
X117850000Y-105630000D02*
X117850000Y-103090000D01*
X120090000Y-105630000D02*
X120090000Y-103090000D01*
X105150000Y-100550000D02*
G75*
G03X107390000Y-100550000I1120000J0D01*
G01*
X105150000Y-99280000D02*
X105150000Y-100550000D01*
X107390000Y-99280000D02*
X107390000Y-100550000D01*
X107690000Y-100550000D02*
G75*
G03X109930000Y-100550000I1120000J0D01*
G01*
X107690000Y-99280000D02*
X107690000Y-100550000D01*
X109930000Y-99280000D02*
X109930000Y-100550000D01*
X110230000Y-100550000D02*
G75*
G03X112470000Y-100550000I1120000J0D01*
G01*
X110230000Y-99280000D02*
X110230000Y-100550000D01*
X112470000Y-99280000D02*
X112470000Y-100550000D01*
X112770000Y-100550000D02*
G75*
G03X115010000Y-100550000I1120000J0D01*
G01*
X112770000Y-99280000D02*
X112770000Y-100550000D01*
X115010000Y-99280000D02*
X115010000Y-100550000D01*
X115310000Y-100550000D02*
G75*
G03X117550000Y-100550000I1120000J0D01*
G01*
X115310000Y-99280000D02*
X115310000Y-100550000D01*
X117550000Y-99280000D02*
X117550000Y-100550000D01*
X117850000Y-100550000D02*
G75*
G03X120090000Y-100550000I1120000J0D01*
G01*
X117850000Y-99280000D02*
X117850000Y-100550000D01*
X120090000Y-99280000D02*
X120090000Y-100550000D01*
X120390000Y-100550000D02*
G75*
G03X122630000Y-100550000I1120000J0D01*
G01*
X120390000Y-99280000D02*
X120390000Y-100550000D01*
X122630000Y-99280000D02*
X122630000Y-100550000D01*
X122930000Y-100550000D02*
G75*
G03X125170000Y-100550000I1120000J0D01*
G01*
X122930000Y-99280000D02*
X122930000Y-100550000D01*
X125170000Y-99280000D02*
X125170000Y-100550000D01*
X143250000Y-100550000D02*
G75*
G03X145490000Y-100550000I1120000J0D01*
G01*
X143250000Y-99280000D02*
X143250000Y-100550000D01*
X145490000Y-99280000D02*
X145490000Y-100550000D01*
X140710000Y-100550000D02*
G75*
G03X142950000Y-100550000I1120000J0D01*
G01*
X140710000Y-99280000D02*
X140710000Y-100550000D01*
X142950000Y-99280000D02*
X142950000Y-100550000D01*
X138170000Y-100550000D02*
G75*
G03X140410000Y-100550000I1120000J0D01*
G01*
X138170000Y-99280000D02*
X138170000Y-100550000D01*
X140410000Y-99280000D02*
X140410000Y-100550000D01*
X135630000Y-100550000D02*
G75*
G03X137870000Y-100550000I1120000J0D01*
G01*
X135630000Y-99280000D02*
X135630000Y-100550000D01*
X137870000Y-99280000D02*
X137870000Y-100550000D01*
X133090000Y-100550000D02*
G75*
G03X135330000Y-100550000I1120000J0D01*
G01*
X133090000Y-99280000D02*
X133090000Y-100550000D01*
X135330000Y-99280000D02*
X135330000Y-100550000D01*
X130550000Y-100550000D02*
G75*
G03X132790000Y-100550000I1120000J0D01*
G01*
X130550000Y-99280000D02*
X130550000Y-100550000D01*
X132790000Y-99280000D02*
X132790000Y-100550000D01*
X128010000Y-100550000D02*
G75*
G03X130250000Y-100550000I1120000J0D01*
G01*
X128010000Y-99280000D02*
X128010000Y-100550000D01*
X130250000Y-99280000D02*
X130250000Y-100550000D01*
X125470000Y-100550000D02*
G75*
G03X127710000Y-100550000I1120000J0D01*
G01*
X125470000Y-99280000D02*
X125470000Y-100550000D01*
X127710000Y-99280000D02*
X127710000Y-100550000D01*
X82290000Y-100550000D02*
G75*
G03X84530000Y-100550000I1120000J0D01*
G01*
X82290000Y-99280000D02*
X82290000Y-100550000D01*
X84530000Y-99280000D02*
X84530000Y-100550000D01*
X79750000Y-100550000D02*
G75*
G03X81990000Y-100550000I1120000J0D01*
G01*
X79750000Y-99280000D02*
X79750000Y-100550000D01*
X81990000Y-99280000D02*
X81990000Y-100550000D01*
X77210000Y-100550000D02*
G75*
G03X79450000Y-100550000I1120000J0D01*
G01*
X77210000Y-99280000D02*
X77210000Y-100550000D01*
X79450000Y-99280000D02*
X79450000Y-100550000D01*
X74670000Y-100550000D02*
G75*
G03X76910000Y-100550000I1120000J0D01*
G01*
X74670000Y-99280000D02*
X74670000Y-100550000D01*
X76910000Y-99280000D02*
X76910000Y-100550000D01*
X72130000Y-100550000D02*
G75*
G03X74370000Y-100550000I1120000J0D01*
G01*
X72130000Y-99280000D02*
X72130000Y-100550000D01*
X74370000Y-99280000D02*
X74370000Y-100550000D01*
X69590000Y-100550000D02*
G75*
G03X71830000Y-100550000I1120000J0D01*
G01*
X69590000Y-99280000D02*
X69590000Y-100550000D01*
X71830000Y-99280000D02*
X71830000Y-100550000D01*
X67050000Y-100550000D02*
G75*
G03X69290000Y-100550000I1120000J0D01*
G01*
X67050000Y-99280000D02*
X67050000Y-100550000D01*
X69290000Y-99280000D02*
X69290000Y-100550000D01*
X64510000Y-100550000D02*
G75*
G03X66750000Y-100550000I1120000J0D01*
G01*
X64510000Y-99280000D02*
X64510000Y-100550000D01*
X66750000Y-99280000D02*
X66750000Y-100550000D01*
X84830000Y-100550000D02*
G75*
G03X87070000Y-100550000I1120000J0D01*
G01*
X84830000Y-99280000D02*
X84830000Y-100550000D01*
X87070000Y-99280000D02*
X87070000Y-100550000D01*
X87370000Y-100550000D02*
G75*
G03X89610000Y-100550000I1120000J0D01*
G01*
X87370000Y-99280000D02*
X87370000Y-100550000D01*
X89610000Y-99280000D02*
X89610000Y-100550000D01*
X89910000Y-100550000D02*
G75*
G03X92150000Y-100550000I1120000J0D01*
G01*
X89910000Y-99280000D02*
X89910000Y-100550000D01*
X92150000Y-99280000D02*
X92150000Y-100550000D01*
X92450000Y-100550000D02*
G75*
G03X94690000Y-100550000I1120000J0D01*
G01*
X92450000Y-99280000D02*
X92450000Y-100550000D01*
X94690000Y-99280000D02*
X94690000Y-100550000D01*
X94990000Y-100550000D02*
G75*
G03X97230000Y-100550000I1120000J0D01*
G01*
X94990000Y-99280000D02*
X94990000Y-100550000D01*
X97230000Y-99280000D02*
X97230000Y-100550000D01*
X97530000Y-100550000D02*
G75*
G03X99770000Y-100550000I1120000J0D01*
G01*
X97530000Y-99280000D02*
X97530000Y-100550000D01*
X99770000Y-99280000D02*
X99770000Y-100550000D01*
X100070000Y-100550000D02*
G75*
G03X102310000Y-100550000I1120000J0D01*
G01*
X100070000Y-99280000D02*
X100070000Y-100550000D01*
X102310000Y-99280000D02*
X102310000Y-100550000D01*
X102610000Y-100550000D02*
G75*
G03X104850000Y-100550000I1120000J0D01*
G01*
X102610000Y-99280000D02*
X102610000Y-100550000D01*
X104850000Y-99280000D02*
X104850000Y-100550000D01*
X63090000Y-170250000D02*
X58010000Y-170250000D01*
X63090000Y-168010000D02*
X58010000Y-168010000D01*
X63090000Y-168010000D02*
G75*
G02X63090000Y-170250000I0J-1120000D01*
G01*
X58010000Y-170250000D02*
G75*
G02X58010000Y-168010000I0J1120000D01*
G01*
X63090000Y-157550000D02*
X58010000Y-157550000D01*
X63090000Y-155310000D02*
X58010000Y-155310000D01*
X63090000Y-155310000D02*
G75*
G02X63090000Y-157550000I0J-1120000D01*
G01*
X58010000Y-157550000D02*
G75*
G02X58010000Y-155310000I0J1120000D01*
G01*
X63090000Y-119450000D02*
X58010000Y-119450000D01*
X63090000Y-117210000D02*
X58010000Y-117210000D01*
X63090000Y-117210000D02*
G75*
G02X63090000Y-119450000I0J-1120000D01*
G01*
X58010000Y-119450000D02*
G75*
G02X58010000Y-117210000I0J1120000D01*
G01*
X63090000Y-106750000D02*
X58010000Y-106750000D01*
X63090000Y-104510000D02*
X58010000Y-104510000D01*
X63090000Y-104510000D02*
G75*
G02X63090000Y-106750000I0J-1120000D01*
G01*
X58010000Y-106750000D02*
G75*
G02X58010000Y-104510000I0J1120000D01*
G01*
X63090000Y-144850000D02*
X58010000Y-144850000D01*
X63090000Y-142610000D02*
X58010000Y-142610000D01*
X63090000Y-142610000D02*
G75*
G02X63090000Y-144850000I0J-1120000D01*
G01*
X58010000Y-144850000D02*
G75*
G02X58010000Y-142610000I0J1120000D01*
G01*
X63090000Y-132150000D02*
X58010000Y-132150000D01*
X63090000Y-129910000D02*
X58010000Y-129910000D01*
X63090000Y-129910000D02*
G75*
G02X63090000Y-132150000I0J-1120000D01*
G01*
X58010000Y-132150000D02*
G75*
G02X58010000Y-129910000I0J1120000D01*
G01*
X151990000Y-106750000D02*
X146910000Y-106750000D01*
X151990000Y-104510000D02*
X146910000Y-104510000D01*
X151990000Y-104510000D02*
G75*
G02X151990000Y-106750000I0J-1120000D01*
G01*
X146910000Y-106750000D02*
G75*
G02X146910000Y-104510000I0J1120000D01*
G01*
X151990000Y-119450000D02*
X146910000Y-119450000D01*
X151990000Y-117210000D02*
X146910000Y-117210000D01*
X151990000Y-117210000D02*
G75*
G02X151990000Y-119450000I0J-1120000D01*
G01*
X146910000Y-119450000D02*
G75*
G02X146910000Y-117210000I0J1120000D01*
G01*
X151990000Y-170250000D02*
X146910000Y-170250000D01*
X151990000Y-168010000D02*
X146910000Y-168010000D01*
X151990000Y-168010000D02*
G75*
G02X151990000Y-170250000I0J-1120000D01*
G01*
X146910000Y-170250000D02*
G75*
G02X146910000Y-168010000I0J1120000D01*
G01*
X151990000Y-157550000D02*
X146910000Y-157550000D01*
X151990000Y-155310000D02*
X146910000Y-155310000D01*
X151990000Y-155310000D02*
G75*
G02X151990000Y-157550000I0J-1120000D01*
G01*
X146910000Y-157550000D02*
G75*
G02X146910000Y-155310000I0J1120000D01*
G01*
X151990000Y-132150000D02*
X146910000Y-132150000D01*
X151990000Y-129910000D02*
X146910000Y-129910000D01*
X151990000Y-129910000D02*
G75*
G02X151990000Y-132150000I0J-1120000D01*
G01*
X146910000Y-132150000D02*
G75*
G02X146910000Y-129910000I0J1120000D01*
G01*
X151990000Y-144850000D02*
X146910000Y-144850000D01*
X151990000Y-142610000D02*
X146910000Y-142610000D01*
X151990000Y-142610000D02*
G75*
G02X151990000Y-144850000I0J-1120000D01*
G01*
X146910000Y-144850000D02*
G75*
G02X146910000Y-142610000I0J1120000D01*
G01*
M02*
