G04 #@! TF.FileFunction,Copper,L2,Bot,Signal*
%FSLAX46Y46*%
G04 Gerber Fmt 4.6, Leading zero omitted, Abs format (unit mm)*
G04 Created by KiCad (PCBNEW 4.0.5) date 12/15/17 13:53:40*
%MOMM*%
%LPD*%
G01*
G04 APERTURE LIST*
%ADD10C,0.150000*%
%ADD11C,1.000000*%
%ADD12C,2.000000*%
%ADD13C,1.600000*%
%ADD14C,3.500120*%
%ADD15O,1.524000X2.199640*%
%ADD16C,1.800000*%
%ADD17C,0.300000*%
%ADD18C,0.600000*%
G04 APERTURE END LIST*
D10*
D11*
X144370000Y-110710000D02*
X141830000Y-110710000D01*
X68170000Y-108170000D02*
X65630000Y-108170000D01*
X73250000Y-108170000D02*
X70710000Y-108170000D01*
X83410000Y-110710000D02*
X80870000Y-110710000D01*
X83410000Y-108170000D02*
X80870000Y-108170000D01*
X78330000Y-110710000D02*
X75790000Y-110710000D01*
X68170000Y-110710000D02*
X65630000Y-110710000D01*
X73250000Y-110710000D02*
X70710000Y-110710000D01*
X78330000Y-108170000D02*
X75790000Y-108170000D01*
X108810000Y-108170000D02*
X106270000Y-108170000D01*
X103730000Y-110710000D02*
X101190000Y-110710000D01*
X103730000Y-108170000D02*
X101190000Y-108170000D01*
X108810000Y-110710000D02*
X106270000Y-110710000D01*
X113890000Y-108170000D02*
X111350000Y-108170000D01*
X113890000Y-110710000D02*
X111350000Y-110710000D01*
X98650000Y-110710000D02*
X96110000Y-110710000D01*
X98650000Y-108170000D02*
X96110000Y-108170000D01*
X93570000Y-110710000D02*
X91030000Y-110710000D01*
X88490000Y-108170000D02*
X85950000Y-108170000D01*
X88490000Y-110710000D02*
X85950000Y-110710000D01*
X93570000Y-108170000D02*
X91030000Y-108170000D01*
X124050000Y-108170000D02*
X121510000Y-108170000D01*
X118970000Y-110710000D02*
X116430000Y-110710000D01*
X118970000Y-108170000D02*
X116430000Y-108170000D01*
X124050000Y-110710000D02*
X121510000Y-110710000D01*
X129130000Y-108170000D02*
X126590000Y-108170000D01*
X129130000Y-110710000D02*
X126590000Y-110710000D01*
X144370000Y-108170000D02*
X141830000Y-108170000D01*
X139290000Y-110710000D02*
X136750000Y-110710000D01*
X134210000Y-108170000D02*
X131670000Y-108170000D01*
X134210000Y-110710000D02*
X131670000Y-110710000D01*
X139290000Y-108170000D02*
X136750000Y-108170000D01*
X63090000Y-169130000D02*
X60550000Y-169130000D01*
X60550000Y-169130000D02*
X58010000Y-169130000D01*
X63090000Y-156430000D02*
X60550000Y-156430000D01*
X60550000Y-156430000D02*
X58010000Y-156430000D01*
X63090000Y-118330000D02*
X60550000Y-118330000D01*
X60550000Y-118330000D02*
X58010000Y-118330000D01*
X63090000Y-105630000D02*
X60550000Y-105630000D01*
X60550000Y-105630000D02*
X58010000Y-105630000D01*
X63090000Y-143730000D02*
X60550000Y-143730000D01*
X60550000Y-143730000D02*
X58010000Y-143730000D01*
X63090000Y-131030000D02*
X60550000Y-131030000D01*
X60550000Y-131030000D02*
X58010000Y-131030000D01*
X151990000Y-105630000D02*
X149450000Y-105630000D01*
X149450000Y-105630000D02*
X146910000Y-105630000D01*
X151990000Y-118330000D02*
X149450000Y-118330000D01*
X149450000Y-118330000D02*
X146910000Y-118330000D01*
X151990000Y-169130000D02*
X149450000Y-169130000D01*
X149450000Y-169130000D02*
X146910000Y-169130000D01*
X151990000Y-156430000D02*
X149450000Y-156430000D01*
X149450000Y-156430000D02*
X146910000Y-156430000D01*
X151990000Y-131030000D02*
X149450000Y-131030000D01*
X149450000Y-131030000D02*
X146910000Y-131030000D01*
X151990000Y-143730000D02*
X149450000Y-143730000D01*
X149450000Y-143730000D02*
X146910000Y-143730000D01*
D12*
X86510000Y-129470000D03*
X93010000Y-124970000D03*
X86510000Y-124970000D03*
X93010000Y-129470000D03*
D13*
X89760000Y-124680000D03*
X89760000Y-129760000D03*
D12*
X66190000Y-139630000D03*
X72690000Y-135130000D03*
X66190000Y-135130000D03*
X72690000Y-139630000D03*
D13*
X69440000Y-134840000D03*
X69440000Y-139920000D03*
D12*
X66190000Y-129470000D03*
X72690000Y-124970000D03*
X66190000Y-124970000D03*
X72690000Y-129470000D03*
D13*
X69440000Y-124680000D03*
X69440000Y-129760000D03*
D12*
X106830000Y-119310000D03*
X113330000Y-114810000D03*
X106830000Y-114810000D03*
X113330000Y-119310000D03*
D13*
X110080000Y-114520000D03*
X110080000Y-119600000D03*
D14*
X60000000Y-100000000D03*
X60000000Y-100000000D03*
X150000000Y-100000000D03*
X150000000Y-100000000D03*
X150000000Y-190000000D03*
X150000000Y-190000000D03*
X60000000Y-190000000D03*
X60000000Y-190000000D03*
D15*
X85950000Y-98010000D03*
X88490000Y-98010000D03*
X91030000Y-98010000D03*
X93570000Y-98010000D03*
X96110000Y-98010000D03*
X98650000Y-98010000D03*
X101190000Y-98010000D03*
X103730000Y-98010000D03*
X106270000Y-98010000D03*
X108810000Y-98010000D03*
X111350000Y-98010000D03*
X113890000Y-98010000D03*
X116430000Y-98010000D03*
X118970000Y-98010000D03*
X121510000Y-98010000D03*
X124050000Y-98010000D03*
X65630000Y-98010000D03*
X68170000Y-98010000D03*
X70710000Y-98010000D03*
X73250000Y-98010000D03*
X75790000Y-98010000D03*
X78330000Y-98010000D03*
X80870000Y-98010000D03*
X83410000Y-98010000D03*
X126590000Y-98010000D03*
X129130000Y-98010000D03*
X131670000Y-98010000D03*
X134210000Y-98010000D03*
X136750000Y-98010000D03*
X139290000Y-98010000D03*
X141830000Y-98010000D03*
X144370000Y-98010000D03*
D12*
X66190000Y-119310000D03*
X72690000Y-114810000D03*
X66190000Y-114810000D03*
X72690000Y-119310000D03*
D13*
X69440000Y-114520000D03*
X69440000Y-119600000D03*
D12*
X76350000Y-119310000D03*
X82850000Y-114810000D03*
X76350000Y-114810000D03*
X82850000Y-119310000D03*
D13*
X79600000Y-114520000D03*
X79600000Y-119600000D03*
D12*
X86510000Y-119310000D03*
X93010000Y-114810000D03*
X86510000Y-114810000D03*
X93010000Y-119310000D03*
D13*
X89760000Y-114520000D03*
X89760000Y-119600000D03*
D12*
X96670000Y-119310000D03*
X103170000Y-114810000D03*
X96670000Y-114810000D03*
X103170000Y-119310000D03*
D13*
X99920000Y-114520000D03*
X99920000Y-119600000D03*
D12*
X116990000Y-119310000D03*
X123490000Y-114810000D03*
X116990000Y-114810000D03*
X123490000Y-119310000D03*
D13*
X120240000Y-114520000D03*
X120240000Y-119600000D03*
D12*
X127150000Y-119310000D03*
X133650000Y-114810000D03*
X127150000Y-114810000D03*
X133650000Y-119310000D03*
D13*
X130400000Y-114520000D03*
X130400000Y-119600000D03*
D12*
X137310000Y-119310000D03*
X143810000Y-114810000D03*
X137310000Y-114810000D03*
X143810000Y-119310000D03*
D13*
X140560000Y-114520000D03*
X140560000Y-119600000D03*
D12*
X76350000Y-129470000D03*
X82850000Y-124970000D03*
X76350000Y-124970000D03*
X82850000Y-129470000D03*
D13*
X79600000Y-124680000D03*
X79600000Y-129760000D03*
D12*
X96670000Y-129470000D03*
X103170000Y-124970000D03*
X96670000Y-124970000D03*
X103170000Y-129470000D03*
D13*
X99920000Y-124680000D03*
X99920000Y-129760000D03*
D12*
X116990000Y-129470000D03*
X123490000Y-124970000D03*
X116990000Y-124970000D03*
X123490000Y-129470000D03*
D13*
X120240000Y-124680000D03*
X120240000Y-129760000D03*
D12*
X127150000Y-129470000D03*
X133650000Y-124970000D03*
X127150000Y-124970000D03*
X133650000Y-129470000D03*
D13*
X130400000Y-124680000D03*
X130400000Y-129760000D03*
D12*
X137310000Y-129470000D03*
X143810000Y-124970000D03*
X137310000Y-124970000D03*
X143810000Y-129470000D03*
D13*
X140560000Y-124680000D03*
X140560000Y-129760000D03*
D12*
X76350000Y-139630000D03*
X82850000Y-135130000D03*
X76350000Y-135130000D03*
X82850000Y-139630000D03*
D13*
X79600000Y-134840000D03*
X79600000Y-139920000D03*
D12*
X86510000Y-139630000D03*
X93010000Y-135130000D03*
X86510000Y-135130000D03*
X93010000Y-139630000D03*
D13*
X89760000Y-134840000D03*
X89760000Y-139920000D03*
D12*
X106830000Y-139630000D03*
X113330000Y-135130000D03*
X106830000Y-135130000D03*
X113330000Y-139630000D03*
D13*
X110080000Y-134840000D03*
X110080000Y-139920000D03*
D12*
X116990000Y-139630000D03*
X123490000Y-135130000D03*
X116990000Y-135130000D03*
X123490000Y-139630000D03*
D13*
X120240000Y-134840000D03*
X120240000Y-139920000D03*
D12*
X127150000Y-139630000D03*
X133650000Y-135130000D03*
X127150000Y-135130000D03*
X133650000Y-139630000D03*
D13*
X130400000Y-134840000D03*
X130400000Y-139920000D03*
D12*
X137310000Y-139630000D03*
X143810000Y-135130000D03*
X137310000Y-135130000D03*
X143810000Y-139630000D03*
D13*
X140560000Y-134840000D03*
X140560000Y-139920000D03*
D12*
X66190000Y-149790000D03*
X72690000Y-145290000D03*
X66190000Y-145290000D03*
X72690000Y-149790000D03*
D13*
X69440000Y-145000000D03*
X69440000Y-150080000D03*
D12*
X76350000Y-149790000D03*
X82850000Y-145290000D03*
X76350000Y-145290000D03*
X82850000Y-149790000D03*
D13*
X79600000Y-145000000D03*
X79600000Y-150080000D03*
D12*
X86510000Y-149790000D03*
X93010000Y-145290000D03*
X86510000Y-145290000D03*
X93010000Y-149790000D03*
D13*
X89760000Y-145000000D03*
X89760000Y-150080000D03*
D12*
X96670000Y-149790000D03*
X103170000Y-145290000D03*
X96670000Y-145290000D03*
X103170000Y-149790000D03*
D13*
X99920000Y-145000000D03*
X99920000Y-150080000D03*
D12*
X106830000Y-149790000D03*
X113330000Y-145290000D03*
X106830000Y-145290000D03*
X113330000Y-149790000D03*
D13*
X110080000Y-145000000D03*
X110080000Y-150080000D03*
D12*
X116990000Y-149790000D03*
X123490000Y-145290000D03*
X116990000Y-145290000D03*
X123490000Y-149790000D03*
D13*
X120240000Y-145000000D03*
X120240000Y-150080000D03*
D12*
X127150000Y-149790000D03*
X133650000Y-145290000D03*
X127150000Y-145290000D03*
X133650000Y-149790000D03*
D13*
X130400000Y-145000000D03*
X130400000Y-150080000D03*
D12*
X137310000Y-149790000D03*
X143810000Y-145290000D03*
X137310000Y-145290000D03*
X143810000Y-149790000D03*
D13*
X140560000Y-145000000D03*
X140560000Y-150080000D03*
D12*
X66190000Y-159950000D03*
X72690000Y-155450000D03*
X66190000Y-155450000D03*
X72690000Y-159950000D03*
D13*
X69440000Y-155160000D03*
X69440000Y-160240000D03*
D12*
X76350000Y-159950000D03*
X82850000Y-155450000D03*
X76350000Y-155450000D03*
X82850000Y-159950000D03*
D13*
X79600000Y-155160000D03*
X79600000Y-160240000D03*
D12*
X86510000Y-159950000D03*
X93010000Y-155450000D03*
X86510000Y-155450000D03*
X93010000Y-159950000D03*
D13*
X89760000Y-155160000D03*
X89760000Y-160240000D03*
D12*
X96670000Y-159950000D03*
X103170000Y-155450000D03*
X96670000Y-155450000D03*
X103170000Y-159950000D03*
D13*
X99920000Y-155160000D03*
X99920000Y-160240000D03*
D12*
X106830000Y-159950000D03*
X113330000Y-155450000D03*
X106830000Y-155450000D03*
X113330000Y-159950000D03*
D13*
X110080000Y-155160000D03*
X110080000Y-160240000D03*
D12*
X116990000Y-159950000D03*
X123490000Y-155450000D03*
X116990000Y-155450000D03*
X123490000Y-159950000D03*
D13*
X120240000Y-155160000D03*
X120240000Y-160240000D03*
D12*
X127150000Y-159950000D03*
X133650000Y-155450000D03*
X127150000Y-155450000D03*
X133650000Y-159950000D03*
D13*
X130400000Y-155160000D03*
X130400000Y-160240000D03*
D12*
X137310000Y-159950000D03*
X143810000Y-155450000D03*
X137310000Y-155450000D03*
X143810000Y-159950000D03*
D13*
X140560000Y-155160000D03*
X140560000Y-160240000D03*
D12*
X66190000Y-170110000D03*
X72690000Y-165610000D03*
X66190000Y-165610000D03*
X72690000Y-170110000D03*
D13*
X69440000Y-165320000D03*
X69440000Y-170400000D03*
D12*
X76350000Y-170110000D03*
X82850000Y-165610000D03*
X76350000Y-165610000D03*
X82850000Y-170110000D03*
D13*
X79600000Y-165320000D03*
X79600000Y-170400000D03*
D12*
X86510000Y-170110000D03*
X93010000Y-165610000D03*
X86510000Y-165610000D03*
X93010000Y-170110000D03*
D13*
X89760000Y-165320000D03*
X89760000Y-170400000D03*
D12*
X96670000Y-170110000D03*
X103170000Y-165610000D03*
X96670000Y-165610000D03*
X103170000Y-170110000D03*
D13*
X99920000Y-165320000D03*
X99920000Y-170400000D03*
D12*
X106830000Y-170110000D03*
X113330000Y-165610000D03*
X106830000Y-165610000D03*
X113330000Y-170110000D03*
D13*
X110080000Y-165320000D03*
X110080000Y-170400000D03*
D12*
X116990000Y-170110000D03*
X123490000Y-165610000D03*
X116990000Y-165610000D03*
X123490000Y-170110000D03*
D13*
X120240000Y-165320000D03*
X120240000Y-170400000D03*
D12*
X127150000Y-170110000D03*
X133650000Y-165610000D03*
X127150000Y-165610000D03*
X133650000Y-170110000D03*
D13*
X130400000Y-165320000D03*
X130400000Y-170400000D03*
D12*
X137310000Y-170110000D03*
X143810000Y-165610000D03*
X137310000Y-165610000D03*
X143810000Y-170110000D03*
D13*
X140560000Y-165320000D03*
X140560000Y-170400000D03*
D12*
X66190000Y-180270000D03*
X72690000Y-175770000D03*
X66190000Y-175770000D03*
X72690000Y-180270000D03*
D13*
X69440000Y-175480000D03*
X69440000Y-180560000D03*
D12*
X76350000Y-180270000D03*
X82850000Y-175770000D03*
X76350000Y-175770000D03*
X82850000Y-180270000D03*
D13*
X79600000Y-175480000D03*
X79600000Y-180560000D03*
D12*
X86510000Y-180270000D03*
X93010000Y-175770000D03*
X86510000Y-175770000D03*
X93010000Y-180270000D03*
D13*
X89760000Y-175480000D03*
X89760000Y-180560000D03*
D12*
X96670000Y-180270000D03*
X103170000Y-175770000D03*
X96670000Y-175770000D03*
X103170000Y-180270000D03*
D13*
X99920000Y-175480000D03*
X99920000Y-180560000D03*
D12*
X106830000Y-180270000D03*
X113330000Y-175770000D03*
X106830000Y-175770000D03*
X113330000Y-180270000D03*
D13*
X110080000Y-175480000D03*
X110080000Y-180560000D03*
D12*
X116990000Y-180270000D03*
X123490000Y-175770000D03*
X116990000Y-175770000D03*
X123490000Y-180270000D03*
D13*
X120240000Y-175480000D03*
X120240000Y-180560000D03*
D12*
X127150000Y-180270000D03*
X133650000Y-175770000D03*
X127150000Y-175770000D03*
X133650000Y-180270000D03*
D13*
X130400000Y-175480000D03*
X130400000Y-180560000D03*
D12*
X137310000Y-180270000D03*
X143810000Y-175770000D03*
X137310000Y-175770000D03*
X143810000Y-180270000D03*
D13*
X140560000Y-175480000D03*
X140560000Y-180560000D03*
D12*
X66190000Y-190430000D03*
X72690000Y-185930000D03*
X66190000Y-185930000D03*
X72690000Y-190430000D03*
D13*
X69440000Y-185640000D03*
X69440000Y-190720000D03*
D12*
X76350000Y-190430000D03*
X82850000Y-185930000D03*
X76350000Y-185930000D03*
X82850000Y-190430000D03*
D13*
X79600000Y-185640000D03*
X79600000Y-190720000D03*
D12*
X86510000Y-190430000D03*
X93010000Y-185930000D03*
X86510000Y-185930000D03*
X93010000Y-190430000D03*
D13*
X89760000Y-185640000D03*
X89760000Y-190720000D03*
D12*
X96670000Y-190430000D03*
X103170000Y-185930000D03*
X96670000Y-185930000D03*
X103170000Y-190430000D03*
D13*
X99920000Y-185640000D03*
X99920000Y-190720000D03*
D12*
X106830000Y-190430000D03*
X113330000Y-185930000D03*
X106830000Y-185930000D03*
X113330000Y-190430000D03*
D13*
X110080000Y-185640000D03*
X110080000Y-190720000D03*
D12*
X116990000Y-190430000D03*
X123490000Y-185930000D03*
X116990000Y-185930000D03*
X123490000Y-190430000D03*
D13*
X120240000Y-185640000D03*
X120240000Y-190720000D03*
D12*
X127150000Y-190430000D03*
X133650000Y-185930000D03*
X127150000Y-185930000D03*
X133650000Y-190430000D03*
D13*
X130400000Y-185640000D03*
X130400000Y-190720000D03*
D12*
X137310000Y-190430000D03*
X143810000Y-185930000D03*
X137310000Y-185930000D03*
X143810000Y-190430000D03*
D13*
X140560000Y-185640000D03*
X140560000Y-190720000D03*
D12*
X106830000Y-129470000D03*
X113330000Y-124970000D03*
X106830000Y-124970000D03*
X113330000Y-129470000D03*
D13*
X110080000Y-124680000D03*
X110080000Y-129760000D03*
D12*
X96670000Y-139630000D03*
X103170000Y-135130000D03*
X96670000Y-135130000D03*
X103170000Y-139630000D03*
D13*
X99920000Y-134840000D03*
X99920000Y-139920000D03*
D16*
X58010000Y-176750000D03*
X58010000Y-179290000D03*
X60550000Y-176750000D03*
X60550000Y-179290000D03*
X63090000Y-176750000D03*
X63090000Y-179290000D03*
X58010000Y-181830000D03*
X58010000Y-184370000D03*
X63090000Y-181830000D03*
X63090000Y-184370000D03*
X60550000Y-181830000D03*
X60550000Y-184370000D03*
X58010000Y-171670000D03*
X58010000Y-174210000D03*
X60550000Y-171670000D03*
X60550000Y-174210000D03*
X63090000Y-171670000D03*
X63090000Y-174210000D03*
X63090000Y-151350000D03*
X63090000Y-153890000D03*
X60550000Y-151350000D03*
X60550000Y-153890000D03*
X58010000Y-151350000D03*
X58010000Y-153890000D03*
X58010000Y-146270000D03*
X58010000Y-148810000D03*
X60550000Y-146270000D03*
X60550000Y-148810000D03*
X63090000Y-146270000D03*
X63090000Y-148810000D03*
X63090000Y-158970000D03*
X63090000Y-161510000D03*
X60550000Y-158970000D03*
X60550000Y-161510000D03*
X58010000Y-158970000D03*
X58010000Y-161510000D03*
X58010000Y-164050000D03*
X58010000Y-166590000D03*
X60550000Y-164050000D03*
X60550000Y-166590000D03*
X63090000Y-164050000D03*
X63090000Y-166590000D03*
X63090000Y-120870000D03*
X63090000Y-123410000D03*
X60550000Y-120870000D03*
X60550000Y-123410000D03*
X58010000Y-120870000D03*
X58010000Y-123410000D03*
X65630000Y-103090000D03*
X65630000Y-105630000D03*
X63090000Y-108170000D03*
X63090000Y-110710000D03*
X60550000Y-108170000D03*
X60550000Y-110710000D03*
X58010000Y-108170000D03*
X58010000Y-110710000D03*
X58010000Y-113250000D03*
X58010000Y-115790000D03*
X60550000Y-113250000D03*
X60550000Y-115790000D03*
X63090000Y-113250000D03*
X63090000Y-115790000D03*
X63090000Y-133570000D03*
X63090000Y-136110000D03*
X60550000Y-133570000D03*
X60550000Y-136110000D03*
X58010000Y-133570000D03*
X58010000Y-136110000D03*
X58010000Y-125950000D03*
X58010000Y-128490000D03*
X60550000Y-125950000D03*
X60550000Y-128490000D03*
X63090000Y-125950000D03*
X63090000Y-128490000D03*
X63090000Y-138650000D03*
X63090000Y-141190000D03*
X60550000Y-138650000D03*
X60550000Y-141190000D03*
X58010000Y-138650000D03*
X58010000Y-141190000D03*
X151990000Y-146270000D03*
X151990000Y-148810000D03*
X149450000Y-146270000D03*
X149450000Y-148810000D03*
X146910000Y-146270000D03*
X146910000Y-148810000D03*
X146910000Y-138650000D03*
X146910000Y-141190000D03*
X149450000Y-138650000D03*
X149450000Y-141190000D03*
X151990000Y-138650000D03*
X151990000Y-141190000D03*
X146910000Y-133570000D03*
X146910000Y-136110000D03*
X149450000Y-133570000D03*
X149450000Y-136110000D03*
X151990000Y-133570000D03*
X151990000Y-136110000D03*
X151990000Y-113250000D03*
X151990000Y-115790000D03*
X149450000Y-113250000D03*
X149450000Y-115790000D03*
X146910000Y-113250000D03*
X146910000Y-115790000D03*
X146910000Y-108170000D03*
X146910000Y-110710000D03*
X149450000Y-108170000D03*
X149450000Y-110710000D03*
X151990000Y-108170000D03*
X151990000Y-110710000D03*
X151990000Y-120870000D03*
X151990000Y-123410000D03*
X149450000Y-120870000D03*
X149450000Y-123410000D03*
X146910000Y-120870000D03*
X146910000Y-123410000D03*
X146910000Y-125950000D03*
X146910000Y-128490000D03*
X149450000Y-125950000D03*
X149450000Y-128490000D03*
X151990000Y-125950000D03*
X151990000Y-128490000D03*
X151990000Y-164050000D03*
X151990000Y-166590000D03*
X149450000Y-164050000D03*
X149450000Y-166590000D03*
X146910000Y-164050000D03*
X146910000Y-166590000D03*
X146910000Y-158970000D03*
X146910000Y-161510000D03*
X149450000Y-158970000D03*
X149450000Y-161510000D03*
X151990000Y-158970000D03*
X151990000Y-161510000D03*
X151990000Y-151350000D03*
X151990000Y-153890000D03*
X149450000Y-151350000D03*
X149450000Y-153890000D03*
X146910000Y-151350000D03*
X146910000Y-153890000D03*
X151990000Y-176750000D03*
X151990000Y-179290000D03*
X149450000Y-176750000D03*
X149450000Y-179290000D03*
X146910000Y-176750000D03*
X146910000Y-179290000D03*
X146910000Y-171670000D03*
X146910000Y-174210000D03*
X149450000Y-171670000D03*
X149450000Y-174210000D03*
X151990000Y-171670000D03*
X151990000Y-174210000D03*
X151990000Y-181830000D03*
X151990000Y-184370000D03*
X149450000Y-181830000D03*
X149450000Y-184370000D03*
X146910000Y-181830000D03*
X146910000Y-184370000D03*
X141830000Y-110710000D03*
X144370000Y-110710000D03*
X65630000Y-108170000D03*
X68170000Y-108170000D03*
X70710000Y-108170000D03*
X73250000Y-108170000D03*
X80870000Y-110710000D03*
X83410000Y-110710000D03*
X80870000Y-108170000D03*
X83410000Y-108170000D03*
X75790000Y-110710000D03*
X78330000Y-110710000D03*
X65630000Y-110710000D03*
X68170000Y-110710000D03*
X70710000Y-110710000D03*
X73250000Y-110710000D03*
X75790000Y-108170000D03*
X78330000Y-108170000D03*
X106270000Y-108170000D03*
X108810000Y-108170000D03*
X101190000Y-110710000D03*
X103730000Y-110710000D03*
X101190000Y-108170000D03*
X103730000Y-108170000D03*
X106270000Y-110710000D03*
X108810000Y-110710000D03*
X111350000Y-108170000D03*
X113890000Y-108170000D03*
X111350000Y-110710000D03*
X113890000Y-110710000D03*
X96110000Y-110710000D03*
X98650000Y-110710000D03*
X96110000Y-108170000D03*
X98650000Y-108170000D03*
X91030000Y-110710000D03*
X93570000Y-110710000D03*
X85950000Y-108170000D03*
X88490000Y-108170000D03*
X85950000Y-110710000D03*
X88490000Y-110710000D03*
X91030000Y-108170000D03*
X93570000Y-108170000D03*
X121510000Y-108170000D03*
X124050000Y-108170000D03*
X116430000Y-110710000D03*
X118970000Y-110710000D03*
X116430000Y-108170000D03*
X118970000Y-108170000D03*
X121510000Y-110710000D03*
X124050000Y-110710000D03*
X126590000Y-108170000D03*
X129130000Y-108170000D03*
X126590000Y-110710000D03*
X129130000Y-110710000D03*
X141830000Y-108170000D03*
X144370000Y-108170000D03*
X136750000Y-110710000D03*
X139290000Y-110710000D03*
X131670000Y-108170000D03*
X134210000Y-108170000D03*
X131670000Y-110710000D03*
X134210000Y-110710000D03*
X136750000Y-108170000D03*
X139290000Y-108170000D03*
X139290000Y-103090000D03*
X139290000Y-105630000D03*
X136750000Y-103090000D03*
X136750000Y-105630000D03*
X134210000Y-103090000D03*
X134210000Y-105630000D03*
X141830000Y-103090000D03*
X141830000Y-105630000D03*
X144370000Y-103090000D03*
X144370000Y-105630000D03*
X131670000Y-103090000D03*
X131670000Y-105630000D03*
X129130000Y-103090000D03*
X129130000Y-105630000D03*
X126590000Y-103090000D03*
X126590000Y-105630000D03*
X121510000Y-103090000D03*
X121510000Y-105630000D03*
X124050000Y-103090000D03*
X124050000Y-105630000D03*
X93570000Y-103090000D03*
X93570000Y-105630000D03*
X91030000Y-103090000D03*
X91030000Y-105630000D03*
X88490000Y-103090000D03*
X88490000Y-105630000D03*
X96110000Y-103090000D03*
X96110000Y-105630000D03*
X98650000Y-103090000D03*
X98650000Y-105630000D03*
X101190000Y-103090000D03*
X101190000Y-105630000D03*
X116430000Y-103090000D03*
X116430000Y-105630000D03*
X113890000Y-103090000D03*
X113890000Y-105630000D03*
X111350000Y-103090000D03*
X111350000Y-105630000D03*
X103730000Y-103090000D03*
X103730000Y-105630000D03*
X106270000Y-103090000D03*
X106270000Y-105630000D03*
X108810000Y-103090000D03*
X108810000Y-105630000D03*
X78330000Y-103090000D03*
X78330000Y-105630000D03*
X75790000Y-103090000D03*
X75790000Y-105630000D03*
X73250000Y-103090000D03*
X73250000Y-105630000D03*
X80870000Y-103090000D03*
X80870000Y-105630000D03*
X83410000Y-103090000D03*
X83410000Y-105630000D03*
X85950000Y-103090000D03*
X85950000Y-105630000D03*
X70710000Y-103090000D03*
X70710000Y-105630000D03*
X68170000Y-103090000D03*
X68170000Y-105630000D03*
X118970000Y-103090000D03*
X118970000Y-105630000D03*
X106270000Y-100550000D03*
X108810000Y-100550000D03*
X111350000Y-100550000D03*
X113890000Y-100550000D03*
X116430000Y-100550000D03*
X118970000Y-100550000D03*
X121510000Y-100550000D03*
X124050000Y-100550000D03*
X144370000Y-100550000D03*
X141830000Y-100550000D03*
X139290000Y-100550000D03*
X136750000Y-100550000D03*
X134210000Y-100550000D03*
X131670000Y-100550000D03*
X129130000Y-100550000D03*
X126590000Y-100550000D03*
X83410000Y-100550000D03*
X80870000Y-100550000D03*
X78330000Y-100550000D03*
X75790000Y-100550000D03*
X73250000Y-100550000D03*
X70710000Y-100550000D03*
X68170000Y-100550000D03*
X65630000Y-100550000D03*
X85950000Y-100550000D03*
X88490000Y-100550000D03*
X91030000Y-100550000D03*
X93570000Y-100550000D03*
X96110000Y-100550000D03*
X98650000Y-100550000D03*
X101190000Y-100550000D03*
X103730000Y-100550000D03*
X60550000Y-169130000D03*
X63090000Y-169130000D03*
X58010000Y-169130000D03*
X60550000Y-156430000D03*
X63090000Y-156430000D03*
X58010000Y-156430000D03*
X60550000Y-118330000D03*
X63090000Y-118330000D03*
X58010000Y-118330000D03*
X60550000Y-105630000D03*
X63090000Y-105630000D03*
X58010000Y-105630000D03*
X60550000Y-143730000D03*
X63090000Y-143730000D03*
X58010000Y-143730000D03*
X60550000Y-131030000D03*
X63090000Y-131030000D03*
X58010000Y-131030000D03*
X149450000Y-105630000D03*
X151990000Y-105630000D03*
X146910000Y-105630000D03*
X149450000Y-118330000D03*
X151990000Y-118330000D03*
X146910000Y-118330000D03*
X149450000Y-169130000D03*
X151990000Y-169130000D03*
X146910000Y-169130000D03*
X149450000Y-156430000D03*
X151990000Y-156430000D03*
X146910000Y-156430000D03*
X149450000Y-131030000D03*
X151990000Y-131030000D03*
X146910000Y-131030000D03*
X149450000Y-143730000D03*
X151990000Y-143730000D03*
X146910000Y-143730000D03*
D17*
X140560000Y-190720000D02*
X130400000Y-190720000D01*
X130400000Y-190720000D02*
X120240000Y-190720000D01*
X120240000Y-190720000D02*
X110080000Y-190720000D01*
X110080000Y-190720000D02*
X99920000Y-190720000D01*
X99920000Y-190720000D02*
X89760000Y-190720000D01*
X89760000Y-190720000D02*
X79600000Y-190720000D01*
X79600000Y-190720000D02*
X69440000Y-190720000D01*
D18*
X110080000Y-190720000D02*
X107120000Y-190720000D01*
X107120000Y-190720000D02*
X106830000Y-190430000D01*
X110080000Y-190720000D02*
X113040000Y-190720000D01*
X113040000Y-190720000D02*
X113330000Y-190430000D01*
X120240000Y-190720000D02*
X117280000Y-190720000D01*
X117280000Y-190720000D02*
X116990000Y-190430000D01*
X120240000Y-190720000D02*
X123200000Y-190720000D01*
X123200000Y-190720000D02*
X123490000Y-190430000D01*
X130400000Y-190720000D02*
X127440000Y-190720000D01*
X127440000Y-190720000D02*
X127150000Y-190430000D01*
X130400000Y-190720000D02*
X133360000Y-190720000D01*
X133360000Y-190720000D02*
X133650000Y-190430000D01*
X140560000Y-190720000D02*
X137600000Y-190720000D01*
X137600000Y-190720000D02*
X137310000Y-190430000D01*
X140560000Y-190720000D02*
X143520000Y-190720000D01*
X143520000Y-190720000D02*
X143810000Y-190430000D01*
X99920000Y-190720000D02*
X102880000Y-190720000D01*
X102880000Y-190720000D02*
X103170000Y-190430000D01*
X99920000Y-190720000D02*
X96960000Y-190720000D01*
X96960000Y-190720000D02*
X96670000Y-190430000D01*
X89760000Y-190720000D02*
X92720000Y-190720000D01*
X92720000Y-190720000D02*
X93010000Y-190430000D01*
X89760000Y-190720000D02*
X86800000Y-190720000D01*
X86800000Y-190720000D02*
X86510000Y-190430000D01*
X79600000Y-190720000D02*
X76640000Y-190720000D01*
X76640000Y-190720000D02*
X76350000Y-190430000D01*
X79600000Y-190720000D02*
X82560000Y-190720000D01*
X82560000Y-190720000D02*
X82850000Y-190430000D01*
X69440000Y-190720000D02*
X72400000Y-190720000D01*
X72400000Y-190720000D02*
X72690000Y-190430000D01*
X69440000Y-190720000D02*
X66480000Y-190720000D01*
X66480000Y-190720000D02*
X66190000Y-190430000D01*
X140560000Y-185640000D02*
X137600000Y-185640000D01*
X137600000Y-185640000D02*
X137310000Y-185930000D01*
X140560000Y-185640000D02*
X143520000Y-185640000D01*
X143520000Y-185640000D02*
X143810000Y-185930000D01*
X140560000Y-175480000D02*
X137600000Y-175480000D01*
X137600000Y-175480000D02*
X137310000Y-175770000D01*
X140560000Y-175480000D02*
X143520000Y-175480000D01*
X143520000Y-175480000D02*
X143810000Y-175770000D01*
X140560000Y-165320000D02*
X143520000Y-165320000D01*
X143520000Y-165320000D02*
X143810000Y-165610000D01*
X140560000Y-165320000D02*
X137600000Y-165320000D01*
X137600000Y-165320000D02*
X137310000Y-165610000D01*
X140560000Y-155160000D02*
X137600000Y-155160000D01*
X137600000Y-155160000D02*
X137310000Y-155450000D01*
X140560000Y-155160000D02*
X143520000Y-155160000D01*
X143520000Y-155160000D02*
X143810000Y-155450000D01*
X140560000Y-145000000D02*
X137600000Y-145000000D01*
X137600000Y-145000000D02*
X137310000Y-145290000D01*
X140560000Y-145000000D02*
X143520000Y-145000000D01*
X143520000Y-145000000D02*
X143810000Y-145290000D01*
X140560000Y-134840000D02*
X137600000Y-134840000D01*
X137600000Y-134840000D02*
X137310000Y-135130000D01*
X140560000Y-124680000D02*
X137600000Y-124680000D01*
X137600000Y-124680000D02*
X137310000Y-124970000D01*
X140560000Y-134840000D02*
X143520000Y-134840000D01*
X143520000Y-134840000D02*
X143810000Y-135130000D01*
X140560000Y-124680000D02*
X143520000Y-124680000D01*
X143520000Y-124680000D02*
X143810000Y-124970000D01*
X140560000Y-114520000D02*
X143520000Y-114520000D01*
X143520000Y-114520000D02*
X143810000Y-114810000D01*
X140560000Y-114520000D02*
X137600000Y-114520000D01*
X137600000Y-114520000D02*
X137310000Y-114810000D01*
X130400000Y-175480000D02*
X127440000Y-175480000D01*
X127440000Y-175480000D02*
X127150000Y-175770000D01*
X130400000Y-185640000D02*
X127440000Y-185640000D01*
X127440000Y-185640000D02*
X127150000Y-185930000D01*
X130400000Y-185640000D02*
X133360000Y-185640000D01*
X133360000Y-185640000D02*
X133650000Y-185930000D01*
X130400000Y-175480000D02*
X133360000Y-175480000D01*
X133360000Y-175480000D02*
X133650000Y-175770000D01*
X130400000Y-165320000D02*
X133360000Y-165320000D01*
X133360000Y-165320000D02*
X133650000Y-165610000D01*
X130400000Y-165320000D02*
X127440000Y-165320000D01*
X127440000Y-165320000D02*
X127150000Y-165610000D01*
X130400000Y-155160000D02*
X133360000Y-155160000D01*
X133360000Y-155160000D02*
X133650000Y-155450000D01*
X130400000Y-155160000D02*
X127440000Y-155160000D01*
X127440000Y-155160000D02*
X127150000Y-155450000D01*
X130400000Y-145000000D02*
X133360000Y-145000000D01*
X133360000Y-145000000D02*
X133650000Y-145290000D01*
X130400000Y-145000000D02*
X127440000Y-145000000D01*
X127440000Y-145000000D02*
X127150000Y-145290000D01*
X130400000Y-134840000D02*
X127440000Y-134840000D01*
X127440000Y-134840000D02*
X127150000Y-135130000D01*
X130400000Y-124680000D02*
X127440000Y-124680000D01*
X127440000Y-124680000D02*
X127150000Y-124970000D01*
X130400000Y-134840000D02*
X133360000Y-134840000D01*
X133360000Y-134840000D02*
X133650000Y-135130000D01*
X130400000Y-124680000D02*
X133360000Y-124680000D01*
X133360000Y-124680000D02*
X133650000Y-124970000D01*
X130400000Y-114520000D02*
X133360000Y-114520000D01*
X133360000Y-114520000D02*
X133650000Y-114810000D01*
X130400000Y-114520000D02*
X127440000Y-114520000D01*
X127440000Y-114520000D02*
X127150000Y-114810000D01*
X120240000Y-175480000D02*
X117280000Y-175480000D01*
X117280000Y-175480000D02*
X116990000Y-175770000D01*
X120240000Y-175480000D02*
X123200000Y-175480000D01*
X123200000Y-175480000D02*
X123490000Y-175770000D01*
X120240000Y-185640000D02*
X123200000Y-185640000D01*
X123200000Y-185640000D02*
X123490000Y-185930000D01*
X120240000Y-185640000D02*
X117280000Y-185640000D01*
X117280000Y-185640000D02*
X116990000Y-185930000D01*
X120240000Y-165320000D02*
X123200000Y-165320000D01*
X123200000Y-165320000D02*
X123490000Y-165610000D01*
X120240000Y-165320000D02*
X117280000Y-165320000D01*
X117280000Y-165320000D02*
X116990000Y-165610000D01*
X120240000Y-155160000D02*
X123200000Y-155160000D01*
X123200000Y-155160000D02*
X123490000Y-155450000D01*
X120240000Y-155160000D02*
X117280000Y-155160000D01*
X117280000Y-155160000D02*
X116990000Y-155450000D01*
X120240000Y-145000000D02*
X123200000Y-145000000D01*
X123200000Y-145000000D02*
X123490000Y-145290000D01*
X120240000Y-145000000D02*
X117280000Y-145000000D01*
X117280000Y-145000000D02*
X116990000Y-145290000D01*
X120240000Y-134840000D02*
X117280000Y-134840000D01*
X117280000Y-134840000D02*
X116990000Y-135130000D01*
X120240000Y-134840000D02*
X123200000Y-134840000D01*
X123200000Y-134840000D02*
X123490000Y-135130000D01*
X120240000Y-124680000D02*
X117280000Y-124680000D01*
X117280000Y-124680000D02*
X116990000Y-124970000D01*
X120240000Y-124680000D02*
X123200000Y-124680000D01*
X123200000Y-124680000D02*
X123490000Y-124970000D01*
X120240000Y-114520000D02*
X123200000Y-114520000D01*
X123200000Y-114520000D02*
X123490000Y-114810000D01*
X120240000Y-114520000D02*
X117280000Y-114520000D01*
X117280000Y-114520000D02*
X116990000Y-114810000D01*
X110080000Y-114520000D02*
X113040000Y-114520000D01*
X113040000Y-114520000D02*
X113330000Y-114810000D01*
X110080000Y-114520000D02*
X107120000Y-114520000D01*
X107120000Y-114520000D02*
X106830000Y-114810000D01*
X110080000Y-175480000D02*
X107120000Y-175480000D01*
X107120000Y-175480000D02*
X106830000Y-175770000D01*
X110080000Y-175480000D02*
X113040000Y-175480000D01*
X113040000Y-175480000D02*
X113330000Y-175770000D01*
X110080000Y-185640000D02*
X113040000Y-185640000D01*
X113040000Y-185640000D02*
X113330000Y-185930000D01*
X110080000Y-185640000D02*
X107120000Y-185640000D01*
X107120000Y-185640000D02*
X106830000Y-185930000D01*
X110080000Y-165320000D02*
X113040000Y-165320000D01*
X113040000Y-165320000D02*
X113330000Y-165610000D01*
X110080000Y-165320000D02*
X107120000Y-165320000D01*
X107120000Y-165320000D02*
X106830000Y-165610000D01*
X110080000Y-155160000D02*
X107120000Y-155160000D01*
X107120000Y-155160000D02*
X106830000Y-155450000D01*
X110080000Y-155160000D02*
X113040000Y-155160000D01*
X113040000Y-155160000D02*
X113330000Y-155450000D01*
X110080000Y-145000000D02*
X113040000Y-145000000D01*
X113040000Y-145000000D02*
X113330000Y-145290000D01*
X110080000Y-145000000D02*
X107120000Y-145000000D01*
X107120000Y-145000000D02*
X106830000Y-145290000D01*
X110080000Y-124680000D02*
X113040000Y-124680000D01*
X113040000Y-124680000D02*
X113330000Y-124970000D01*
X110080000Y-124680000D02*
X107120000Y-124680000D01*
X107120000Y-124680000D02*
X106830000Y-124970000D01*
X110080000Y-134840000D02*
X107120000Y-134840000D01*
X107120000Y-134840000D02*
X106830000Y-135130000D01*
X110080000Y-134840000D02*
X113040000Y-134840000D01*
X113040000Y-134840000D02*
X113330000Y-135130000D01*
D17*
X115160000Y-115155000D02*
X113890000Y-116425000D01*
X115160000Y-101820000D02*
X115160000Y-115155000D01*
X113890000Y-100550000D02*
X115160000Y-101820000D01*
X104785000Y-116425000D02*
X103170000Y-114810000D01*
X113890000Y-116425000D02*
X104785000Y-116425000D01*
D18*
X99920000Y-145000000D02*
X102880000Y-145000000D01*
X102880000Y-145000000D02*
X103170000Y-145290000D01*
X99920000Y-145000000D02*
X96960000Y-145000000D01*
X96960000Y-145000000D02*
X96670000Y-145290000D01*
X99920000Y-134840000D02*
X102880000Y-134840000D01*
X102880000Y-134840000D02*
X103170000Y-135130000D01*
X99920000Y-134840000D02*
X96960000Y-134840000D01*
X96960000Y-134840000D02*
X96670000Y-135130000D01*
X99920000Y-124680000D02*
X102880000Y-124680000D01*
X102880000Y-124680000D02*
X103170000Y-124970000D01*
X99920000Y-124680000D02*
X96960000Y-124680000D01*
X96960000Y-124680000D02*
X96670000Y-124970000D01*
X99920000Y-114520000D02*
X102880000Y-114520000D01*
X102880000Y-114520000D02*
X103170000Y-114810000D01*
X99920000Y-114520000D02*
X96960000Y-114520000D01*
X96960000Y-114520000D02*
X96670000Y-114810000D01*
X99920000Y-155160000D02*
X102880000Y-155160000D01*
X102880000Y-155160000D02*
X103170000Y-155450000D01*
X99920000Y-155160000D02*
X96960000Y-155160000D01*
X96960000Y-155160000D02*
X96670000Y-155450000D01*
X99920000Y-165320000D02*
X102880000Y-165320000D01*
X102880000Y-165320000D02*
X103170000Y-165610000D01*
X99920000Y-165320000D02*
X96960000Y-165320000D01*
X96960000Y-165320000D02*
X96670000Y-165610000D01*
X99920000Y-175480000D02*
X102880000Y-175480000D01*
X102880000Y-175480000D02*
X103170000Y-175770000D01*
X99920000Y-175480000D02*
X96960000Y-175480000D01*
X96960000Y-175480000D02*
X96670000Y-175770000D01*
X99920000Y-185640000D02*
X102880000Y-185640000D01*
X102880000Y-185640000D02*
X103170000Y-185930000D01*
X99920000Y-185640000D02*
X96960000Y-185640000D01*
X96960000Y-185640000D02*
X96670000Y-185930000D01*
X89760000Y-124680000D02*
X92720000Y-124680000D01*
X92720000Y-124680000D02*
X93010000Y-124970000D01*
X89760000Y-124680000D02*
X86800000Y-124680000D01*
X86800000Y-124680000D02*
X86510000Y-124970000D01*
D17*
X108810000Y-113250000D02*
X96110000Y-113250000D01*
X110080000Y-101820000D02*
X110080000Y-111980000D01*
X110080000Y-111980000D02*
X108810000Y-113250000D01*
X111350000Y-100550000D02*
X110080000Y-101820000D01*
X94550000Y-114810000D02*
X93010000Y-114810000D01*
X96110000Y-113250000D02*
X94550000Y-114810000D01*
D18*
X89760000Y-114520000D02*
X92720000Y-114520000D01*
X92720000Y-114520000D02*
X93010000Y-114810000D01*
X89760000Y-114520000D02*
X86800000Y-114520000D01*
X86800000Y-114520000D02*
X86510000Y-114810000D01*
X89760000Y-134840000D02*
X92720000Y-134840000D01*
X92720000Y-134840000D02*
X93010000Y-135130000D01*
X89760000Y-134840000D02*
X86800000Y-134840000D01*
X86800000Y-134840000D02*
X86510000Y-135130000D01*
X89760000Y-145000000D02*
X92720000Y-145000000D01*
X92720000Y-145000000D02*
X93010000Y-145290000D01*
X89760000Y-145000000D02*
X86800000Y-145000000D01*
X86800000Y-145000000D02*
X86510000Y-145290000D01*
X89760000Y-155160000D02*
X92720000Y-155160000D01*
X92720000Y-155160000D02*
X93010000Y-155450000D01*
X89760000Y-155160000D02*
X86800000Y-155160000D01*
X86800000Y-155160000D02*
X86510000Y-155450000D01*
X89760000Y-165320000D02*
X92720000Y-165320000D01*
X92720000Y-165320000D02*
X93010000Y-165610000D01*
X89760000Y-165320000D02*
X86800000Y-165320000D01*
X86800000Y-165320000D02*
X86510000Y-165610000D01*
X89760000Y-185640000D02*
X92720000Y-185640000D01*
X92720000Y-185640000D02*
X93010000Y-185930000D01*
X89760000Y-185640000D02*
X86800000Y-185640000D01*
X86800000Y-185640000D02*
X86510000Y-185930000D01*
X89760000Y-175480000D02*
X92720000Y-175480000D01*
X92720000Y-175480000D02*
X93010000Y-175770000D01*
X89760000Y-175480000D02*
X86800000Y-175480000D01*
X86800000Y-175480000D02*
X86510000Y-175770000D01*
D17*
X105000000Y-111345000D02*
X105000000Y-104995000D01*
X105000000Y-104995000D02*
X105635000Y-104360000D01*
X105635000Y-104360000D02*
X106905000Y-104360000D01*
X106905000Y-104360000D02*
X107540000Y-103725000D01*
X107540000Y-103725000D02*
X107540000Y-101820000D01*
X107540000Y-101820000D02*
X108810000Y-100550000D01*
X84410000Y-113250000D02*
X94840000Y-113250000D01*
X103730000Y-112615000D02*
X95475000Y-112615000D01*
X105000000Y-111345000D02*
X103730000Y-112615000D01*
X95475000Y-112615000D02*
X94840000Y-113250000D01*
X82850000Y-114810000D02*
X84410000Y-113250000D01*
D18*
X79600000Y-124680000D02*
X82560000Y-124680000D01*
X82560000Y-124680000D02*
X82850000Y-124970000D01*
X79600000Y-124680000D02*
X76640000Y-124680000D01*
X76640000Y-124680000D02*
X76350000Y-124970000D01*
X79600000Y-145000000D02*
X82560000Y-145000000D01*
X82560000Y-145000000D02*
X82850000Y-145290000D01*
X79600000Y-134840000D02*
X82560000Y-134840000D01*
X82560000Y-134840000D02*
X82850000Y-135130000D01*
X79600000Y-134840000D02*
X76640000Y-134840000D01*
X76640000Y-134840000D02*
X76350000Y-135130000D01*
X79600000Y-145000000D02*
X76640000Y-145000000D01*
X76640000Y-145000000D02*
X76350000Y-145290000D01*
X79600000Y-155160000D02*
X82560000Y-155160000D01*
X82560000Y-155160000D02*
X82850000Y-155450000D01*
X79600000Y-155160000D02*
X76640000Y-155160000D01*
X76640000Y-155160000D02*
X76350000Y-155450000D01*
X79600000Y-165320000D02*
X82560000Y-165320000D01*
X82560000Y-165320000D02*
X82850000Y-165610000D01*
X79600000Y-165320000D02*
X76640000Y-165320000D01*
X76640000Y-165320000D02*
X76350000Y-165610000D01*
X79600000Y-175480000D02*
X82560000Y-175480000D01*
X82560000Y-175480000D02*
X82850000Y-175770000D01*
X79600000Y-175480000D02*
X76640000Y-175480000D01*
X76640000Y-175480000D02*
X76350000Y-175770000D01*
X79600000Y-185640000D02*
X82560000Y-185640000D01*
X82560000Y-185640000D02*
X82850000Y-185930000D01*
X79600000Y-185640000D02*
X76640000Y-185640000D01*
X76640000Y-185640000D02*
X76350000Y-185930000D01*
X79600000Y-114520000D02*
X76640000Y-114520000D01*
X76640000Y-114520000D02*
X76350000Y-114810000D01*
X79600000Y-114520000D02*
X82560000Y-114520000D01*
X82560000Y-114520000D02*
X82850000Y-114810000D01*
X69440000Y-134840000D02*
X72400000Y-134840000D01*
X72400000Y-134840000D02*
X72690000Y-135130000D01*
X69440000Y-134840000D02*
X66480000Y-134840000D01*
X66480000Y-134840000D02*
X66190000Y-135130000D01*
X69440000Y-124680000D02*
X72400000Y-124680000D01*
X72400000Y-124680000D02*
X72690000Y-124970000D01*
X69440000Y-124680000D02*
X66480000Y-124680000D01*
X66480000Y-124680000D02*
X66190000Y-124970000D01*
D17*
X103095000Y-101820000D02*
X105000000Y-101820000D01*
X105000000Y-101820000D02*
X106270000Y-100550000D01*
X72690000Y-114810000D02*
X74250000Y-113250000D01*
X102460000Y-102455000D02*
X103095000Y-101820000D01*
X102460000Y-106265000D02*
X102460000Y-102455000D01*
X101825000Y-106900000D02*
X102460000Y-106265000D01*
X100555000Y-106900000D02*
X101825000Y-106900000D01*
X99920000Y-107535000D02*
X100555000Y-106900000D01*
X99920000Y-108805000D02*
X99920000Y-107535000D01*
X99285000Y-109440000D02*
X99920000Y-108805000D01*
X95475000Y-109440000D02*
X99285000Y-109440000D01*
X94840000Y-110075000D02*
X95475000Y-109440000D01*
X94840000Y-111980000D02*
X94840000Y-110075000D01*
X94205000Y-112615000D02*
X94840000Y-111980000D01*
X84045000Y-112615000D02*
X94205000Y-112615000D01*
X83410000Y-113250000D02*
X84045000Y-112615000D01*
X74250000Y-113250000D02*
X83410000Y-113250000D01*
D18*
X69440000Y-185640000D02*
X72400000Y-185640000D01*
X72400000Y-185640000D02*
X72690000Y-185930000D01*
X69440000Y-185640000D02*
X66480000Y-185640000D01*
X66480000Y-185640000D02*
X66190000Y-185930000D01*
X69440000Y-175480000D02*
X72400000Y-175480000D01*
X72400000Y-175480000D02*
X72690000Y-175770000D01*
X69440000Y-175480000D02*
X66480000Y-175480000D01*
X66480000Y-175480000D02*
X66190000Y-175770000D01*
X69440000Y-165320000D02*
X72400000Y-165320000D01*
X72400000Y-165320000D02*
X72690000Y-165610000D01*
X69440000Y-165320000D02*
X66480000Y-165320000D01*
X66480000Y-165320000D02*
X66190000Y-165610000D01*
X69440000Y-155160000D02*
X72400000Y-155160000D01*
X72400000Y-155160000D02*
X72690000Y-155450000D01*
X69440000Y-155160000D02*
X66480000Y-155160000D01*
X66480000Y-155160000D02*
X66190000Y-155450000D01*
X69440000Y-145000000D02*
X72400000Y-145000000D01*
X72400000Y-145000000D02*
X72690000Y-145290000D01*
X69440000Y-145000000D02*
X66480000Y-145000000D01*
X66480000Y-145000000D02*
X66190000Y-145290000D01*
X69440000Y-114520000D02*
X72400000Y-114520000D01*
X72400000Y-114520000D02*
X72690000Y-114810000D01*
X69440000Y-114520000D02*
X66480000Y-114520000D01*
X66480000Y-114520000D02*
X66190000Y-114810000D01*
D17*
X140560000Y-180560000D02*
X130400000Y-180560000D01*
X130400000Y-180560000D02*
X120240000Y-180560000D01*
X120240000Y-180560000D02*
X110080000Y-180560000D01*
X110080000Y-180560000D02*
X99920000Y-180560000D01*
X99920000Y-180560000D02*
X89760000Y-180560000D01*
X89760000Y-180560000D02*
X79600000Y-180560000D01*
X79600000Y-180560000D02*
X69440000Y-180560000D01*
D18*
X110080000Y-180560000D02*
X107120000Y-180560000D01*
X107120000Y-180560000D02*
X106830000Y-180270000D01*
X110080000Y-180560000D02*
X113040000Y-180560000D01*
X113040000Y-180560000D02*
X113330000Y-180270000D01*
X120240000Y-180560000D02*
X117280000Y-180560000D01*
X117280000Y-180560000D02*
X116990000Y-180270000D01*
X120240000Y-180560000D02*
X123200000Y-180560000D01*
X123200000Y-180560000D02*
X123490000Y-180270000D01*
X130400000Y-180560000D02*
X127440000Y-180560000D01*
X127440000Y-180560000D02*
X127150000Y-180270000D01*
X130400000Y-180560000D02*
X133360000Y-180560000D01*
X133360000Y-180560000D02*
X133650000Y-180270000D01*
X140560000Y-180560000D02*
X143520000Y-180560000D01*
X143520000Y-180560000D02*
X143810000Y-180270000D01*
X140560000Y-180560000D02*
X137600000Y-180560000D01*
X137600000Y-180560000D02*
X137310000Y-180270000D01*
X69440000Y-180560000D02*
X72400000Y-180560000D01*
X72400000Y-180560000D02*
X72690000Y-180270000D01*
X69440000Y-180560000D02*
X66480000Y-180560000D01*
X66480000Y-180560000D02*
X66190000Y-180270000D01*
X99920000Y-180560000D02*
X102880000Y-180560000D01*
X102880000Y-180560000D02*
X103170000Y-180270000D01*
X99920000Y-180560000D02*
X96960000Y-180560000D01*
X96960000Y-180560000D02*
X96670000Y-180270000D01*
X79600000Y-180560000D02*
X82560000Y-180560000D01*
X82560000Y-180560000D02*
X82850000Y-180270000D01*
X79600000Y-180560000D02*
X76640000Y-180560000D01*
X76640000Y-180560000D02*
X76350000Y-180270000D01*
X89760000Y-180560000D02*
X92720000Y-180560000D01*
X92720000Y-180560000D02*
X93010000Y-180270000D01*
X89760000Y-180560000D02*
X86800000Y-180560000D01*
X86800000Y-180560000D02*
X86510000Y-180270000D01*
D17*
X140560000Y-170400000D02*
X130400000Y-170400000D01*
X130400000Y-170400000D02*
X120240000Y-170400000D01*
X120240000Y-170400000D02*
X110080000Y-170400000D01*
X110080000Y-170400000D02*
X99920000Y-170400000D01*
X99920000Y-170400000D02*
X89760000Y-170400000D01*
X89760000Y-170400000D02*
X79600000Y-170400000D01*
X79600000Y-170400000D02*
X69440000Y-170400000D01*
D18*
X140560000Y-170400000D02*
X143520000Y-170400000D01*
X143520000Y-170400000D02*
X143810000Y-170110000D01*
X140560000Y-170400000D02*
X137600000Y-170400000D01*
X137600000Y-170400000D02*
X137310000Y-170110000D01*
X130400000Y-170400000D02*
X133360000Y-170400000D01*
X133360000Y-170400000D02*
X133650000Y-170110000D01*
X130400000Y-170400000D02*
X127440000Y-170400000D01*
X127440000Y-170400000D02*
X127150000Y-170110000D01*
X120240000Y-170400000D02*
X123200000Y-170400000D01*
X123200000Y-170400000D02*
X123490000Y-170110000D01*
X120240000Y-170400000D02*
X117280000Y-170400000D01*
X117280000Y-170400000D02*
X116990000Y-170110000D01*
X110080000Y-170400000D02*
X113040000Y-170400000D01*
X113040000Y-170400000D02*
X113330000Y-170110000D01*
X110080000Y-170400000D02*
X107120000Y-170400000D01*
X107120000Y-170400000D02*
X106830000Y-170110000D01*
X69440000Y-170400000D02*
X72400000Y-170400000D01*
X72400000Y-170400000D02*
X72690000Y-170110000D01*
X69440000Y-170400000D02*
X66480000Y-170400000D01*
X66480000Y-170400000D02*
X66190000Y-170110000D01*
X99920000Y-170400000D02*
X102880000Y-170400000D01*
X102880000Y-170400000D02*
X103170000Y-170110000D01*
X99920000Y-170400000D02*
X96960000Y-170400000D01*
X96960000Y-170400000D02*
X96670000Y-170110000D01*
X79600000Y-170400000D02*
X82560000Y-170400000D01*
X82560000Y-170400000D02*
X82850000Y-170110000D01*
X79600000Y-170400000D02*
X76640000Y-170400000D01*
X76640000Y-170400000D02*
X76350000Y-170110000D01*
X89760000Y-170400000D02*
X92720000Y-170400000D01*
X92720000Y-170400000D02*
X93010000Y-170110000D01*
X89760000Y-170400000D02*
X86800000Y-170400000D01*
X86800000Y-170400000D02*
X86510000Y-170110000D01*
D17*
X140560000Y-160240000D02*
X130400000Y-160240000D01*
X130400000Y-160240000D02*
X120240000Y-160240000D01*
X120240000Y-160240000D02*
X110080000Y-160240000D01*
X110080000Y-160240000D02*
X99920000Y-160240000D01*
X99920000Y-160240000D02*
X89760000Y-160240000D01*
X89760000Y-160240000D02*
X79600000Y-160240000D01*
X79600000Y-160240000D02*
X69440000Y-160240000D01*
D18*
X140560000Y-160240000D02*
X143520000Y-160240000D01*
X143520000Y-160240000D02*
X143810000Y-159950000D01*
X140560000Y-160240000D02*
X137600000Y-160240000D01*
X137600000Y-160240000D02*
X137310000Y-159950000D01*
X120240000Y-160240000D02*
X117280000Y-160240000D01*
X117280000Y-160240000D02*
X116990000Y-159950000D01*
X120240000Y-160240000D02*
X123200000Y-160240000D01*
X123200000Y-160240000D02*
X123490000Y-159950000D01*
X130400000Y-160240000D02*
X133360000Y-160240000D01*
X133360000Y-160240000D02*
X133650000Y-159950000D01*
X130400000Y-160240000D02*
X127440000Y-160240000D01*
X127440000Y-160240000D02*
X127150000Y-159950000D01*
X110080000Y-160240000D02*
X113040000Y-160240000D01*
X113040000Y-160240000D02*
X113330000Y-159950000D01*
X110080000Y-160240000D02*
X107120000Y-160240000D01*
X107120000Y-160240000D02*
X106830000Y-159950000D01*
X69440000Y-160240000D02*
X72400000Y-160240000D01*
X72400000Y-160240000D02*
X72690000Y-159950000D01*
X69440000Y-160240000D02*
X66480000Y-160240000D01*
X66480000Y-160240000D02*
X66190000Y-159950000D01*
X99920000Y-160240000D02*
X102880000Y-160240000D01*
X102880000Y-160240000D02*
X103170000Y-159950000D01*
X99920000Y-160240000D02*
X96960000Y-160240000D01*
X96960000Y-160240000D02*
X96670000Y-159950000D01*
X79600000Y-160240000D02*
X82560000Y-160240000D01*
X82560000Y-160240000D02*
X82850000Y-159950000D01*
X79600000Y-160240000D02*
X76640000Y-160240000D01*
X76640000Y-160240000D02*
X76350000Y-159950000D01*
X89760000Y-160240000D02*
X92720000Y-160240000D01*
X92720000Y-160240000D02*
X93010000Y-159950000D01*
X89760000Y-160240000D02*
X86800000Y-160240000D01*
X86800000Y-160240000D02*
X86510000Y-159950000D01*
D17*
X140560000Y-150080000D02*
X130400000Y-150080000D01*
X130400000Y-150080000D02*
X120240000Y-150080000D01*
X120240000Y-150080000D02*
X110080000Y-150080000D01*
X110080000Y-150080000D02*
X99920000Y-150080000D01*
X99920000Y-150080000D02*
X89760000Y-150080000D01*
X89760000Y-150080000D02*
X79600000Y-150080000D01*
X79600000Y-150080000D02*
X69440000Y-150080000D01*
D18*
X110080000Y-150080000D02*
X107120000Y-150080000D01*
X107120000Y-150080000D02*
X106830000Y-149790000D01*
X110080000Y-150080000D02*
X113040000Y-150080000D01*
X113040000Y-150080000D02*
X113330000Y-149790000D01*
X120240000Y-150080000D02*
X117280000Y-150080000D01*
X117280000Y-150080000D02*
X116990000Y-149790000D01*
X120240000Y-150080000D02*
X123200000Y-150080000D01*
X123200000Y-150080000D02*
X123490000Y-149790000D01*
X130400000Y-150080000D02*
X127440000Y-150080000D01*
X127440000Y-150080000D02*
X127150000Y-149790000D01*
X130400000Y-150080000D02*
X133360000Y-150080000D01*
X133360000Y-150080000D02*
X133650000Y-149790000D01*
X140560000Y-150080000D02*
X137600000Y-150080000D01*
X137600000Y-150080000D02*
X137310000Y-149790000D01*
X140560000Y-150080000D02*
X143520000Y-150080000D01*
X143520000Y-150080000D02*
X143810000Y-149790000D01*
X99920000Y-150080000D02*
X102880000Y-150080000D01*
X102880000Y-150080000D02*
X103170000Y-149790000D01*
X99920000Y-150080000D02*
X96960000Y-150080000D01*
X96960000Y-150080000D02*
X96670000Y-149790000D01*
X79600000Y-150080000D02*
X82560000Y-150080000D01*
X82560000Y-150080000D02*
X82850000Y-149790000D01*
X79600000Y-150080000D02*
X76640000Y-150080000D01*
X76640000Y-150080000D02*
X76350000Y-149790000D01*
X69440000Y-150080000D02*
X72400000Y-150080000D01*
X72400000Y-150080000D02*
X72690000Y-149790000D01*
X69440000Y-150080000D02*
X66480000Y-150080000D01*
X66480000Y-150080000D02*
X66190000Y-149790000D01*
X89760000Y-150080000D02*
X92720000Y-150080000D01*
X92720000Y-150080000D02*
X93010000Y-149790000D01*
X89760000Y-150080000D02*
X86800000Y-150080000D01*
X86800000Y-150080000D02*
X86510000Y-149790000D01*
D17*
X140560000Y-139920000D02*
X130400000Y-139920000D01*
X130400000Y-139920000D02*
X120240000Y-139920000D01*
X120240000Y-139920000D02*
X110080000Y-139920000D01*
X110080000Y-139920000D02*
X99920000Y-139920000D01*
X99920000Y-139920000D02*
X89760000Y-139920000D01*
X89760000Y-139920000D02*
X79600000Y-139920000D01*
X79600000Y-139920000D02*
X69440000Y-139920000D01*
D18*
X130400000Y-139920000D02*
X133360000Y-139920000D01*
X133360000Y-139920000D02*
X133650000Y-139630000D01*
X130400000Y-139920000D02*
X127440000Y-139920000D01*
X127440000Y-139920000D02*
X127150000Y-139630000D01*
X120240000Y-139920000D02*
X117280000Y-139920000D01*
X117280000Y-139920000D02*
X116990000Y-139630000D01*
X120240000Y-139920000D02*
X123200000Y-139920000D01*
X123200000Y-139920000D02*
X123490000Y-139630000D01*
X110080000Y-139920000D02*
X113040000Y-139920000D01*
X113040000Y-139920000D02*
X113330000Y-139630000D01*
X110080000Y-139920000D02*
X107120000Y-139920000D01*
X107120000Y-139920000D02*
X106830000Y-139630000D01*
X140560000Y-139920000D02*
X137600000Y-139920000D01*
X137600000Y-139920000D02*
X137310000Y-139630000D01*
X140560000Y-139920000D02*
X143520000Y-139920000D01*
X143520000Y-139920000D02*
X143810000Y-139630000D01*
X99920000Y-139920000D02*
X102880000Y-139920000D01*
X102880000Y-139920000D02*
X103170000Y-139630000D01*
X99920000Y-139920000D02*
X96960000Y-139920000D01*
X96960000Y-139920000D02*
X96670000Y-139630000D01*
X79600000Y-139920000D02*
X82560000Y-139920000D01*
X82560000Y-139920000D02*
X82850000Y-139630000D01*
X79600000Y-139920000D02*
X76640000Y-139920000D01*
X76640000Y-139920000D02*
X76350000Y-139630000D01*
X69440000Y-139920000D02*
X72400000Y-139920000D01*
X72400000Y-139920000D02*
X72690000Y-139630000D01*
X69440000Y-139920000D02*
X66480000Y-139920000D01*
X66480000Y-139920000D02*
X66190000Y-139630000D01*
X89760000Y-139920000D02*
X92720000Y-139920000D01*
X92720000Y-139920000D02*
X93010000Y-139630000D01*
X89760000Y-139920000D02*
X86800000Y-139920000D01*
X86800000Y-139920000D02*
X86510000Y-139630000D01*
D17*
X140560000Y-129760000D02*
X130400000Y-129760000D01*
X130400000Y-129760000D02*
X120240000Y-129760000D01*
X120240000Y-129760000D02*
X110080000Y-129760000D01*
X110080000Y-129760000D02*
X99920000Y-129760000D01*
X99920000Y-129760000D02*
X89760000Y-129760000D01*
X89760000Y-129760000D02*
X79600000Y-129760000D01*
X79600000Y-129760000D02*
X69440000Y-129760000D01*
D18*
X110080000Y-129760000D02*
X107120000Y-129760000D01*
X107120000Y-129760000D02*
X106830000Y-129470000D01*
X110080000Y-129760000D02*
X113040000Y-129760000D01*
X113040000Y-129760000D02*
X113330000Y-129470000D01*
X120240000Y-129760000D02*
X117280000Y-129760000D01*
X117280000Y-129760000D02*
X116990000Y-129470000D01*
X120240000Y-129760000D02*
X123200000Y-129760000D01*
X123200000Y-129760000D02*
X123490000Y-129470000D01*
X130400000Y-129760000D02*
X127440000Y-129760000D01*
X127440000Y-129760000D02*
X127150000Y-129470000D01*
X130400000Y-129760000D02*
X133360000Y-129760000D01*
X133360000Y-129760000D02*
X133650000Y-129470000D01*
X140560000Y-129760000D02*
X137600000Y-129760000D01*
X137600000Y-129760000D02*
X137310000Y-129470000D01*
X140560000Y-129760000D02*
X143520000Y-129760000D01*
X143520000Y-129760000D02*
X143810000Y-129470000D01*
X99920000Y-129760000D02*
X102880000Y-129760000D01*
X102880000Y-129760000D02*
X103170000Y-129470000D01*
X99920000Y-129760000D02*
X96960000Y-129760000D01*
X96960000Y-129760000D02*
X96670000Y-129470000D01*
X79600000Y-129760000D02*
X82560000Y-129760000D01*
X82560000Y-129760000D02*
X82850000Y-129470000D01*
X79600000Y-129760000D02*
X76640000Y-129760000D01*
X76640000Y-129760000D02*
X76350000Y-129470000D01*
X69440000Y-129760000D02*
X72400000Y-129760000D01*
X72400000Y-129760000D02*
X72690000Y-129470000D01*
X69440000Y-129760000D02*
X66480000Y-129760000D01*
X66480000Y-129760000D02*
X66190000Y-129470000D01*
X89760000Y-129760000D02*
X92720000Y-129760000D01*
X92720000Y-129760000D02*
X93010000Y-129470000D01*
X89760000Y-129760000D02*
X86800000Y-129760000D01*
X86800000Y-129760000D02*
X86510000Y-129470000D01*
D17*
X140560000Y-119600000D02*
X130400000Y-119600000D01*
X130400000Y-119600000D02*
X120240000Y-119600000D01*
X120240000Y-119600000D02*
X110080000Y-119600000D01*
X110080000Y-119600000D02*
X99920000Y-119600000D01*
X99920000Y-119600000D02*
X89760000Y-119600000D01*
X89760000Y-119600000D02*
X79600000Y-119600000D01*
X79600000Y-119600000D02*
X69440000Y-119600000D01*
D18*
X110080000Y-119600000D02*
X113040000Y-119600000D01*
X113040000Y-119600000D02*
X113330000Y-119310000D01*
X110080000Y-119600000D02*
X107120000Y-119600000D01*
X107120000Y-119600000D02*
X106830000Y-119310000D01*
X120240000Y-119600000D02*
X117280000Y-119600000D01*
X117280000Y-119600000D02*
X116990000Y-119310000D01*
X120240000Y-119600000D02*
X123200000Y-119600000D01*
X123200000Y-119600000D02*
X123490000Y-119310000D01*
X130400000Y-119600000D02*
X127440000Y-119600000D01*
X127440000Y-119600000D02*
X127150000Y-119310000D01*
X130400000Y-119600000D02*
X133360000Y-119600000D01*
X133360000Y-119600000D02*
X133650000Y-119310000D01*
X140560000Y-119600000D02*
X137600000Y-119600000D01*
X137600000Y-119600000D02*
X137310000Y-119310000D01*
X140560000Y-119600000D02*
X143520000Y-119600000D01*
X143520000Y-119600000D02*
X143810000Y-119310000D01*
X99920000Y-119600000D02*
X102880000Y-119600000D01*
X102880000Y-119600000D02*
X103170000Y-119310000D01*
X99920000Y-119600000D02*
X96960000Y-119600000D01*
X96960000Y-119600000D02*
X96670000Y-119310000D01*
X79600000Y-119600000D02*
X82560000Y-119600000D01*
X82560000Y-119600000D02*
X82850000Y-119310000D01*
X79600000Y-119600000D02*
X76640000Y-119600000D01*
X76640000Y-119600000D02*
X76350000Y-119310000D01*
X69440000Y-119600000D02*
X72400000Y-119600000D01*
X72400000Y-119600000D02*
X72690000Y-119310000D01*
X69440000Y-119600000D02*
X66480000Y-119600000D01*
X66480000Y-119600000D02*
X66190000Y-119310000D01*
X89760000Y-119600000D02*
X92720000Y-119600000D01*
X92720000Y-119600000D02*
X93010000Y-119310000D01*
X89760000Y-119600000D02*
X86800000Y-119600000D01*
X86800000Y-119600000D02*
X86510000Y-119310000D01*
M02*
