G04 #@! TF.FileFunction,Copper,L1,Top,Signal*
%FSLAX46Y46*%
G04 Gerber Fmt 4.6, Leading zero omitted, Abs format (unit mm)*
G04 Created by KiCad (PCBNEW 4.0.5) date 12/15/17 13:53:40*
%MOMM*%
%LPD*%
G01*
G04 APERTURE LIST*
%ADD10C,0.150000*%
%ADD11C,1.000000*%
%ADD12C,2.000000*%
%ADD13C,1.600000*%
%ADD14C,3.500120*%
%ADD15O,1.524000X2.199640*%
%ADD16C,1.800000*%
%ADD17C,0.300000*%
G04 APERTURE END LIST*
D10*
D11*
X58010000Y-179290000D02*
X58010000Y-176750000D01*
X60550000Y-179290000D02*
X60550000Y-176750000D01*
X63090000Y-179290000D02*
X63090000Y-176750000D01*
X58010000Y-184370000D02*
X58010000Y-181830000D01*
X63090000Y-184370000D02*
X63090000Y-181830000D01*
X60550000Y-184370000D02*
X60550000Y-181830000D01*
X58010000Y-174210000D02*
X58010000Y-171670000D01*
X60550000Y-174210000D02*
X60550000Y-171670000D01*
X63090000Y-174210000D02*
X63090000Y-171670000D01*
X63090000Y-153890000D02*
X63090000Y-151350000D01*
X60550000Y-153890000D02*
X60550000Y-151350000D01*
X58010000Y-153890000D02*
X58010000Y-151350000D01*
X58010000Y-148810000D02*
X58010000Y-146270000D01*
X60550000Y-148810000D02*
X60550000Y-146270000D01*
X63090000Y-148810000D02*
X63090000Y-146270000D01*
X63090000Y-161510000D02*
X63090000Y-158970000D01*
X60550000Y-161510000D02*
X60550000Y-158970000D01*
X58010000Y-161510000D02*
X58010000Y-158970000D01*
X58010000Y-166590000D02*
X58010000Y-164050000D01*
X60550000Y-166590000D02*
X60550000Y-164050000D01*
X63090000Y-166590000D02*
X63090000Y-164050000D01*
X63090000Y-123410000D02*
X63090000Y-120870000D01*
X60550000Y-123410000D02*
X60550000Y-120870000D01*
X58010000Y-123410000D02*
X58010000Y-120870000D01*
X65630000Y-105630000D02*
X65630000Y-103090000D01*
X63090000Y-110710000D02*
X63090000Y-108170000D01*
X60550000Y-110710000D02*
X60550000Y-108170000D01*
X58010000Y-110710000D02*
X58010000Y-108170000D01*
X58010000Y-115790000D02*
X58010000Y-113250000D01*
X60550000Y-115790000D02*
X60550000Y-113250000D01*
X63090000Y-115790000D02*
X63090000Y-113250000D01*
X63090000Y-136110000D02*
X63090000Y-133570000D01*
X60550000Y-136110000D02*
X60550000Y-133570000D01*
X58010000Y-136110000D02*
X58010000Y-133570000D01*
X58010000Y-128490000D02*
X58010000Y-125950000D01*
X60550000Y-128490000D02*
X60550000Y-125950000D01*
X63090000Y-128490000D02*
X63090000Y-125950000D01*
X63090000Y-141190000D02*
X63090000Y-138650000D01*
X60550000Y-141190000D02*
X60550000Y-138650000D01*
X58010000Y-141190000D02*
X58010000Y-138650000D01*
X151990000Y-148810000D02*
X151990000Y-146270000D01*
X149450000Y-148810000D02*
X149450000Y-146270000D01*
X146910000Y-148810000D02*
X146910000Y-146270000D01*
X146910000Y-141190000D02*
X146910000Y-138650000D01*
X149450000Y-141190000D02*
X149450000Y-138650000D01*
X151990000Y-141190000D02*
X151990000Y-138650000D01*
X146910000Y-136110000D02*
X146910000Y-133570000D01*
X149450000Y-136110000D02*
X149450000Y-133570000D01*
X151990000Y-136110000D02*
X151990000Y-133570000D01*
X151990000Y-115790000D02*
X151990000Y-113250000D01*
X149450000Y-115790000D02*
X149450000Y-113250000D01*
X146910000Y-115790000D02*
X146910000Y-113250000D01*
X146910000Y-110710000D02*
X146910000Y-108170000D01*
X149450000Y-110710000D02*
X149450000Y-108170000D01*
X151990000Y-110710000D02*
X151990000Y-108170000D01*
X151990000Y-123410000D02*
X151990000Y-120870000D01*
X149450000Y-123410000D02*
X149450000Y-120870000D01*
X146910000Y-123410000D02*
X146910000Y-120870000D01*
X146910000Y-128490000D02*
X146910000Y-125950000D01*
X149450000Y-128490000D02*
X149450000Y-125950000D01*
X151990000Y-128490000D02*
X151990000Y-125950000D01*
X151990000Y-166590000D02*
X151990000Y-164050000D01*
X149450000Y-166590000D02*
X149450000Y-164050000D01*
X146910000Y-166590000D02*
X146910000Y-164050000D01*
X146910000Y-161510000D02*
X146910000Y-158970000D01*
X149450000Y-161510000D02*
X149450000Y-158970000D01*
X151990000Y-161510000D02*
X151990000Y-158970000D01*
X151990000Y-153890000D02*
X151990000Y-151350000D01*
X149450000Y-153890000D02*
X149450000Y-151350000D01*
X146910000Y-153890000D02*
X146910000Y-151350000D01*
X151990000Y-179290000D02*
X151990000Y-176750000D01*
X149450000Y-179290000D02*
X149450000Y-176750000D01*
X146910000Y-179290000D02*
X146910000Y-176750000D01*
X146910000Y-174210000D02*
X146910000Y-171670000D01*
X149450000Y-174210000D02*
X149450000Y-171670000D01*
X151990000Y-174210000D02*
X151990000Y-171670000D01*
X151990000Y-184370000D02*
X151990000Y-181830000D01*
X149450000Y-184370000D02*
X149450000Y-181830000D01*
X146910000Y-184370000D02*
X146910000Y-181830000D01*
X139290000Y-105630000D02*
X139290000Y-103090000D01*
X136750000Y-105630000D02*
X136750000Y-103090000D01*
X134210000Y-105630000D02*
X134210000Y-103090000D01*
X141830000Y-105630000D02*
X141830000Y-103090000D01*
X144370000Y-105630000D02*
X144370000Y-103090000D01*
X131670000Y-105630000D02*
X131670000Y-103090000D01*
X129130000Y-105630000D02*
X129130000Y-103090000D01*
X126590000Y-105630000D02*
X126590000Y-103090000D01*
X121510000Y-105630000D02*
X121510000Y-103090000D01*
X124050000Y-105630000D02*
X124050000Y-103090000D01*
X93570000Y-105630000D02*
X93570000Y-103090000D01*
X91030000Y-105630000D02*
X91030000Y-103090000D01*
X88490000Y-105630000D02*
X88490000Y-103090000D01*
X96110000Y-105630000D02*
X96110000Y-103090000D01*
X98650000Y-105630000D02*
X98650000Y-103090000D01*
X101190000Y-105630000D02*
X101190000Y-103090000D01*
X116430000Y-105630000D02*
X116430000Y-103090000D01*
X113890000Y-105630000D02*
X113890000Y-103090000D01*
X111350000Y-105630000D02*
X111350000Y-103090000D01*
X103730000Y-105630000D02*
X103730000Y-103090000D01*
X106270000Y-105630000D02*
X106270000Y-103090000D01*
X108810000Y-105630000D02*
X108810000Y-103090000D01*
X78330000Y-105630000D02*
X78330000Y-103090000D01*
X75790000Y-105630000D02*
X75790000Y-103090000D01*
X73250000Y-105630000D02*
X73250000Y-103090000D01*
X80870000Y-105630000D02*
X80870000Y-103090000D01*
X83410000Y-105630000D02*
X83410000Y-103090000D01*
X85950000Y-105630000D02*
X85950000Y-103090000D01*
X70710000Y-105630000D02*
X70710000Y-103090000D01*
X68170000Y-105630000D02*
X68170000Y-103090000D01*
X118970000Y-105630000D02*
X118970000Y-103090000D01*
X106270000Y-100550000D02*
X106270000Y-98010000D01*
X108810000Y-100550000D02*
X108810000Y-98010000D01*
X111350000Y-100550000D02*
X111350000Y-98010000D01*
X113890000Y-100550000D02*
X113890000Y-98010000D01*
X116430000Y-100550000D02*
X116430000Y-98010000D01*
X118970000Y-100550000D02*
X118970000Y-98010000D01*
X121510000Y-100550000D02*
X121510000Y-98010000D01*
X124050000Y-100550000D02*
X124050000Y-98010000D01*
X144370000Y-100550000D02*
X144370000Y-98010000D01*
X141830000Y-100550000D02*
X141830000Y-98010000D01*
X139290000Y-100550000D02*
X139290000Y-98010000D01*
X136750000Y-100550000D02*
X136750000Y-98010000D01*
X134210000Y-100550000D02*
X134210000Y-98010000D01*
X131670000Y-100550000D02*
X131670000Y-98010000D01*
X129130000Y-100550000D02*
X129130000Y-98010000D01*
X126590000Y-100550000D02*
X126590000Y-98010000D01*
X83410000Y-100550000D02*
X83410000Y-98010000D01*
X80870000Y-100550000D02*
X80870000Y-98010000D01*
X78330000Y-100550000D02*
X78330000Y-98010000D01*
X75790000Y-100550000D02*
X75790000Y-98010000D01*
X73250000Y-100550000D02*
X73250000Y-98010000D01*
X70710000Y-100550000D02*
X70710000Y-98010000D01*
X68170000Y-100550000D02*
X68170000Y-98010000D01*
X65630000Y-100550000D02*
X65630000Y-98010000D01*
X85950000Y-100550000D02*
X85950000Y-98010000D01*
X88490000Y-100550000D02*
X88490000Y-98010000D01*
X91030000Y-100550000D02*
X91030000Y-98010000D01*
X93570000Y-100550000D02*
X93570000Y-98010000D01*
X96110000Y-100550000D02*
X96110000Y-98010000D01*
X98650000Y-100550000D02*
X98650000Y-98010000D01*
X101190000Y-100550000D02*
X101190000Y-98010000D01*
X103730000Y-100550000D02*
X103730000Y-98010000D01*
D12*
X86510000Y-129470000D03*
X93010000Y-124970000D03*
X86510000Y-124970000D03*
X93010000Y-129470000D03*
D13*
X89760000Y-124680000D03*
X89760000Y-129760000D03*
D12*
X66190000Y-139630000D03*
X72690000Y-135130000D03*
X66190000Y-135130000D03*
X72690000Y-139630000D03*
D13*
X69440000Y-134840000D03*
X69440000Y-139920000D03*
D12*
X66190000Y-129470000D03*
X72690000Y-124970000D03*
X66190000Y-124970000D03*
X72690000Y-129470000D03*
D13*
X69440000Y-124680000D03*
X69440000Y-129760000D03*
D12*
X106830000Y-119310000D03*
X113330000Y-114810000D03*
X106830000Y-114810000D03*
X113330000Y-119310000D03*
D13*
X110080000Y-114520000D03*
X110080000Y-119600000D03*
D14*
X60000000Y-100000000D03*
X60000000Y-100000000D03*
X150000000Y-100000000D03*
X150000000Y-100000000D03*
X150000000Y-190000000D03*
X150000000Y-190000000D03*
X60000000Y-190000000D03*
X60000000Y-190000000D03*
D15*
X85950000Y-98010000D03*
X88490000Y-98010000D03*
X91030000Y-98010000D03*
X93570000Y-98010000D03*
X96110000Y-98010000D03*
X98650000Y-98010000D03*
X101190000Y-98010000D03*
X103730000Y-98010000D03*
X106270000Y-98010000D03*
X108810000Y-98010000D03*
X111350000Y-98010000D03*
X113890000Y-98010000D03*
X116430000Y-98010000D03*
X118970000Y-98010000D03*
X121510000Y-98010000D03*
X124050000Y-98010000D03*
X65630000Y-98010000D03*
X68170000Y-98010000D03*
X70710000Y-98010000D03*
X73250000Y-98010000D03*
X75790000Y-98010000D03*
X78330000Y-98010000D03*
X80870000Y-98010000D03*
X83410000Y-98010000D03*
X126590000Y-98010000D03*
X129130000Y-98010000D03*
X131670000Y-98010000D03*
X134210000Y-98010000D03*
X136750000Y-98010000D03*
X139290000Y-98010000D03*
X141830000Y-98010000D03*
X144370000Y-98010000D03*
D12*
X66190000Y-119310000D03*
X72690000Y-114810000D03*
X66190000Y-114810000D03*
X72690000Y-119310000D03*
D13*
X69440000Y-114520000D03*
X69440000Y-119600000D03*
D12*
X76350000Y-119310000D03*
X82850000Y-114810000D03*
X76350000Y-114810000D03*
X82850000Y-119310000D03*
D13*
X79600000Y-114520000D03*
X79600000Y-119600000D03*
D12*
X86510000Y-119310000D03*
X93010000Y-114810000D03*
X86510000Y-114810000D03*
X93010000Y-119310000D03*
D13*
X89760000Y-114520000D03*
X89760000Y-119600000D03*
D12*
X96670000Y-119310000D03*
X103170000Y-114810000D03*
X96670000Y-114810000D03*
X103170000Y-119310000D03*
D13*
X99920000Y-114520000D03*
X99920000Y-119600000D03*
D12*
X116990000Y-119310000D03*
X123490000Y-114810000D03*
X116990000Y-114810000D03*
X123490000Y-119310000D03*
D13*
X120240000Y-114520000D03*
X120240000Y-119600000D03*
D12*
X127150000Y-119310000D03*
X133650000Y-114810000D03*
X127150000Y-114810000D03*
X133650000Y-119310000D03*
D13*
X130400000Y-114520000D03*
X130400000Y-119600000D03*
D12*
X137310000Y-119310000D03*
X143810000Y-114810000D03*
X137310000Y-114810000D03*
X143810000Y-119310000D03*
D13*
X140560000Y-114520000D03*
X140560000Y-119600000D03*
D12*
X76350000Y-129470000D03*
X82850000Y-124970000D03*
X76350000Y-124970000D03*
X82850000Y-129470000D03*
D13*
X79600000Y-124680000D03*
X79600000Y-129760000D03*
D12*
X96670000Y-129470000D03*
X103170000Y-124970000D03*
X96670000Y-124970000D03*
X103170000Y-129470000D03*
D13*
X99920000Y-124680000D03*
X99920000Y-129760000D03*
D12*
X116990000Y-129470000D03*
X123490000Y-124970000D03*
X116990000Y-124970000D03*
X123490000Y-129470000D03*
D13*
X120240000Y-124680000D03*
X120240000Y-129760000D03*
D12*
X127150000Y-129470000D03*
X133650000Y-124970000D03*
X127150000Y-124970000D03*
X133650000Y-129470000D03*
D13*
X130400000Y-124680000D03*
X130400000Y-129760000D03*
D12*
X137310000Y-129470000D03*
X143810000Y-124970000D03*
X137310000Y-124970000D03*
X143810000Y-129470000D03*
D13*
X140560000Y-124680000D03*
X140560000Y-129760000D03*
D12*
X76350000Y-139630000D03*
X82850000Y-135130000D03*
X76350000Y-135130000D03*
X82850000Y-139630000D03*
D13*
X79600000Y-134840000D03*
X79600000Y-139920000D03*
D12*
X86510000Y-139630000D03*
X93010000Y-135130000D03*
X86510000Y-135130000D03*
X93010000Y-139630000D03*
D13*
X89760000Y-134840000D03*
X89760000Y-139920000D03*
D12*
X106830000Y-139630000D03*
X113330000Y-135130000D03*
X106830000Y-135130000D03*
X113330000Y-139630000D03*
D13*
X110080000Y-134840000D03*
X110080000Y-139920000D03*
D12*
X116990000Y-139630000D03*
X123490000Y-135130000D03*
X116990000Y-135130000D03*
X123490000Y-139630000D03*
D13*
X120240000Y-134840000D03*
X120240000Y-139920000D03*
D12*
X127150000Y-139630000D03*
X133650000Y-135130000D03*
X127150000Y-135130000D03*
X133650000Y-139630000D03*
D13*
X130400000Y-134840000D03*
X130400000Y-139920000D03*
D12*
X137310000Y-139630000D03*
X143810000Y-135130000D03*
X137310000Y-135130000D03*
X143810000Y-139630000D03*
D13*
X140560000Y-134840000D03*
X140560000Y-139920000D03*
D12*
X66190000Y-149790000D03*
X72690000Y-145290000D03*
X66190000Y-145290000D03*
X72690000Y-149790000D03*
D13*
X69440000Y-145000000D03*
X69440000Y-150080000D03*
D12*
X76350000Y-149790000D03*
X82850000Y-145290000D03*
X76350000Y-145290000D03*
X82850000Y-149790000D03*
D13*
X79600000Y-145000000D03*
X79600000Y-150080000D03*
D12*
X86510000Y-149790000D03*
X93010000Y-145290000D03*
X86510000Y-145290000D03*
X93010000Y-149790000D03*
D13*
X89760000Y-145000000D03*
X89760000Y-150080000D03*
D12*
X96670000Y-149790000D03*
X103170000Y-145290000D03*
X96670000Y-145290000D03*
X103170000Y-149790000D03*
D13*
X99920000Y-145000000D03*
X99920000Y-150080000D03*
D12*
X106830000Y-149790000D03*
X113330000Y-145290000D03*
X106830000Y-145290000D03*
X113330000Y-149790000D03*
D13*
X110080000Y-145000000D03*
X110080000Y-150080000D03*
D12*
X116990000Y-149790000D03*
X123490000Y-145290000D03*
X116990000Y-145290000D03*
X123490000Y-149790000D03*
D13*
X120240000Y-145000000D03*
X120240000Y-150080000D03*
D12*
X127150000Y-149790000D03*
X133650000Y-145290000D03*
X127150000Y-145290000D03*
X133650000Y-149790000D03*
D13*
X130400000Y-145000000D03*
X130400000Y-150080000D03*
D12*
X137310000Y-149790000D03*
X143810000Y-145290000D03*
X137310000Y-145290000D03*
X143810000Y-149790000D03*
D13*
X140560000Y-145000000D03*
X140560000Y-150080000D03*
D12*
X66190000Y-159950000D03*
X72690000Y-155450000D03*
X66190000Y-155450000D03*
X72690000Y-159950000D03*
D13*
X69440000Y-155160000D03*
X69440000Y-160240000D03*
D12*
X76350000Y-159950000D03*
X82850000Y-155450000D03*
X76350000Y-155450000D03*
X82850000Y-159950000D03*
D13*
X79600000Y-155160000D03*
X79600000Y-160240000D03*
D12*
X86510000Y-159950000D03*
X93010000Y-155450000D03*
X86510000Y-155450000D03*
X93010000Y-159950000D03*
D13*
X89760000Y-155160000D03*
X89760000Y-160240000D03*
D12*
X96670000Y-159950000D03*
X103170000Y-155450000D03*
X96670000Y-155450000D03*
X103170000Y-159950000D03*
D13*
X99920000Y-155160000D03*
X99920000Y-160240000D03*
D12*
X106830000Y-159950000D03*
X113330000Y-155450000D03*
X106830000Y-155450000D03*
X113330000Y-159950000D03*
D13*
X110080000Y-155160000D03*
X110080000Y-160240000D03*
D12*
X116990000Y-159950000D03*
X123490000Y-155450000D03*
X116990000Y-155450000D03*
X123490000Y-159950000D03*
D13*
X120240000Y-155160000D03*
X120240000Y-160240000D03*
D12*
X127150000Y-159950000D03*
X133650000Y-155450000D03*
X127150000Y-155450000D03*
X133650000Y-159950000D03*
D13*
X130400000Y-155160000D03*
X130400000Y-160240000D03*
D12*
X137310000Y-159950000D03*
X143810000Y-155450000D03*
X137310000Y-155450000D03*
X143810000Y-159950000D03*
D13*
X140560000Y-155160000D03*
X140560000Y-160240000D03*
D12*
X66190000Y-170110000D03*
X72690000Y-165610000D03*
X66190000Y-165610000D03*
X72690000Y-170110000D03*
D13*
X69440000Y-165320000D03*
X69440000Y-170400000D03*
D12*
X76350000Y-170110000D03*
X82850000Y-165610000D03*
X76350000Y-165610000D03*
X82850000Y-170110000D03*
D13*
X79600000Y-165320000D03*
X79600000Y-170400000D03*
D12*
X86510000Y-170110000D03*
X93010000Y-165610000D03*
X86510000Y-165610000D03*
X93010000Y-170110000D03*
D13*
X89760000Y-165320000D03*
X89760000Y-170400000D03*
D12*
X96670000Y-170110000D03*
X103170000Y-165610000D03*
X96670000Y-165610000D03*
X103170000Y-170110000D03*
D13*
X99920000Y-165320000D03*
X99920000Y-170400000D03*
D12*
X106830000Y-170110000D03*
X113330000Y-165610000D03*
X106830000Y-165610000D03*
X113330000Y-170110000D03*
D13*
X110080000Y-165320000D03*
X110080000Y-170400000D03*
D12*
X116990000Y-170110000D03*
X123490000Y-165610000D03*
X116990000Y-165610000D03*
X123490000Y-170110000D03*
D13*
X120240000Y-165320000D03*
X120240000Y-170400000D03*
D12*
X127150000Y-170110000D03*
X133650000Y-165610000D03*
X127150000Y-165610000D03*
X133650000Y-170110000D03*
D13*
X130400000Y-165320000D03*
X130400000Y-170400000D03*
D12*
X137310000Y-170110000D03*
X143810000Y-165610000D03*
X137310000Y-165610000D03*
X143810000Y-170110000D03*
D13*
X140560000Y-165320000D03*
X140560000Y-170400000D03*
D12*
X66190000Y-180270000D03*
X72690000Y-175770000D03*
X66190000Y-175770000D03*
X72690000Y-180270000D03*
D13*
X69440000Y-175480000D03*
X69440000Y-180560000D03*
D12*
X76350000Y-180270000D03*
X82850000Y-175770000D03*
X76350000Y-175770000D03*
X82850000Y-180270000D03*
D13*
X79600000Y-175480000D03*
X79600000Y-180560000D03*
D12*
X86510000Y-180270000D03*
X93010000Y-175770000D03*
X86510000Y-175770000D03*
X93010000Y-180270000D03*
D13*
X89760000Y-175480000D03*
X89760000Y-180560000D03*
D12*
X96670000Y-180270000D03*
X103170000Y-175770000D03*
X96670000Y-175770000D03*
X103170000Y-180270000D03*
D13*
X99920000Y-175480000D03*
X99920000Y-180560000D03*
D12*
X106830000Y-180270000D03*
X113330000Y-175770000D03*
X106830000Y-175770000D03*
X113330000Y-180270000D03*
D13*
X110080000Y-175480000D03*
X110080000Y-180560000D03*
D12*
X116990000Y-180270000D03*
X123490000Y-175770000D03*
X116990000Y-175770000D03*
X123490000Y-180270000D03*
D13*
X120240000Y-175480000D03*
X120240000Y-180560000D03*
D12*
X127150000Y-180270000D03*
X133650000Y-175770000D03*
X127150000Y-175770000D03*
X133650000Y-180270000D03*
D13*
X130400000Y-175480000D03*
X130400000Y-180560000D03*
D12*
X137310000Y-180270000D03*
X143810000Y-175770000D03*
X137310000Y-175770000D03*
X143810000Y-180270000D03*
D13*
X140560000Y-175480000D03*
X140560000Y-180560000D03*
D12*
X66190000Y-190430000D03*
X72690000Y-185930000D03*
X66190000Y-185930000D03*
X72690000Y-190430000D03*
D13*
X69440000Y-185640000D03*
X69440000Y-190720000D03*
D12*
X76350000Y-190430000D03*
X82850000Y-185930000D03*
X76350000Y-185930000D03*
X82850000Y-190430000D03*
D13*
X79600000Y-185640000D03*
X79600000Y-190720000D03*
D12*
X86510000Y-190430000D03*
X93010000Y-185930000D03*
X86510000Y-185930000D03*
X93010000Y-190430000D03*
D13*
X89760000Y-185640000D03*
X89760000Y-190720000D03*
D12*
X96670000Y-190430000D03*
X103170000Y-185930000D03*
X96670000Y-185930000D03*
X103170000Y-190430000D03*
D13*
X99920000Y-185640000D03*
X99920000Y-190720000D03*
D12*
X106830000Y-190430000D03*
X113330000Y-185930000D03*
X106830000Y-185930000D03*
X113330000Y-190430000D03*
D13*
X110080000Y-185640000D03*
X110080000Y-190720000D03*
D12*
X116990000Y-190430000D03*
X123490000Y-185930000D03*
X116990000Y-185930000D03*
X123490000Y-190430000D03*
D13*
X120240000Y-185640000D03*
X120240000Y-190720000D03*
D12*
X127150000Y-190430000D03*
X133650000Y-185930000D03*
X127150000Y-185930000D03*
X133650000Y-190430000D03*
D13*
X130400000Y-185640000D03*
X130400000Y-190720000D03*
D12*
X137310000Y-190430000D03*
X143810000Y-185930000D03*
X137310000Y-185930000D03*
X143810000Y-190430000D03*
D13*
X140560000Y-185640000D03*
X140560000Y-190720000D03*
D12*
X106830000Y-129470000D03*
X113330000Y-124970000D03*
X106830000Y-124970000D03*
X113330000Y-129470000D03*
D13*
X110080000Y-124680000D03*
X110080000Y-129760000D03*
D12*
X96670000Y-139630000D03*
X103170000Y-135130000D03*
X96670000Y-135130000D03*
X103170000Y-139630000D03*
D13*
X99920000Y-134840000D03*
X99920000Y-139920000D03*
D16*
X58010000Y-176750000D03*
X58010000Y-179290000D03*
X60550000Y-176750000D03*
X60550000Y-179290000D03*
X63090000Y-176750000D03*
X63090000Y-179290000D03*
X58010000Y-181830000D03*
X58010000Y-184370000D03*
X63090000Y-181830000D03*
X63090000Y-184370000D03*
X60550000Y-181830000D03*
X60550000Y-184370000D03*
X58010000Y-171670000D03*
X58010000Y-174210000D03*
X60550000Y-171670000D03*
X60550000Y-174210000D03*
X63090000Y-171670000D03*
X63090000Y-174210000D03*
X63090000Y-151350000D03*
X63090000Y-153890000D03*
X60550000Y-151350000D03*
X60550000Y-153890000D03*
X58010000Y-151350000D03*
X58010000Y-153890000D03*
X58010000Y-146270000D03*
X58010000Y-148810000D03*
X60550000Y-146270000D03*
X60550000Y-148810000D03*
X63090000Y-146270000D03*
X63090000Y-148810000D03*
X63090000Y-158970000D03*
X63090000Y-161510000D03*
X60550000Y-158970000D03*
X60550000Y-161510000D03*
X58010000Y-158970000D03*
X58010000Y-161510000D03*
X58010000Y-164050000D03*
X58010000Y-166590000D03*
X60550000Y-164050000D03*
X60550000Y-166590000D03*
X63090000Y-164050000D03*
X63090000Y-166590000D03*
X63090000Y-120870000D03*
X63090000Y-123410000D03*
X60550000Y-120870000D03*
X60550000Y-123410000D03*
X58010000Y-120870000D03*
X58010000Y-123410000D03*
X65630000Y-103090000D03*
X65630000Y-105630000D03*
X63090000Y-108170000D03*
X63090000Y-110710000D03*
X60550000Y-108170000D03*
X60550000Y-110710000D03*
X58010000Y-108170000D03*
X58010000Y-110710000D03*
X58010000Y-113250000D03*
X58010000Y-115790000D03*
X60550000Y-113250000D03*
X60550000Y-115790000D03*
X63090000Y-113250000D03*
X63090000Y-115790000D03*
X63090000Y-133570000D03*
X63090000Y-136110000D03*
X60550000Y-133570000D03*
X60550000Y-136110000D03*
X58010000Y-133570000D03*
X58010000Y-136110000D03*
X58010000Y-125950000D03*
X58010000Y-128490000D03*
X60550000Y-125950000D03*
X60550000Y-128490000D03*
X63090000Y-125950000D03*
X63090000Y-128490000D03*
X63090000Y-138650000D03*
X63090000Y-141190000D03*
X60550000Y-138650000D03*
X60550000Y-141190000D03*
X58010000Y-138650000D03*
X58010000Y-141190000D03*
X151990000Y-146270000D03*
X151990000Y-148810000D03*
X149450000Y-146270000D03*
X149450000Y-148810000D03*
X146910000Y-146270000D03*
X146910000Y-148810000D03*
X146910000Y-138650000D03*
X146910000Y-141190000D03*
X149450000Y-138650000D03*
X149450000Y-141190000D03*
X151990000Y-138650000D03*
X151990000Y-141190000D03*
X146910000Y-133570000D03*
X146910000Y-136110000D03*
X149450000Y-133570000D03*
X149450000Y-136110000D03*
X151990000Y-133570000D03*
X151990000Y-136110000D03*
X151990000Y-113250000D03*
X151990000Y-115790000D03*
X149450000Y-113250000D03*
X149450000Y-115790000D03*
X146910000Y-113250000D03*
X146910000Y-115790000D03*
X146910000Y-108170000D03*
X146910000Y-110710000D03*
X149450000Y-108170000D03*
X149450000Y-110710000D03*
X151990000Y-108170000D03*
X151990000Y-110710000D03*
X151990000Y-120870000D03*
X151990000Y-123410000D03*
X149450000Y-120870000D03*
X149450000Y-123410000D03*
X146910000Y-120870000D03*
X146910000Y-123410000D03*
X146910000Y-125950000D03*
X146910000Y-128490000D03*
X149450000Y-125950000D03*
X149450000Y-128490000D03*
X151990000Y-125950000D03*
X151990000Y-128490000D03*
X151990000Y-164050000D03*
X151990000Y-166590000D03*
X149450000Y-164050000D03*
X149450000Y-166590000D03*
X146910000Y-164050000D03*
X146910000Y-166590000D03*
X146910000Y-158970000D03*
X146910000Y-161510000D03*
X149450000Y-158970000D03*
X149450000Y-161510000D03*
X151990000Y-158970000D03*
X151990000Y-161510000D03*
X151990000Y-151350000D03*
X151990000Y-153890000D03*
X149450000Y-151350000D03*
X149450000Y-153890000D03*
X146910000Y-151350000D03*
X146910000Y-153890000D03*
X151990000Y-176750000D03*
X151990000Y-179290000D03*
X149450000Y-176750000D03*
X149450000Y-179290000D03*
X146910000Y-176750000D03*
X146910000Y-179290000D03*
X146910000Y-171670000D03*
X146910000Y-174210000D03*
X149450000Y-171670000D03*
X149450000Y-174210000D03*
X151990000Y-171670000D03*
X151990000Y-174210000D03*
X151990000Y-181830000D03*
X151990000Y-184370000D03*
X149450000Y-181830000D03*
X149450000Y-184370000D03*
X146910000Y-181830000D03*
X146910000Y-184370000D03*
X141830000Y-110710000D03*
X144370000Y-110710000D03*
X65630000Y-108170000D03*
X68170000Y-108170000D03*
X70710000Y-108170000D03*
X73250000Y-108170000D03*
X80870000Y-110710000D03*
X83410000Y-110710000D03*
X80870000Y-108170000D03*
X83410000Y-108170000D03*
X75790000Y-110710000D03*
X78330000Y-110710000D03*
X65630000Y-110710000D03*
X68170000Y-110710000D03*
X70710000Y-110710000D03*
X73250000Y-110710000D03*
X75790000Y-108170000D03*
X78330000Y-108170000D03*
X106270000Y-108170000D03*
X108810000Y-108170000D03*
X101190000Y-110710000D03*
X103730000Y-110710000D03*
X101190000Y-108170000D03*
X103730000Y-108170000D03*
X106270000Y-110710000D03*
X108810000Y-110710000D03*
X111350000Y-108170000D03*
X113890000Y-108170000D03*
X111350000Y-110710000D03*
X113890000Y-110710000D03*
X96110000Y-110710000D03*
X98650000Y-110710000D03*
X96110000Y-108170000D03*
X98650000Y-108170000D03*
X91030000Y-110710000D03*
X93570000Y-110710000D03*
X85950000Y-108170000D03*
X88490000Y-108170000D03*
X85950000Y-110710000D03*
X88490000Y-110710000D03*
X91030000Y-108170000D03*
X93570000Y-108170000D03*
X121510000Y-108170000D03*
X124050000Y-108170000D03*
X116430000Y-110710000D03*
X118970000Y-110710000D03*
X116430000Y-108170000D03*
X118970000Y-108170000D03*
X121510000Y-110710000D03*
X124050000Y-110710000D03*
X126590000Y-108170000D03*
X129130000Y-108170000D03*
X126590000Y-110710000D03*
X129130000Y-110710000D03*
X141830000Y-108170000D03*
X144370000Y-108170000D03*
X136750000Y-110710000D03*
X139290000Y-110710000D03*
X131670000Y-108170000D03*
X134210000Y-108170000D03*
X131670000Y-110710000D03*
X134210000Y-110710000D03*
X136750000Y-108170000D03*
X139290000Y-108170000D03*
X139290000Y-103090000D03*
X139290000Y-105630000D03*
X136750000Y-103090000D03*
X136750000Y-105630000D03*
X134210000Y-103090000D03*
X134210000Y-105630000D03*
X141830000Y-103090000D03*
X141830000Y-105630000D03*
X144370000Y-103090000D03*
X144370000Y-105630000D03*
X131670000Y-103090000D03*
X131670000Y-105630000D03*
X129130000Y-103090000D03*
X129130000Y-105630000D03*
X126590000Y-103090000D03*
X126590000Y-105630000D03*
X121510000Y-103090000D03*
X121510000Y-105630000D03*
X124050000Y-103090000D03*
X124050000Y-105630000D03*
X93570000Y-103090000D03*
X93570000Y-105630000D03*
X91030000Y-103090000D03*
X91030000Y-105630000D03*
X88490000Y-103090000D03*
X88490000Y-105630000D03*
X96110000Y-103090000D03*
X96110000Y-105630000D03*
X98650000Y-103090000D03*
X98650000Y-105630000D03*
X101190000Y-103090000D03*
X101190000Y-105630000D03*
X116430000Y-103090000D03*
X116430000Y-105630000D03*
X113890000Y-103090000D03*
X113890000Y-105630000D03*
X111350000Y-103090000D03*
X111350000Y-105630000D03*
X103730000Y-103090000D03*
X103730000Y-105630000D03*
X106270000Y-103090000D03*
X106270000Y-105630000D03*
X108810000Y-103090000D03*
X108810000Y-105630000D03*
X78330000Y-103090000D03*
X78330000Y-105630000D03*
X75790000Y-103090000D03*
X75790000Y-105630000D03*
X73250000Y-103090000D03*
X73250000Y-105630000D03*
X80870000Y-103090000D03*
X80870000Y-105630000D03*
X83410000Y-103090000D03*
X83410000Y-105630000D03*
X85950000Y-103090000D03*
X85950000Y-105630000D03*
X70710000Y-103090000D03*
X70710000Y-105630000D03*
X68170000Y-103090000D03*
X68170000Y-105630000D03*
X118970000Y-103090000D03*
X118970000Y-105630000D03*
X106270000Y-100550000D03*
X108810000Y-100550000D03*
X111350000Y-100550000D03*
X113890000Y-100550000D03*
X116430000Y-100550000D03*
X118970000Y-100550000D03*
X121510000Y-100550000D03*
X124050000Y-100550000D03*
X144370000Y-100550000D03*
X141830000Y-100550000D03*
X139290000Y-100550000D03*
X136750000Y-100550000D03*
X134210000Y-100550000D03*
X131670000Y-100550000D03*
X129130000Y-100550000D03*
X126590000Y-100550000D03*
X83410000Y-100550000D03*
X80870000Y-100550000D03*
X78330000Y-100550000D03*
X75790000Y-100550000D03*
X73250000Y-100550000D03*
X70710000Y-100550000D03*
X68170000Y-100550000D03*
X65630000Y-100550000D03*
X85950000Y-100550000D03*
X88490000Y-100550000D03*
X91030000Y-100550000D03*
X93570000Y-100550000D03*
X96110000Y-100550000D03*
X98650000Y-100550000D03*
X101190000Y-100550000D03*
X103730000Y-100550000D03*
X60550000Y-169130000D03*
X63090000Y-169130000D03*
X58010000Y-169130000D03*
X60550000Y-156430000D03*
X63090000Y-156430000D03*
X58010000Y-156430000D03*
X60550000Y-118330000D03*
X63090000Y-118330000D03*
X58010000Y-118330000D03*
X60550000Y-105630000D03*
X63090000Y-105630000D03*
X58010000Y-105630000D03*
X60550000Y-143730000D03*
X63090000Y-143730000D03*
X58010000Y-143730000D03*
X60550000Y-131030000D03*
X63090000Y-131030000D03*
X58010000Y-131030000D03*
X149450000Y-105630000D03*
X151990000Y-105630000D03*
X146910000Y-105630000D03*
X149450000Y-118330000D03*
X151990000Y-118330000D03*
X146910000Y-118330000D03*
X149450000Y-169130000D03*
X151990000Y-169130000D03*
X146910000Y-169130000D03*
X149450000Y-156430000D03*
X151990000Y-156430000D03*
X146910000Y-156430000D03*
X149450000Y-131030000D03*
X151990000Y-131030000D03*
X146910000Y-131030000D03*
X149450000Y-143730000D03*
X151990000Y-143730000D03*
X146910000Y-143730000D03*
D11*
X103730000Y-98010000D02*
X103730000Y-100550000D01*
D17*
X108810000Y-112361000D02*
X109826000Y-112361000D01*
X111604000Y-114139000D02*
X111604000Y-114647000D01*
X109826000Y-112361000D02*
X111604000Y-114139000D01*
X106651000Y-112361000D02*
X108810000Y-112361000D01*
X111604000Y-188704000D02*
X113330000Y-190430000D01*
X111604000Y-114647000D02*
X111604000Y-188704000D01*
X102460000Y-111345000D02*
X102460000Y-111472000D01*
X102460000Y-101820000D02*
X102460000Y-111345000D01*
X103730000Y-100550000D02*
X102460000Y-101820000D01*
X103349000Y-112361000D02*
X106651000Y-112361000D01*
X102460000Y-111472000D02*
X103349000Y-112361000D01*
D11*
X124050000Y-98010000D02*
X124050000Y-100550000D01*
D17*
X140560000Y-175480000D02*
X139036000Y-177004000D01*
X139036000Y-184116000D02*
X140560000Y-185640000D01*
X139036000Y-177004000D02*
X139036000Y-184116000D01*
X140560000Y-165320000D02*
X142084000Y-166844000D01*
X142084000Y-173956000D02*
X140560000Y-175480000D01*
X142084000Y-166844000D02*
X142084000Y-173956000D01*
X140560000Y-155160000D02*
X139036000Y-156684000D01*
X139036000Y-163796000D02*
X140560000Y-165320000D01*
X139036000Y-156684000D02*
X139036000Y-163796000D01*
X140560000Y-145000000D02*
X142084000Y-146524000D01*
X142084000Y-153636000D02*
X140560000Y-155160000D01*
X142084000Y-146524000D02*
X142084000Y-153636000D01*
X140560000Y-134840000D02*
X139036000Y-136364000D01*
X139036000Y-143476000D02*
X140560000Y-145000000D01*
X139036000Y-136364000D02*
X139036000Y-143476000D01*
X140560000Y-124680000D02*
X142084000Y-126204000D01*
X142084000Y-133316000D02*
X140560000Y-134840000D01*
X142084000Y-126204000D02*
X142084000Y-133316000D01*
X137310000Y-114810000D02*
X139036000Y-116536000D01*
X139036000Y-123156000D02*
X140560000Y-124680000D01*
X139036000Y-116536000D02*
X139036000Y-123156000D01*
X124050000Y-100550000D02*
X125320000Y-101820000D01*
X125320000Y-101820000D02*
X125320000Y-111345000D01*
X125320000Y-111345000D02*
X126590000Y-112615000D01*
X126590000Y-112615000D02*
X135115000Y-112615000D01*
X135115000Y-112615000D02*
X137310000Y-114810000D01*
D11*
X121510000Y-98010000D02*
X121510000Y-100550000D01*
D17*
X130400000Y-175480000D02*
X128876000Y-177004000D01*
X128876000Y-184116000D02*
X130400000Y-185640000D01*
X128876000Y-177004000D02*
X128876000Y-184116000D01*
X130400000Y-165320000D02*
X131924000Y-166844000D01*
X131924000Y-173956000D02*
X130400000Y-175480000D01*
X131924000Y-166844000D02*
X131924000Y-173956000D01*
X130400000Y-155160000D02*
X128876000Y-156684000D01*
X128876000Y-163796000D02*
X130400000Y-165320000D01*
X128876000Y-156684000D02*
X128876000Y-163796000D01*
X130400000Y-145000000D02*
X131924000Y-146524000D01*
X131924000Y-153636000D02*
X130400000Y-155160000D01*
X131924000Y-146524000D02*
X131924000Y-153636000D01*
X130400000Y-134840000D02*
X128876000Y-136364000D01*
X128876000Y-143476000D02*
X130400000Y-145000000D01*
X128876000Y-136364000D02*
X128876000Y-143476000D01*
X130400000Y-124680000D02*
X131924000Y-126204000D01*
X131924000Y-133316000D02*
X130400000Y-134840000D01*
X131924000Y-126204000D02*
X131924000Y-133316000D01*
X127150000Y-114810000D02*
X128876000Y-116536000D01*
X128876000Y-123156000D02*
X130400000Y-124680000D01*
X128876000Y-116536000D02*
X128876000Y-123156000D01*
X121510000Y-100550000D02*
X122780000Y-101820000D01*
X122780000Y-101820000D02*
X122780000Y-111345000D01*
X122780000Y-111345000D02*
X126245000Y-114810000D01*
D11*
X118970000Y-98010000D02*
X118970000Y-100550000D01*
D17*
X120240000Y-175480000D02*
X118716000Y-177004000D01*
X118716000Y-184116000D02*
X120240000Y-185640000D01*
X118716000Y-177004000D02*
X118716000Y-184116000D01*
X120240000Y-165320000D02*
X121764000Y-166844000D01*
X121764000Y-173956000D02*
X120240000Y-175480000D01*
X121764000Y-166844000D02*
X121764000Y-173956000D01*
X120240000Y-155160000D02*
X118716000Y-156684000D01*
X118716000Y-163796000D02*
X120240000Y-165320000D01*
X118716000Y-156684000D02*
X118716000Y-163796000D01*
X120240000Y-145000000D02*
X121764000Y-146524000D01*
X121764000Y-153636000D02*
X120240000Y-155160000D01*
X121764000Y-146524000D02*
X121764000Y-153636000D01*
X120240000Y-134840000D02*
X118716000Y-136364000D01*
X118716000Y-143476000D02*
X120240000Y-145000000D01*
X118716000Y-136364000D02*
X118716000Y-143476000D01*
X120240000Y-124680000D02*
X121764000Y-126204000D01*
X121764000Y-133316000D02*
X120240000Y-134840000D01*
X121764000Y-126204000D02*
X121764000Y-133316000D01*
X116990000Y-114810000D02*
X118716000Y-116536000D01*
X118716000Y-123156000D02*
X120240000Y-124680000D01*
X118716000Y-116536000D02*
X118716000Y-123156000D01*
X118970000Y-100550000D02*
X120240000Y-101820000D01*
X120240000Y-101820000D02*
X120240000Y-114520000D01*
D11*
X116430000Y-98010000D02*
X116430000Y-100550000D01*
D17*
X113330000Y-175770000D02*
X115160000Y-177600000D01*
X115160000Y-184100000D02*
X113330000Y-185930000D01*
X115160000Y-177600000D02*
X115160000Y-184100000D01*
X113330000Y-165610000D02*
X115160000Y-167440000D01*
X115160000Y-173940000D02*
X113330000Y-175770000D01*
X115160000Y-167440000D02*
X115160000Y-173940000D01*
X113330000Y-155450000D02*
X115160000Y-157280000D01*
X115160000Y-163780000D02*
X113330000Y-165610000D01*
X115160000Y-157280000D02*
X115160000Y-163780000D01*
X113330000Y-145290000D02*
X115160000Y-147120000D01*
X115160000Y-153620000D02*
X113330000Y-155450000D01*
X115160000Y-147120000D02*
X115160000Y-153620000D01*
X113330000Y-135130000D02*
X115160000Y-136960000D01*
X115160000Y-143460000D02*
X113330000Y-145290000D01*
X115160000Y-136960000D02*
X115160000Y-143460000D01*
X113330000Y-124970000D02*
X115160000Y-126800000D01*
X115160000Y-133300000D02*
X113330000Y-135130000D01*
X115160000Y-126800000D02*
X115160000Y-133300000D01*
X113330000Y-114810000D02*
X115160000Y-116640000D01*
X115160000Y-123140000D02*
X113330000Y-124970000D01*
X115160000Y-116640000D02*
X115160000Y-123140000D01*
X116430000Y-100550000D02*
X115160000Y-101820000D01*
X115160000Y-101820000D02*
X115160000Y-112980000D01*
X115160000Y-112980000D02*
X113330000Y-114810000D01*
D11*
X113890000Y-98010000D02*
X113890000Y-100550000D01*
D17*
X103170000Y-175770000D02*
X101444000Y-177496000D01*
X101444000Y-184116000D02*
X99920000Y-185640000D01*
X101444000Y-177496000D02*
X101444000Y-184116000D01*
X103170000Y-165610000D02*
X105000000Y-167440000D01*
X105000000Y-173940000D02*
X103170000Y-175770000D01*
X105000000Y-167440000D02*
X105000000Y-173940000D01*
X103170000Y-155450000D02*
X105000000Y-157280000D01*
X105000000Y-163780000D02*
X103170000Y-165610000D01*
X105000000Y-157280000D02*
X105000000Y-163780000D01*
X103170000Y-145290000D02*
X105000000Y-147120000D01*
X105000000Y-153620000D02*
X103170000Y-155450000D01*
X105000000Y-147120000D02*
X105000000Y-153620000D01*
X103170000Y-135130000D02*
X105000000Y-136960000D01*
X105000000Y-143460000D02*
X103170000Y-145290000D01*
X105000000Y-136960000D02*
X105000000Y-143460000D01*
X103170000Y-124970000D02*
X105000000Y-126800000D01*
X105000000Y-133300000D02*
X103170000Y-135130000D01*
X105000000Y-126800000D02*
X105000000Y-133300000D01*
X103170000Y-114810000D02*
X105000000Y-116640000D01*
X105000000Y-123140000D02*
X103170000Y-124970000D01*
X105000000Y-116640000D02*
X105000000Y-123140000D01*
D11*
X111350000Y-98010000D02*
X111350000Y-100550000D01*
D17*
X89760000Y-175480000D02*
X88236000Y-177004000D01*
X88236000Y-184116000D02*
X89760000Y-185640000D01*
X88236000Y-177004000D02*
X88236000Y-184116000D01*
X89760000Y-165320000D02*
X91284000Y-166844000D01*
X91284000Y-173956000D02*
X89760000Y-175480000D01*
X91284000Y-166844000D02*
X91284000Y-173956000D01*
X89760000Y-155160000D02*
X88236000Y-156684000D01*
X88236000Y-163796000D02*
X89760000Y-165320000D01*
X88236000Y-156684000D02*
X88236000Y-163796000D01*
X89760000Y-145000000D02*
X91284000Y-146524000D01*
X91284000Y-153636000D02*
X89760000Y-155160000D01*
X91284000Y-146524000D02*
X91284000Y-153636000D01*
X86510000Y-135130000D02*
X88236000Y-136856000D01*
X88236000Y-143476000D02*
X89760000Y-145000000D01*
X88236000Y-136856000D02*
X88236000Y-143476000D01*
X86510000Y-124970000D02*
X84680000Y-126800000D01*
X84680000Y-133300000D02*
X86510000Y-135130000D01*
X84680000Y-126800000D02*
X84680000Y-133300000D01*
X93010000Y-114810000D02*
X94586000Y-116386000D01*
X94586000Y-123394000D02*
X93010000Y-124970000D01*
X94586000Y-116386000D02*
X94586000Y-123394000D01*
D11*
X108810000Y-98010000D02*
X108810000Y-100550000D01*
D17*
X82850000Y-114810000D02*
X81124000Y-116536000D01*
X81124000Y-116536000D02*
X81124000Y-117441000D01*
X79600000Y-175480000D02*
X81124000Y-177004000D01*
X81124000Y-184116000D02*
X79600000Y-185640000D01*
X81124000Y-177004000D02*
X81124000Y-184116000D01*
X79600000Y-165320000D02*
X78076000Y-166844000D01*
X78076000Y-173956000D02*
X79600000Y-175480000D01*
X78076000Y-166844000D02*
X78076000Y-173956000D01*
X79600000Y-155160000D02*
X81124000Y-156684000D01*
X81124000Y-163796000D02*
X79600000Y-165320000D01*
X81124000Y-156684000D02*
X81124000Y-163796000D01*
X79600000Y-145000000D02*
X78076000Y-146524000D01*
X78076000Y-153636000D02*
X79600000Y-155160000D01*
X78076000Y-146524000D02*
X78076000Y-153636000D01*
X79600000Y-134840000D02*
X81124000Y-136364000D01*
X81124000Y-143476000D02*
X79600000Y-145000000D01*
X81124000Y-136364000D02*
X81124000Y-143476000D01*
X79600000Y-124680000D02*
X78076000Y-126204000D01*
X78076000Y-133316000D02*
X79600000Y-134840000D01*
X78076000Y-126204000D02*
X78076000Y-133316000D01*
X81124000Y-117441000D02*
X81124000Y-123156000D01*
X81124000Y-123156000D02*
X79600000Y-124680000D01*
D11*
X106270000Y-98010000D02*
X106270000Y-100550000D01*
D17*
X72690000Y-114810000D02*
X70964000Y-116536000D01*
X70964000Y-116536000D02*
X70964000Y-117187000D01*
X69440000Y-175480000D02*
X70964000Y-177004000D01*
X70964000Y-184116000D02*
X69440000Y-185640000D01*
X70964000Y-177004000D02*
X70964000Y-184116000D01*
X69440000Y-165320000D02*
X67916000Y-166844000D01*
X67916000Y-173956000D02*
X69440000Y-175480000D01*
X67916000Y-166844000D02*
X67916000Y-173956000D01*
X69440000Y-155160000D02*
X70964000Y-156684000D01*
X70964000Y-163796000D02*
X69440000Y-165320000D01*
X70964000Y-156684000D02*
X70964000Y-163796000D01*
X69440000Y-145000000D02*
X67916000Y-146524000D01*
X67916000Y-153636000D02*
X69440000Y-155160000D01*
X67916000Y-146524000D02*
X67916000Y-153636000D01*
X69440000Y-134840000D02*
X70964000Y-136364000D01*
X70964000Y-143476000D02*
X69440000Y-145000000D01*
X70964000Y-136364000D02*
X70964000Y-143476000D01*
X69440000Y-124680000D02*
X67916000Y-126204000D01*
X67916000Y-133316000D02*
X69440000Y-134840000D01*
X67916000Y-126204000D02*
X67916000Y-133316000D01*
X70964000Y-123156000D02*
X69440000Y-124680000D01*
X70964000Y-117187000D02*
X70964000Y-123156000D01*
D11*
X101190000Y-98010000D02*
X101190000Y-100550000D01*
D17*
X103730000Y-113123000D02*
X107286000Y-113123000D01*
X108556000Y-178544000D02*
X106830000Y-180270000D01*
X108556000Y-114393000D02*
X108556000Y-178544000D01*
X107286000Y-113123000D02*
X108556000Y-114393000D01*
X99920000Y-111345000D02*
X99920000Y-111472000D01*
X99920000Y-101820000D02*
X99920000Y-111345000D01*
X101190000Y-100550000D02*
X99920000Y-101820000D01*
X101571000Y-113123000D02*
X103730000Y-113123000D01*
X99920000Y-111472000D02*
X101571000Y-113123000D01*
D11*
X98650000Y-98010000D02*
X98650000Y-100550000D01*
D17*
X97380000Y-111345000D02*
X97380000Y-111472000D01*
X98650000Y-100550000D02*
X97380000Y-101820000D01*
X97380000Y-101820000D02*
X97380000Y-111345000D01*
X101444000Y-168384000D02*
X103170000Y-170110000D01*
X101444000Y-114139000D02*
X101444000Y-168384000D01*
X100428000Y-113123000D02*
X101444000Y-114139000D01*
X99031000Y-113123000D02*
X100428000Y-113123000D01*
X97380000Y-111472000D02*
X99031000Y-113123000D01*
D11*
X96110000Y-98010000D02*
X96110000Y-100550000D01*
D17*
X94840000Y-101820000D02*
X94840000Y-111472000D01*
X96110000Y-100550000D02*
X94840000Y-101820000D01*
X98396000Y-158224000D02*
X96670000Y-159950000D01*
X98396000Y-114266000D02*
X98396000Y-158224000D01*
X97253000Y-113123000D02*
X98396000Y-114266000D01*
X96491000Y-113123000D02*
X97253000Y-113123000D01*
X94840000Y-111472000D02*
X96491000Y-113123000D01*
D11*
X93570000Y-98010000D02*
X93570000Y-100550000D01*
D17*
X94840000Y-114012000D02*
X95094000Y-114266000D01*
X95094000Y-147706000D02*
X93010000Y-149790000D01*
X95094000Y-114266000D02*
X95094000Y-147706000D01*
X92300000Y-111345000D02*
X92300000Y-111472000D01*
X93570000Y-100550000D02*
X92300000Y-101820000D01*
X92300000Y-101820000D02*
X92300000Y-111345000D01*
X92300000Y-111472000D02*
X94840000Y-114012000D01*
D11*
X91030000Y-98010000D02*
X91030000Y-100550000D01*
D17*
X89760000Y-111345000D02*
X89760000Y-111472000D01*
X91030000Y-100550000D02*
X89760000Y-101820000D01*
X89760000Y-101820000D02*
X89760000Y-111345000D01*
X91284000Y-138396000D02*
X89760000Y-139920000D01*
X91284000Y-112996000D02*
X91284000Y-138396000D01*
X89760000Y-111472000D02*
X91284000Y-112996000D01*
D11*
X88490000Y-98010000D02*
X88490000Y-100550000D01*
D17*
X87220000Y-111472000D02*
X88236000Y-112488000D01*
X88236000Y-112488000D02*
X88236000Y-127744000D01*
X86510000Y-129470000D02*
X88236000Y-127744000D01*
X87220000Y-111345000D02*
X87220000Y-111472000D01*
X87220000Y-101820000D02*
X87220000Y-111345000D01*
X87220000Y-101820000D02*
X88490000Y-100550000D01*
D11*
X85950000Y-98010000D02*
X85950000Y-100550000D01*
D17*
X85950000Y-100550000D02*
X84680000Y-101820000D01*
X84680000Y-101820000D02*
X84680000Y-117480000D01*
X84680000Y-117480000D02*
X86510000Y-119310000D01*
D11*
X65630000Y-98010000D02*
X65630000Y-100550000D01*
X68170000Y-98010000D02*
X68170000Y-100550000D01*
X70710000Y-98010000D02*
X70710000Y-100550000D01*
X73250000Y-98010000D02*
X73250000Y-100550000D01*
X75790000Y-98010000D02*
X75790000Y-100550000D01*
X78330000Y-98010000D02*
X78330000Y-100550000D01*
X80870000Y-98010000D02*
X80870000Y-100550000D01*
X83410000Y-98010000D02*
X83410000Y-100550000D01*
X126590000Y-98010000D02*
X126590000Y-100550000D01*
X129130000Y-98010000D02*
X129130000Y-100550000D01*
X131670000Y-98010000D02*
X131670000Y-100550000D01*
X134210000Y-98010000D02*
X134210000Y-100550000D01*
X136750000Y-98010000D02*
X136750000Y-100550000D01*
X139290000Y-98010000D02*
X139290000Y-100550000D01*
X141830000Y-98010000D02*
X141830000Y-100550000D01*
X144370000Y-98010000D02*
X144370000Y-100550000D01*
M02*
