G04 #@! TF.FileFunction,Soldermask,Bot*
%FSLAX46Y46*%
G04 Gerber Fmt 4.6, Leading zero omitted, Abs format (unit mm)*
G04 Created by KiCad (PCBNEW 4.0.5) date 11/09/17 02:57:30*
%MOMM*%
%LPD*%
G01*
G04 APERTURE LIST*
%ADD10C,0.150000*%
%ADD11C,0.100000*%
%ADD12C,2.000000*%
%ADD13C,1.600000*%
%ADD14O,1.524000X2.199640*%
%ADD15C,1.800000*%
G04 APERTURE END LIST*
D10*
D11*
X60000000Y-95000000D02*
G75*
G03X55000000Y-100000000I0J-5000000D01*
G01*
X155000000Y-100000000D02*
G75*
G03X150000000Y-95000000I-5000000J0D01*
G01*
X150000000Y-195000000D02*
G75*
G03X155000000Y-190000000I0J5000000D01*
G01*
X55000000Y-190000000D02*
G75*
G03X60000000Y-195000000I5000000J0D01*
G01*
X60000000Y-95000000D02*
X150000000Y-95000000D01*
X155000000Y-100000000D02*
X155000000Y-190000000D01*
X150000000Y-195000000D02*
X60000000Y-195000000D01*
X55000000Y-190000000D02*
X55000000Y-100000000D01*
D12*
X86510000Y-129470000D03*
X93010000Y-124970000D03*
X86510000Y-124970000D03*
X93010000Y-129470000D03*
D13*
X89760000Y-124680000D03*
X89760000Y-129760000D03*
D12*
X66190000Y-139630000D03*
X72690000Y-135130000D03*
X66190000Y-135130000D03*
X72690000Y-139630000D03*
D13*
X69440000Y-134840000D03*
X69440000Y-139920000D03*
D12*
X66190000Y-129470000D03*
X72690000Y-124970000D03*
X66190000Y-124970000D03*
X72690000Y-129470000D03*
D13*
X69440000Y-124680000D03*
X69440000Y-129760000D03*
D12*
X106830000Y-119310000D03*
X113330000Y-114810000D03*
X106830000Y-114810000D03*
X113330000Y-119310000D03*
D13*
X110080000Y-114520000D03*
X110080000Y-119600000D03*
D14*
X85950000Y-98010000D03*
X88490000Y-98010000D03*
X91030000Y-98010000D03*
X93570000Y-98010000D03*
X96110000Y-98010000D03*
X98650000Y-98010000D03*
X101190000Y-98010000D03*
X103730000Y-98010000D03*
X106270000Y-98010000D03*
X108810000Y-98010000D03*
X111350000Y-98010000D03*
X113890000Y-98010000D03*
X116430000Y-98010000D03*
X118970000Y-98010000D03*
X121510000Y-98010000D03*
X124050000Y-98010000D03*
X65630000Y-98010000D03*
X68170000Y-98010000D03*
X70710000Y-98010000D03*
X73250000Y-98010000D03*
X75790000Y-98010000D03*
X78330000Y-98010000D03*
X80870000Y-98010000D03*
X83410000Y-98010000D03*
X126590000Y-98010000D03*
X129130000Y-98010000D03*
X131670000Y-98010000D03*
X134210000Y-98010000D03*
X136750000Y-98010000D03*
X139290000Y-98010000D03*
X141830000Y-98010000D03*
X144370000Y-98010000D03*
D12*
X66190000Y-119310000D03*
X72690000Y-114810000D03*
X66190000Y-114810000D03*
X72690000Y-119310000D03*
D13*
X69440000Y-114520000D03*
X69440000Y-119600000D03*
D12*
X76350000Y-119310000D03*
X82850000Y-114810000D03*
X76350000Y-114810000D03*
X82850000Y-119310000D03*
D13*
X79600000Y-114520000D03*
X79600000Y-119600000D03*
D12*
X86510000Y-119310000D03*
X93010000Y-114810000D03*
X86510000Y-114810000D03*
X93010000Y-119310000D03*
D13*
X89760000Y-114520000D03*
X89760000Y-119600000D03*
D12*
X96670000Y-119310000D03*
X103170000Y-114810000D03*
X96670000Y-114810000D03*
X103170000Y-119310000D03*
D13*
X99920000Y-114520000D03*
X99920000Y-119600000D03*
D12*
X116990000Y-119310000D03*
X123490000Y-114810000D03*
X116990000Y-114810000D03*
X123490000Y-119310000D03*
D13*
X120240000Y-114520000D03*
X120240000Y-119600000D03*
D12*
X127150000Y-119310000D03*
X133650000Y-114810000D03*
X127150000Y-114810000D03*
X133650000Y-119310000D03*
D13*
X130400000Y-114520000D03*
X130400000Y-119600000D03*
D12*
X137310000Y-119310000D03*
X143810000Y-114810000D03*
X137310000Y-114810000D03*
X143810000Y-119310000D03*
D13*
X140560000Y-114520000D03*
X140560000Y-119600000D03*
D12*
X76350000Y-129470000D03*
X82850000Y-124970000D03*
X76350000Y-124970000D03*
X82850000Y-129470000D03*
D13*
X79600000Y-124680000D03*
X79600000Y-129760000D03*
D12*
X96670000Y-129470000D03*
X103170000Y-124970000D03*
X96670000Y-124970000D03*
X103170000Y-129470000D03*
D13*
X99920000Y-124680000D03*
X99920000Y-129760000D03*
D12*
X116990000Y-129470000D03*
X123490000Y-124970000D03*
X116990000Y-124970000D03*
X123490000Y-129470000D03*
D13*
X120240000Y-124680000D03*
X120240000Y-129760000D03*
D12*
X127150000Y-129470000D03*
X133650000Y-124970000D03*
X127150000Y-124970000D03*
X133650000Y-129470000D03*
D13*
X130400000Y-124680000D03*
X130400000Y-129760000D03*
D12*
X137310000Y-129470000D03*
X143810000Y-124970000D03*
X137310000Y-124970000D03*
X143810000Y-129470000D03*
D13*
X140560000Y-124680000D03*
X140560000Y-129760000D03*
D12*
X76350000Y-139630000D03*
X82850000Y-135130000D03*
X76350000Y-135130000D03*
X82850000Y-139630000D03*
D13*
X79600000Y-134840000D03*
X79600000Y-139920000D03*
D12*
X86510000Y-139630000D03*
X93010000Y-135130000D03*
X86510000Y-135130000D03*
X93010000Y-139630000D03*
D13*
X89760000Y-134840000D03*
X89760000Y-139920000D03*
D12*
X106830000Y-139630000D03*
X113330000Y-135130000D03*
X106830000Y-135130000D03*
X113330000Y-139630000D03*
D13*
X110080000Y-134840000D03*
X110080000Y-139920000D03*
D12*
X116990000Y-139630000D03*
X123490000Y-135130000D03*
X116990000Y-135130000D03*
X123490000Y-139630000D03*
D13*
X120240000Y-134840000D03*
X120240000Y-139920000D03*
D12*
X127150000Y-139630000D03*
X133650000Y-135130000D03*
X127150000Y-135130000D03*
X133650000Y-139630000D03*
D13*
X130400000Y-134840000D03*
X130400000Y-139920000D03*
D12*
X137310000Y-139630000D03*
X143810000Y-135130000D03*
X137310000Y-135130000D03*
X143810000Y-139630000D03*
D13*
X140560000Y-134840000D03*
X140560000Y-139920000D03*
D12*
X66190000Y-149790000D03*
X72690000Y-145290000D03*
X66190000Y-145290000D03*
X72690000Y-149790000D03*
D13*
X69440000Y-145000000D03*
X69440000Y-150080000D03*
D12*
X76350000Y-149790000D03*
X82850000Y-145290000D03*
X76350000Y-145290000D03*
X82850000Y-149790000D03*
D13*
X79600000Y-145000000D03*
X79600000Y-150080000D03*
D12*
X86510000Y-149790000D03*
X93010000Y-145290000D03*
X86510000Y-145290000D03*
X93010000Y-149790000D03*
D13*
X89760000Y-145000000D03*
X89760000Y-150080000D03*
D12*
X96670000Y-149790000D03*
X103170000Y-145290000D03*
X96670000Y-145290000D03*
X103170000Y-149790000D03*
D13*
X99920000Y-145000000D03*
X99920000Y-150080000D03*
D12*
X106830000Y-149790000D03*
X113330000Y-145290000D03*
X106830000Y-145290000D03*
X113330000Y-149790000D03*
D13*
X110080000Y-145000000D03*
X110080000Y-150080000D03*
D12*
X116990000Y-149790000D03*
X123490000Y-145290000D03*
X116990000Y-145290000D03*
X123490000Y-149790000D03*
D13*
X120240000Y-145000000D03*
X120240000Y-150080000D03*
D12*
X127150000Y-149790000D03*
X133650000Y-145290000D03*
X127150000Y-145290000D03*
X133650000Y-149790000D03*
D13*
X130400000Y-145000000D03*
X130400000Y-150080000D03*
D12*
X137310000Y-149790000D03*
X143810000Y-145290000D03*
X137310000Y-145290000D03*
X143810000Y-149790000D03*
D13*
X140560000Y-145000000D03*
X140560000Y-150080000D03*
D12*
X66190000Y-159950000D03*
X72690000Y-155450000D03*
X66190000Y-155450000D03*
X72690000Y-159950000D03*
D13*
X69440000Y-155160000D03*
X69440000Y-160240000D03*
D12*
X76350000Y-159950000D03*
X82850000Y-155450000D03*
X76350000Y-155450000D03*
X82850000Y-159950000D03*
D13*
X79600000Y-155160000D03*
X79600000Y-160240000D03*
D12*
X86510000Y-159950000D03*
X93010000Y-155450000D03*
X86510000Y-155450000D03*
X93010000Y-159950000D03*
D13*
X89760000Y-155160000D03*
X89760000Y-160240000D03*
D12*
X96670000Y-159950000D03*
X103170000Y-155450000D03*
X96670000Y-155450000D03*
X103170000Y-159950000D03*
D13*
X99920000Y-155160000D03*
X99920000Y-160240000D03*
D12*
X106830000Y-159950000D03*
X113330000Y-155450000D03*
X106830000Y-155450000D03*
X113330000Y-159950000D03*
D13*
X110080000Y-155160000D03*
X110080000Y-160240000D03*
D12*
X116990000Y-159950000D03*
X123490000Y-155450000D03*
X116990000Y-155450000D03*
X123490000Y-159950000D03*
D13*
X120240000Y-155160000D03*
X120240000Y-160240000D03*
D12*
X127150000Y-159950000D03*
X133650000Y-155450000D03*
X127150000Y-155450000D03*
X133650000Y-159950000D03*
D13*
X130400000Y-155160000D03*
X130400000Y-160240000D03*
D12*
X137310000Y-159950000D03*
X143810000Y-155450000D03*
X137310000Y-155450000D03*
X143810000Y-159950000D03*
D13*
X140560000Y-155160000D03*
X140560000Y-160240000D03*
D12*
X66190000Y-170110000D03*
X72690000Y-165610000D03*
X66190000Y-165610000D03*
X72690000Y-170110000D03*
D13*
X69440000Y-165320000D03*
X69440000Y-170400000D03*
D12*
X76350000Y-170110000D03*
X82850000Y-165610000D03*
X76350000Y-165610000D03*
X82850000Y-170110000D03*
D13*
X79600000Y-165320000D03*
X79600000Y-170400000D03*
D12*
X86510000Y-170110000D03*
X93010000Y-165610000D03*
X86510000Y-165610000D03*
X93010000Y-170110000D03*
D13*
X89760000Y-165320000D03*
X89760000Y-170400000D03*
D12*
X96670000Y-170110000D03*
X103170000Y-165610000D03*
X96670000Y-165610000D03*
X103170000Y-170110000D03*
D13*
X99920000Y-165320000D03*
X99920000Y-170400000D03*
D12*
X106830000Y-170110000D03*
X113330000Y-165610000D03*
X106830000Y-165610000D03*
X113330000Y-170110000D03*
D13*
X110080000Y-165320000D03*
X110080000Y-170400000D03*
D12*
X116990000Y-170110000D03*
X123490000Y-165610000D03*
X116990000Y-165610000D03*
X123490000Y-170110000D03*
D13*
X120240000Y-165320000D03*
X120240000Y-170400000D03*
D12*
X127150000Y-170110000D03*
X133650000Y-165610000D03*
X127150000Y-165610000D03*
X133650000Y-170110000D03*
D13*
X130400000Y-165320000D03*
X130400000Y-170400000D03*
D12*
X137310000Y-170110000D03*
X143810000Y-165610000D03*
X137310000Y-165610000D03*
X143810000Y-170110000D03*
D13*
X140560000Y-165320000D03*
X140560000Y-170400000D03*
D12*
X66190000Y-180270000D03*
X72690000Y-175770000D03*
X66190000Y-175770000D03*
X72690000Y-180270000D03*
D13*
X69440000Y-175480000D03*
X69440000Y-180560000D03*
D12*
X76350000Y-180270000D03*
X82850000Y-175770000D03*
X76350000Y-175770000D03*
X82850000Y-180270000D03*
D13*
X79600000Y-175480000D03*
X79600000Y-180560000D03*
D12*
X86510000Y-180270000D03*
X93010000Y-175770000D03*
X86510000Y-175770000D03*
X93010000Y-180270000D03*
D13*
X89760000Y-175480000D03*
X89760000Y-180560000D03*
D12*
X96670000Y-180270000D03*
X103170000Y-175770000D03*
X96670000Y-175770000D03*
X103170000Y-180270000D03*
D13*
X99920000Y-175480000D03*
X99920000Y-180560000D03*
D12*
X106830000Y-180270000D03*
X113330000Y-175770000D03*
X106830000Y-175770000D03*
X113330000Y-180270000D03*
D13*
X110080000Y-175480000D03*
X110080000Y-180560000D03*
D12*
X116990000Y-180270000D03*
X123490000Y-175770000D03*
X116990000Y-175770000D03*
X123490000Y-180270000D03*
D13*
X120240000Y-175480000D03*
X120240000Y-180560000D03*
D12*
X127150000Y-180270000D03*
X133650000Y-175770000D03*
X127150000Y-175770000D03*
X133650000Y-180270000D03*
D13*
X130400000Y-175480000D03*
X130400000Y-180560000D03*
D12*
X137310000Y-180270000D03*
X143810000Y-175770000D03*
X137310000Y-175770000D03*
X143810000Y-180270000D03*
D13*
X140560000Y-175480000D03*
X140560000Y-180560000D03*
D12*
X66190000Y-190430000D03*
X72690000Y-185930000D03*
X66190000Y-185930000D03*
X72690000Y-190430000D03*
D13*
X69440000Y-185640000D03*
X69440000Y-190720000D03*
D12*
X76350000Y-190430000D03*
X82850000Y-185930000D03*
X76350000Y-185930000D03*
X82850000Y-190430000D03*
D13*
X79600000Y-185640000D03*
X79600000Y-190720000D03*
D12*
X86510000Y-190430000D03*
X93010000Y-185930000D03*
X86510000Y-185930000D03*
X93010000Y-190430000D03*
D13*
X89760000Y-185640000D03*
X89760000Y-190720000D03*
D12*
X96670000Y-190430000D03*
X103170000Y-185930000D03*
X96670000Y-185930000D03*
X103170000Y-190430000D03*
D13*
X99920000Y-185640000D03*
X99920000Y-190720000D03*
D12*
X106830000Y-190430000D03*
X113330000Y-185930000D03*
X106830000Y-185930000D03*
X113330000Y-190430000D03*
D13*
X110080000Y-185640000D03*
X110080000Y-190720000D03*
D12*
X116990000Y-190430000D03*
X123490000Y-185930000D03*
X116990000Y-185930000D03*
X123490000Y-190430000D03*
D13*
X120240000Y-185640000D03*
X120240000Y-190720000D03*
D12*
X127150000Y-190430000D03*
X133650000Y-185930000D03*
X127150000Y-185930000D03*
X133650000Y-190430000D03*
D13*
X130400000Y-185640000D03*
X130400000Y-190720000D03*
D12*
X137310000Y-190430000D03*
X143810000Y-185930000D03*
X137310000Y-185930000D03*
X143810000Y-190430000D03*
D13*
X140560000Y-185640000D03*
X140560000Y-190720000D03*
D12*
X106830000Y-129470000D03*
X113330000Y-124970000D03*
X106830000Y-124970000D03*
X113330000Y-129470000D03*
D13*
X110080000Y-124680000D03*
X110080000Y-129760000D03*
D12*
X96670000Y-139630000D03*
X103170000Y-135130000D03*
X96670000Y-135130000D03*
X103170000Y-139630000D03*
D13*
X99920000Y-134840000D03*
X99920000Y-139920000D03*
D15*
X58010000Y-176750000D03*
X58010000Y-179290000D03*
X60550000Y-176750000D03*
X60550000Y-179290000D03*
X63090000Y-176750000D03*
X63090000Y-179290000D03*
X58010000Y-181830000D03*
X58010000Y-184370000D03*
X63090000Y-181830000D03*
X63090000Y-184370000D03*
X60550000Y-181830000D03*
X60550000Y-184370000D03*
X58010000Y-171670000D03*
X58010000Y-174210000D03*
X60550000Y-171670000D03*
X60550000Y-174210000D03*
X63090000Y-171670000D03*
X63090000Y-174210000D03*
X63090000Y-151350000D03*
X63090000Y-153890000D03*
X60550000Y-151350000D03*
X60550000Y-153890000D03*
X58010000Y-151350000D03*
X58010000Y-153890000D03*
X58010000Y-146270000D03*
X58010000Y-148810000D03*
X60550000Y-146270000D03*
X60550000Y-148810000D03*
X63090000Y-146270000D03*
X63090000Y-148810000D03*
X63090000Y-158970000D03*
X63090000Y-161510000D03*
X60550000Y-158970000D03*
X60550000Y-161510000D03*
X58010000Y-158970000D03*
X58010000Y-161510000D03*
X58010000Y-164050000D03*
X58010000Y-166590000D03*
X60550000Y-164050000D03*
X60550000Y-166590000D03*
X63090000Y-164050000D03*
X63090000Y-166590000D03*
X63090000Y-120870000D03*
X63090000Y-123410000D03*
X60550000Y-120870000D03*
X60550000Y-123410000D03*
X58010000Y-120870000D03*
X58010000Y-123410000D03*
X65630000Y-103090000D03*
X65630000Y-105630000D03*
X63090000Y-108170000D03*
X63090000Y-110710000D03*
X60550000Y-108170000D03*
X60550000Y-110710000D03*
X58010000Y-108170000D03*
X58010000Y-110710000D03*
X58010000Y-113250000D03*
X58010000Y-115790000D03*
X60550000Y-113250000D03*
X60550000Y-115790000D03*
X63090000Y-113250000D03*
X63090000Y-115790000D03*
X63090000Y-133570000D03*
X63090000Y-136110000D03*
X60550000Y-133570000D03*
X60550000Y-136110000D03*
X58010000Y-133570000D03*
X58010000Y-136110000D03*
X58010000Y-125950000D03*
X58010000Y-128490000D03*
X60550000Y-125950000D03*
X60550000Y-128490000D03*
X63090000Y-125950000D03*
X63090000Y-128490000D03*
X63090000Y-138650000D03*
X63090000Y-141190000D03*
X60550000Y-138650000D03*
X60550000Y-141190000D03*
X58010000Y-138650000D03*
X58010000Y-141190000D03*
X151990000Y-146270000D03*
X151990000Y-148810000D03*
X149450000Y-146270000D03*
X149450000Y-148810000D03*
X146910000Y-146270000D03*
X146910000Y-148810000D03*
X146910000Y-138650000D03*
X146910000Y-141190000D03*
X149450000Y-138650000D03*
X149450000Y-141190000D03*
X151990000Y-138650000D03*
X151990000Y-141190000D03*
X146910000Y-133570000D03*
X146910000Y-136110000D03*
X149450000Y-133570000D03*
X149450000Y-136110000D03*
X151990000Y-133570000D03*
X151990000Y-136110000D03*
X151990000Y-113250000D03*
X151990000Y-115790000D03*
X149450000Y-113250000D03*
X149450000Y-115790000D03*
X146910000Y-113250000D03*
X146910000Y-115790000D03*
X146910000Y-108170000D03*
X146910000Y-110710000D03*
X149450000Y-108170000D03*
X149450000Y-110710000D03*
X151990000Y-108170000D03*
X151990000Y-110710000D03*
X151990000Y-120870000D03*
X151990000Y-123410000D03*
X149450000Y-120870000D03*
X149450000Y-123410000D03*
X146910000Y-120870000D03*
X146910000Y-123410000D03*
X146910000Y-125950000D03*
X146910000Y-128490000D03*
X149450000Y-125950000D03*
X149450000Y-128490000D03*
X151990000Y-125950000D03*
X151990000Y-128490000D03*
X151990000Y-164050000D03*
X151990000Y-166590000D03*
X149450000Y-164050000D03*
X149450000Y-166590000D03*
X146910000Y-164050000D03*
X146910000Y-166590000D03*
X146910000Y-158970000D03*
X146910000Y-161510000D03*
X149450000Y-158970000D03*
X149450000Y-161510000D03*
X151990000Y-158970000D03*
X151990000Y-161510000D03*
X151990000Y-151350000D03*
X151990000Y-153890000D03*
X149450000Y-151350000D03*
X149450000Y-153890000D03*
X146910000Y-151350000D03*
X146910000Y-153890000D03*
X151990000Y-176750000D03*
X151990000Y-179290000D03*
X149450000Y-176750000D03*
X149450000Y-179290000D03*
X146910000Y-176750000D03*
X146910000Y-179290000D03*
X146910000Y-171670000D03*
X146910000Y-174210000D03*
X149450000Y-171670000D03*
X149450000Y-174210000D03*
X151990000Y-171670000D03*
X151990000Y-174210000D03*
X151990000Y-181830000D03*
X151990000Y-184370000D03*
X149450000Y-181830000D03*
X149450000Y-184370000D03*
X146910000Y-181830000D03*
X146910000Y-184370000D03*
X141830000Y-110710000D03*
X144370000Y-110710000D03*
X65630000Y-108170000D03*
X68170000Y-108170000D03*
X70710000Y-108170000D03*
X73250000Y-108170000D03*
X80870000Y-110710000D03*
X83410000Y-110710000D03*
X80870000Y-108170000D03*
X83410000Y-108170000D03*
X75790000Y-110710000D03*
X78330000Y-110710000D03*
X65630000Y-110710000D03*
X68170000Y-110710000D03*
X70710000Y-110710000D03*
X73250000Y-110710000D03*
X75790000Y-108170000D03*
X78330000Y-108170000D03*
X106270000Y-108170000D03*
X108810000Y-108170000D03*
X101190000Y-110710000D03*
X103730000Y-110710000D03*
X101190000Y-108170000D03*
X103730000Y-108170000D03*
X106270000Y-110710000D03*
X108810000Y-110710000D03*
X111350000Y-108170000D03*
X113890000Y-108170000D03*
X111350000Y-110710000D03*
X113890000Y-110710000D03*
X96110000Y-110710000D03*
X98650000Y-110710000D03*
X96110000Y-108170000D03*
X98650000Y-108170000D03*
X91030000Y-110710000D03*
X93570000Y-110710000D03*
X85950000Y-108170000D03*
X88490000Y-108170000D03*
X85950000Y-110710000D03*
X88490000Y-110710000D03*
X91030000Y-108170000D03*
X93570000Y-108170000D03*
X121510000Y-108170000D03*
X124050000Y-108170000D03*
X116430000Y-110710000D03*
X118970000Y-110710000D03*
X116430000Y-108170000D03*
X118970000Y-108170000D03*
X121510000Y-110710000D03*
X124050000Y-110710000D03*
X126590000Y-108170000D03*
X129130000Y-108170000D03*
X126590000Y-110710000D03*
X129130000Y-110710000D03*
X141830000Y-108170000D03*
X144370000Y-108170000D03*
X136750000Y-110710000D03*
X139290000Y-110710000D03*
X131670000Y-108170000D03*
X134210000Y-108170000D03*
X131670000Y-110710000D03*
X134210000Y-110710000D03*
X136750000Y-108170000D03*
X139290000Y-108170000D03*
X139290000Y-103090000D03*
X139290000Y-105630000D03*
X136750000Y-103090000D03*
X136750000Y-105630000D03*
X134210000Y-103090000D03*
X134210000Y-105630000D03*
X141830000Y-103090000D03*
X141830000Y-105630000D03*
X144370000Y-103090000D03*
X144370000Y-105630000D03*
X131670000Y-103090000D03*
X131670000Y-105630000D03*
X129130000Y-103090000D03*
X129130000Y-105630000D03*
X126590000Y-103090000D03*
X126590000Y-105630000D03*
X121510000Y-103090000D03*
X121510000Y-105630000D03*
X124050000Y-103090000D03*
X124050000Y-105630000D03*
X93570000Y-103090000D03*
X93570000Y-105630000D03*
X91030000Y-103090000D03*
X91030000Y-105630000D03*
X88490000Y-103090000D03*
X88490000Y-105630000D03*
X96110000Y-103090000D03*
X96110000Y-105630000D03*
X98650000Y-103090000D03*
X98650000Y-105630000D03*
X101190000Y-103090000D03*
X101190000Y-105630000D03*
X116430000Y-103090000D03*
X116430000Y-105630000D03*
X113890000Y-103090000D03*
X113890000Y-105630000D03*
X111350000Y-103090000D03*
X111350000Y-105630000D03*
X103730000Y-103090000D03*
X103730000Y-105630000D03*
X106270000Y-103090000D03*
X106270000Y-105630000D03*
X108810000Y-103090000D03*
X108810000Y-105630000D03*
X78330000Y-103090000D03*
X78330000Y-105630000D03*
X75790000Y-103090000D03*
X75790000Y-105630000D03*
X73250000Y-103090000D03*
X73250000Y-105630000D03*
X80870000Y-103090000D03*
X80870000Y-105630000D03*
X83410000Y-103090000D03*
X83410000Y-105630000D03*
X85950000Y-103090000D03*
X85950000Y-105630000D03*
X70710000Y-103090000D03*
X70710000Y-105630000D03*
X68170000Y-103090000D03*
X68170000Y-105630000D03*
X118970000Y-103090000D03*
X118970000Y-105630000D03*
X106270000Y-100550000D03*
X108810000Y-100550000D03*
X111350000Y-100550000D03*
X113890000Y-100550000D03*
X116430000Y-100550000D03*
X118970000Y-100550000D03*
X121510000Y-100550000D03*
X124050000Y-100550000D03*
X144370000Y-100550000D03*
X141830000Y-100550000D03*
X139290000Y-100550000D03*
X136750000Y-100550000D03*
X134210000Y-100550000D03*
X131670000Y-100550000D03*
X129130000Y-100550000D03*
X126590000Y-100550000D03*
X83410000Y-100550000D03*
X80870000Y-100550000D03*
X78330000Y-100550000D03*
X75790000Y-100550000D03*
X73250000Y-100550000D03*
X70710000Y-100550000D03*
X68170000Y-100550000D03*
X65630000Y-100550000D03*
X85950000Y-100550000D03*
X88490000Y-100550000D03*
X91030000Y-100550000D03*
X93570000Y-100550000D03*
X96110000Y-100550000D03*
X98650000Y-100550000D03*
X101190000Y-100550000D03*
X103730000Y-100550000D03*
X60550000Y-169130000D03*
X63090000Y-169130000D03*
X58010000Y-169130000D03*
X60550000Y-156430000D03*
X63090000Y-156430000D03*
X58010000Y-156430000D03*
X60550000Y-118330000D03*
X63090000Y-118330000D03*
X58010000Y-118330000D03*
X60550000Y-105630000D03*
X63090000Y-105630000D03*
X58010000Y-105630000D03*
X60550000Y-143730000D03*
X63090000Y-143730000D03*
X58010000Y-143730000D03*
X60550000Y-131030000D03*
X63090000Y-131030000D03*
X58010000Y-131030000D03*
X149450000Y-105630000D03*
X151990000Y-105630000D03*
X146910000Y-105630000D03*
X149450000Y-118330000D03*
X151990000Y-118330000D03*
X146910000Y-118330000D03*
X149450000Y-169130000D03*
X151990000Y-169130000D03*
X146910000Y-169130000D03*
X149450000Y-156430000D03*
X151990000Y-156430000D03*
X146910000Y-156430000D03*
X149450000Y-131030000D03*
X151990000Y-131030000D03*
X146910000Y-131030000D03*
X149450000Y-143730000D03*
X151990000Y-143730000D03*
X146910000Y-143730000D03*
M02*
