M48
INCH,TZ
T1C0.012
T2C0.020
T3C0.031
T4C0.039
%
G90
G05
T1
X28248Y-50650
X28346Y-51004
X28346Y-52265
X28600Y-31700
X28600Y-34900
X28600Y-43100
X28600Y-78300
X28760Y-51043
X28799Y-46220
X29000Y-53000
X29000Y-57000
X29000Y-61000
X29000Y-65000
X29000Y-69000
X29000Y-73000
X29000Y-77000
X29173Y-52265
X29272Y-44508
X29272Y-47992
X30157Y-51811
X30453Y-47323
X31043Y-48150
X31240Y-36555
X31240Y-40591
X31398Y-54173
X31654Y-46890
X31988Y-51161
X32000Y-53000
X32000Y-57000
X32000Y-61000
X32000Y-65000
X32000Y-69000
X32000Y-69000
X32000Y-73000
X32000Y-77000
X32087Y-40433
X32146Y-49843
X32146Y-50472
X32244Y-36949
X32362Y-44469
X32441Y-34272
X32618Y-51831
X32835Y-50453
X32874Y-44213
X32874Y-48504
X32874Y-49823
X33071Y-39783
X33110Y-38780
X33110Y-39252
X33248Y-47126
X33287Y-46280
X33346Y-37461
X33661Y-47087
X33720Y-45492
X33740Y-46713
X33996Y-32854
X34016Y-51831
X34134Y-45413
X34232Y-47106
X34291Y-41220
X34409Y-42402
X34512Y-54496
X34803Y-32854
X34921Y-47146
X35020Y-45413
X35276Y-40748
X35512Y-40354
X35512Y-44232
X35650Y-41220
X35689Y-37441
X35689Y-38307
X35689Y-38780
X35689Y-39252
X35689Y-39783
X35748Y-47047
X35807Y-32854
X35906Y-46713
X36000Y-53000
X36000Y-61000
X36220Y-35039
X36359Y-37087
X36417Y-38780
X36417Y-39783
X36417Y-51339
X36437Y-41220
X36693Y-44213
X36811Y-32854
X36811Y-45276
X36890Y-40354
X36909Y-47598
X36969Y-34803
X36969Y-37461
X37000Y-65000
X37000Y-69000
X37000Y-69000
X37000Y-73000
X37000Y-77000
X37067Y-38307
X37067Y-39252
X37067Y-42697
X37126Y-50157
X37165Y-45906
X37165Y-49803
X37185Y-48524
X37205Y-46673
X37382Y-44547
X37420Y-44016
X37441Y-40709
X37579Y-51496
X37717Y-36555
X37756Y-34567
X37776Y-41240
X37776Y-43406
X37795Y-32835
X37795Y-37795
X37795Y-38780
X37795Y-39783
X38091Y-44370
X38110Y-32559
X38228Y-37520
X38228Y-38307
X38228Y-39252
X38228Y-41102
X38228Y-42205
X38228Y-43091
X38425Y-45315
X38425Y-46220
X38425Y-47126
X38425Y-48031
X38425Y-48937
X38425Y-49882
X38504Y-34331
X38701Y-36732
X38740Y-37441
X38740Y-38307
X38740Y-38780
X38740Y-39252
X38740Y-39764
X38740Y-41102
X38740Y-42402
X38740Y-43189
X38878Y-32913
X38898Y-44980
X39173Y-51654
X39193Y-46457
X39213Y-36732
X39213Y-37795
X39213Y-38307
X39213Y-38780
X39213Y-39252
X39213Y-39764
X39213Y-41102
X39213Y-42402
X39213Y-43110
X39213Y-43701
X39213Y-47657
X39213Y-49173
X39213Y-50591
X39528Y-45276
X39685Y-33740
X39685Y-36732
X39685Y-37441
X39685Y-38307
X39685Y-38780
X39685Y-39252
X39685Y-39764
X39685Y-41102
X39685Y-42402
X39685Y-43189
X39685Y-43701
X39705Y-47520
X40000Y-45512
X40000Y-53000
X40000Y-61000
X40157Y-35531
X40157Y-36732
X40157Y-37795
X40157Y-38307
X40157Y-38780
X40157Y-39252
X40157Y-39764
X40157Y-41102
X40157Y-42402
X40157Y-43110
X40157Y-43701
X40453Y-51752
X40531Y-47224
X40551Y-45728
X40650Y-43701
X40669Y-34803
X40669Y-35531
X40669Y-36732
X40669Y-37441
X40669Y-38780
X40669Y-39764
X40669Y-41102
X40669Y-43189
X40669Y-44370
X40669Y-47559
X40807Y-46713
X40827Y-45453
X40906Y-50394
X40955Y-42402
X40965Y-38307
X40965Y-39252
X40965Y-51319
X40984Y-43465
X41004Y-46969
X41043Y-46476
X41142Y-50630
X41201Y-48150
X41299Y-44016
X41319Y-46201
X41457Y-47126
X41555Y-45984
X41663Y-45089
X41683Y-43120
X41693Y-37795
X41693Y-38780
X41693Y-39783
X41693Y-46575
X41713Y-50630
X41929Y-49193
X42000Y-65000
X42000Y-69000
X42000Y-69000
X42000Y-73000
X42000Y-77000
X42008Y-41142
X42165Y-44360
X42165Y-47402
X42283Y-49449
X42323Y-38307
X42323Y-39252
X42333Y-42402
X42372Y-51585
X42441Y-54469
X42579Y-48169
X42677Y-37087
X42717Y-49370
X42795Y-50630
X42835Y-46831
X43061Y-43120
X43071Y-37795
X43071Y-38307
X43071Y-38780
X43110Y-50512
X43150Y-46850
X43268Y-43809
X43317Y-45640
X43327Y-39252
X43346Y-39783
X43346Y-40984
X43346Y-42402
X43500Y-52850
X43622Y-39488
X43780Y-45807
X43809Y-38780
X43858Y-39774
X43858Y-40906
X43858Y-42402
X43858Y-43524
X43858Y-44547
X43858Y-45276
X43996Y-46033
X44000Y-61000
X44016Y-34232
X44094Y-39016
X44094Y-47008
X44154Y-47520
X44203Y-46270
X44281Y-38317
X44331Y-39291
X44331Y-40827
X44331Y-42402
X44331Y-43100
X44331Y-44085
X44331Y-45778
X44370Y-50512
X44409Y-46506
X44409Y-48445
X44409Y-49252
X44409Y-50157
X44449Y-36043
X44567Y-38543
X44803Y-37795
X44803Y-38809
X44803Y-40630
X44803Y-42402
X44803Y-43612
X44803Y-45758
X44823Y-46496
X44843Y-51654
X45039Y-38071
X45157Y-47539
X45315Y-40433
X45315Y-42402
X45315Y-45787
X45315Y-50453
X45325Y-43120
X45335Y-38307
X45433Y-46260
X45728Y-46516
X45728Y-47539
X45807Y-48996
X45925Y-45984
X45925Y-47008
X46181Y-39803
X46181Y-51516
X46201Y-37638
X46201Y-42402
X46281Y-47638
X46319Y-36555
X46378Y-50453
X46654Y-46516
X46919Y-43120
X46939Y-36939
X47000Y-65000
X47000Y-69000
X47000Y-69000
X47000Y-73000
X47000Y-77000
X47156Y-51348
X47244Y-39803
X47283Y-45984
X47283Y-47008
X47300Y-53150
X47303Y-48169
X47579Y-42402
X47776Y-49016
X48000Y-61000
X48012Y-45984
X48012Y-46516
X48012Y-48307
X48110Y-35531
X48287Y-43130
X48307Y-37461
X48307Y-39803
X48307Y-51191
X48366Y-49724
X48386Y-34823
X48500Y-57150
X48819Y-36220
X48858Y-50433
X48898Y-44567
X49508Y-42402
X49528Y-43110
X49528Y-45984
X49528Y-47008
X49803Y-36220
X49803Y-38504
X49803Y-46772
X49803Y-51417
X49843Y-38150
X49850Y-56900
X50039Y-39715
X50039Y-41713
X50039Y-43110
X50039Y-45984
X50039Y-46516
X50276Y-38976
X50276Y-47244
X50561Y-39360
X50571Y-40846
X50571Y-43110
X50610Y-50157
X50650Y-47283
X50846Y-45984
X50846Y-46535
X50846Y-48169
X50906Y-38740
X50925Y-42362
X51181Y-49882
X51555Y-48287
X51594Y-42146
X51693Y-47283
X51752Y-36949
X51831Y-49311
X51988Y-43287
X51998Y-39508
X52000Y-53000
X52000Y-57000
X52000Y-61000
X52000Y-65000
X52000Y-69000
X52000Y-69000
X52000Y-73000
X52000Y-77000
X52047Y-45984
X52087Y-50630
X52224Y-46535
X52224Y-48150
X52283Y-48661
X52559Y-47638
X52756Y-36535
X52756Y-41063
X52933Y-44055
X52933Y-45984
X52933Y-46555
X53000Y-79000
X53327Y-42165
X53465Y-43583
X53543Y-49882
X54232Y-46752
X54528Y-43583
X54567Y-50709
X54606Y-49882
X54744Y-49055
X55000Y-53000
X55000Y-57000
X55000Y-61000
X55000Y-65000
X55000Y-69000
X55000Y-73000
X55000Y-77000
X55000Y-82500
X55315Y-46260
X55400Y-31700
X55400Y-34900
X55650Y-49055
X55669Y-43858
X56673Y-48169
T2
X30984Y-28543
X30984Y-81457
X53031Y-28543
X53031Y-81457
T3
X32000Y-52000
X32000Y-54000
X32000Y-56000
X32000Y-58000
X32000Y-60000
X32000Y-62000
X32000Y-64000
X32000Y-66000
X32000Y-68000
X32000Y-70000
X32000Y-72000
X32000Y-74000
X32000Y-76000
X32000Y-78000
X32508Y-31949
X32508Y-50949
X33508Y-31949
X33508Y-50949
X34508Y-31949
X34508Y-50949
X35508Y-31949
X36000Y-52000
X36000Y-54000
X36000Y-56000
X36000Y-58000
X36000Y-60000
X36000Y-62000
X36508Y-31949
X37000Y-64000
X37000Y-66000
X37000Y-68000
X37000Y-70000
X37000Y-72000
X37000Y-74000
X37000Y-76000
X37000Y-78000
X37508Y-31949
X38508Y-31949
X39508Y-31949
X40000Y-52000
X40000Y-54000
X40000Y-56000
X40000Y-58000
X40000Y-60000
X40000Y-62000
X40508Y-31949
X41508Y-31949
X42000Y-64000
X42000Y-66000
X42000Y-68000
X42000Y-70000
X42000Y-72000
X42000Y-74000
X42000Y-76000
X42000Y-78000
X42508Y-31949
X43508Y-31949
X44000Y-52000
X44000Y-54000
X44000Y-56000
X44000Y-58000
X44000Y-60000
X44000Y-62000
X44508Y-31949
X45508Y-31949
X46508Y-31949
X47000Y-64000
X47000Y-66000
X47000Y-68000
X47000Y-70000
X47000Y-72000
X47000Y-74000
X47000Y-76000
X47000Y-78000
X47508Y-31949
X48000Y-52000
X48000Y-54000
X48000Y-56000
X48000Y-58000
X48000Y-60000
X48000Y-62000
X48508Y-31949
X49508Y-31949
X49508Y-50949
X50508Y-31949
X50508Y-50949
X51508Y-31949
X51508Y-50949
X52000Y-52000
X52000Y-54000
X52000Y-56000
X52000Y-58000
X52000Y-60000
X52000Y-62000
X52000Y-64000
X52000Y-66000
X52000Y-68000
X52000Y-70000
X52000Y-72000
X52000Y-74000
X52000Y-76000
X52000Y-78000
X53724Y-45260
X53724Y-46260
X53724Y-47260
X54724Y-45260
X54724Y-45260
X54724Y-46260
X54724Y-46260
X54724Y-47260
X54724Y-47260
T4
X30720Y-52114
X30720Y-53886
X30720Y-56114
X30720Y-57886
X30720Y-60114
X30720Y-61886
X30720Y-64114
X30720Y-65886
X30720Y-68114
X30720Y-69886
X30720Y-72114
X30720Y-73886
X30720Y-76114
X30720Y-77886
X31500Y-38000
X31500Y-39000
X31500Y-40000
X32500Y-38000
X32500Y-39000
X32500Y-40000
X33280Y-52114
X33280Y-53886
X33280Y-56114
X33280Y-57886
X33280Y-60114
X33280Y-61886
X33280Y-64114
X33280Y-65886
X33280Y-68114
X33280Y-69886
X33280Y-72114
X33280Y-73886
X33280Y-76114
X33280Y-77886
X34720Y-52114
X34720Y-53886
X34720Y-56114
X34720Y-57886
X34720Y-60114
X34720Y-61886
X35720Y-64114
X35720Y-65886
X35720Y-68114
X35720Y-69886
X35720Y-72114
X35720Y-73886
X35720Y-76114
X35720Y-77886
X37280Y-52114
X37280Y-53886
X37280Y-56114
X37280Y-57886
X37280Y-60114
X37280Y-61886
X38280Y-64114
X38280Y-65886
X38280Y-68114
X38280Y-69886
X38280Y-72114
X38280Y-73886
X38280Y-76114
X38280Y-77886
X38720Y-52114
X38720Y-53886
X38720Y-56114
X38720Y-57886
X38720Y-60114
X38720Y-61886
X40720Y-64114
X40720Y-65886
X40720Y-68114
X40720Y-69886
X40720Y-72114
X40720Y-73886
X40720Y-76114
X40720Y-77886
X41280Y-52114
X41280Y-53886
X41280Y-56114
X41280Y-57886
X41280Y-60114
X41280Y-61886
X42720Y-52114
X42720Y-53886
X42720Y-56114
X42720Y-57886
X42720Y-60114
X42720Y-61886
X43280Y-64114
X43280Y-65886
X43280Y-68114
X43280Y-69886
X43280Y-72114
X43280Y-73886
X43280Y-76114
X43280Y-77886
X45280Y-52114
X45280Y-53886
X45280Y-56114
X45280Y-57886
X45280Y-60114
X45280Y-61886
X45720Y-64114
X45720Y-65886
X45720Y-68114
X45720Y-69886
X45720Y-72114
X45720Y-73886
X45720Y-76114
X45720Y-77886
X46720Y-52114
X46720Y-53886
X46720Y-56114
X46720Y-57886
X46720Y-60114
X46720Y-61886
X48280Y-64114
X48280Y-65886
X48280Y-68114
X48280Y-69886
X48280Y-72114
X48280Y-73886
X48280Y-76114
X48280Y-77886
X49280Y-52114
X49280Y-53886
X49280Y-56114
X49280Y-57886
X49280Y-60114
X49280Y-61886
X50720Y-52114
X50720Y-53886
X50720Y-56114
X50720Y-57886
X50720Y-60114
X50720Y-61886
X50720Y-64114
X50720Y-65886
X50720Y-68114
X50720Y-69886
X50720Y-72114
X50720Y-73886
X50720Y-76114
X50720Y-77886
X51500Y-38000
X51500Y-39000
X51500Y-40000
X52500Y-38000
X52500Y-39000
X52500Y-40000
X53280Y-52114
X53280Y-53886
X53280Y-56114
X53280Y-57886
X53280Y-60114
X53280Y-61886
X53280Y-64114
X53280Y-65886
X53280Y-68114
X53280Y-69886
X53280Y-72114
X53280Y-73886
X53280Y-76114
X53280Y-77886
T0
M30
