G04 (created by PCBNEW (2013-07-07 BZR 4022)-stable) date 1/4/2015 6:38:21 PM*
%MOIN*%
G04 Gerber Fmt 3.4, Leading zero omitted, Abs format*
%FSLAX34Y34*%
G01*
G70*
G90*
G04 APERTURE LIST*
%ADD10C,0.00590551*%
%ADD11C,0.011811*%
%ADD12C,0.00629921*%
%ADD13C,0.019685*%
%ADD14C,0.00787402*%
G04 APERTURE END LIST*
G54D10*
G54D11*
X27567Y-52691D02*
X27595Y-52606D01*
X27623Y-52578D01*
X27679Y-52550D01*
X27764Y-52550D01*
X27820Y-52578D01*
X27848Y-52606D01*
X27876Y-52663D01*
X27876Y-52888D01*
X27286Y-52888D01*
X27286Y-52691D01*
X27314Y-52634D01*
X27342Y-52606D01*
X27398Y-52578D01*
X27455Y-52578D01*
X27511Y-52606D01*
X27539Y-52634D01*
X27567Y-52691D01*
X27567Y-52888D01*
X27286Y-52297D02*
X27764Y-52297D01*
X27820Y-52269D01*
X27848Y-52241D01*
X27876Y-52185D01*
X27876Y-52072D01*
X27848Y-52016D01*
X27820Y-51988D01*
X27764Y-51960D01*
X27286Y-51960D01*
X27848Y-51706D02*
X27876Y-51622D01*
X27876Y-51482D01*
X27848Y-51425D01*
X27820Y-51397D01*
X27764Y-51369D01*
X27708Y-51369D01*
X27651Y-51397D01*
X27623Y-51425D01*
X27595Y-51482D01*
X27567Y-51594D01*
X27539Y-51650D01*
X27511Y-51678D01*
X27455Y-51706D01*
X27398Y-51706D01*
X27342Y-51678D01*
X27314Y-51650D01*
X27286Y-51594D01*
X27286Y-51453D01*
X27314Y-51369D01*
X27595Y-51003D02*
X27876Y-51003D01*
X27286Y-51200D02*
X27595Y-51003D01*
X27286Y-50807D01*
G54D12*
X41168Y-51265D02*
X41412Y-51265D01*
X41281Y-51415D01*
X41337Y-51415D01*
X41374Y-51434D01*
X41393Y-51453D01*
X41412Y-51490D01*
X41412Y-51584D01*
X41393Y-51621D01*
X41374Y-51640D01*
X41337Y-51659D01*
X41225Y-51659D01*
X41187Y-51640D01*
X41168Y-51621D01*
X37374Y-51396D02*
X37374Y-51659D01*
X37281Y-51246D02*
X37187Y-51528D01*
X37431Y-51528D01*
X30203Y-53684D02*
X30165Y-53665D01*
X30109Y-53665D01*
X30053Y-53684D01*
X30015Y-53721D01*
X29996Y-53759D01*
X29978Y-53834D01*
X29978Y-53890D01*
X29996Y-53965D01*
X30015Y-54003D01*
X30053Y-54040D01*
X30109Y-54059D01*
X30146Y-54059D01*
X30203Y-54040D01*
X30221Y-54021D01*
X30221Y-53890D01*
X30146Y-53890D01*
X53281Y-51265D02*
X53318Y-51265D01*
X53356Y-51284D01*
X53374Y-51303D01*
X53393Y-51340D01*
X53412Y-51415D01*
X53412Y-51509D01*
X53393Y-51584D01*
X53374Y-51621D01*
X53356Y-51640D01*
X53318Y-51659D01*
X53281Y-51659D01*
X53243Y-51640D01*
X53225Y-51621D01*
X53206Y-51584D01*
X53187Y-51509D01*
X53187Y-51415D01*
X53206Y-51340D01*
X53225Y-51303D01*
X53243Y-51284D01*
X53281Y-51265D01*
X29996Y-66059D02*
X29996Y-65665D01*
X30090Y-65665D01*
X30146Y-65684D01*
X30184Y-65721D01*
X30203Y-65759D01*
X30221Y-65834D01*
X30221Y-65890D01*
X30203Y-65965D01*
X30184Y-66003D01*
X30146Y-66040D01*
X30090Y-66059D01*
X29996Y-66059D01*
X30221Y-70021D02*
X30203Y-70040D01*
X30146Y-70059D01*
X30109Y-70059D01*
X30053Y-70040D01*
X30015Y-70003D01*
X29996Y-69965D01*
X29978Y-69890D01*
X29978Y-69834D01*
X29996Y-69759D01*
X30015Y-69721D01*
X30053Y-69684D01*
X30109Y-69665D01*
X30146Y-69665D01*
X30203Y-69684D01*
X30221Y-69703D01*
X30006Y-77946D02*
X30193Y-77946D01*
X29968Y-78059D02*
X30100Y-77665D01*
X30231Y-78059D01*
X30128Y-72053D02*
X30184Y-72071D01*
X30203Y-72090D01*
X30221Y-72128D01*
X30221Y-72184D01*
X30203Y-72221D01*
X30184Y-72240D01*
X30146Y-72259D01*
X29996Y-72259D01*
X29996Y-71865D01*
X30128Y-71865D01*
X30165Y-71884D01*
X30184Y-71903D01*
X30203Y-71940D01*
X30203Y-71978D01*
X30184Y-72015D01*
X30165Y-72034D01*
X30128Y-72053D01*
X29996Y-72053D01*
X30156Y-57853D02*
X30025Y-57853D01*
X30025Y-58059D02*
X30025Y-57665D01*
X30212Y-57665D01*
X30015Y-61853D02*
X30146Y-61853D01*
X30203Y-62059D02*
X30015Y-62059D01*
X30015Y-61665D01*
X30203Y-61665D01*
X33393Y-51265D02*
X33206Y-51265D01*
X33187Y-51453D01*
X33206Y-51434D01*
X33243Y-51415D01*
X33337Y-51415D01*
X33374Y-51434D01*
X33393Y-51453D01*
X33412Y-51490D01*
X33412Y-51584D01*
X33393Y-51621D01*
X33374Y-51640D01*
X33337Y-51659D01*
X33243Y-51659D01*
X33206Y-51640D01*
X33187Y-51621D01*
X45187Y-51303D02*
X45206Y-51284D01*
X45243Y-51265D01*
X45337Y-51265D01*
X45374Y-51284D01*
X45393Y-51303D01*
X45412Y-51340D01*
X45412Y-51378D01*
X45393Y-51434D01*
X45168Y-51659D01*
X45412Y-51659D01*
X49412Y-51659D02*
X49187Y-51659D01*
X49300Y-51659D02*
X49300Y-51265D01*
X49262Y-51321D01*
X49225Y-51359D01*
X49187Y-51378D01*
X48412Y-78759D02*
X48187Y-78759D01*
X48300Y-78759D02*
X48300Y-78365D01*
X48262Y-78421D01*
X48225Y-78459D01*
X48187Y-78478D01*
X43187Y-78403D02*
X43206Y-78384D01*
X43243Y-78365D01*
X43337Y-78365D01*
X43374Y-78384D01*
X43393Y-78403D01*
X43412Y-78440D01*
X43412Y-78478D01*
X43393Y-78534D01*
X43168Y-78759D01*
X43412Y-78759D01*
X53815Y-61853D02*
X53946Y-61853D01*
X54003Y-62059D02*
X53815Y-62059D01*
X53815Y-61665D01*
X54003Y-61665D01*
X53956Y-57853D02*
X53825Y-57853D01*
X53825Y-58059D02*
X53825Y-57665D01*
X54012Y-57665D01*
X53928Y-73853D02*
X53984Y-73871D01*
X54003Y-73890D01*
X54021Y-73928D01*
X54021Y-73984D01*
X54003Y-74021D01*
X53984Y-74040D01*
X53946Y-74059D01*
X53796Y-74059D01*
X53796Y-73665D01*
X53928Y-73665D01*
X53965Y-73684D01*
X53984Y-73703D01*
X54003Y-73740D01*
X54003Y-73778D01*
X53984Y-73815D01*
X53965Y-73834D01*
X53928Y-73853D01*
X53796Y-73853D01*
X53806Y-77946D02*
X53993Y-77946D01*
X53768Y-78059D02*
X53900Y-77665D01*
X54031Y-78059D01*
X54021Y-70021D02*
X54003Y-70040D01*
X53946Y-70059D01*
X53909Y-70059D01*
X53853Y-70040D01*
X53815Y-70003D01*
X53796Y-69965D01*
X53778Y-69890D01*
X53778Y-69834D01*
X53796Y-69759D01*
X53815Y-69721D01*
X53853Y-69684D01*
X53909Y-69665D01*
X53946Y-69665D01*
X54003Y-69684D01*
X54021Y-69703D01*
X53796Y-66059D02*
X53796Y-65665D01*
X53890Y-65665D01*
X53946Y-65684D01*
X53984Y-65721D01*
X54003Y-65759D01*
X54021Y-65834D01*
X54021Y-65890D01*
X54003Y-65965D01*
X53984Y-66003D01*
X53946Y-66040D01*
X53890Y-66059D01*
X53796Y-66059D01*
X53281Y-78365D02*
X53318Y-78365D01*
X53356Y-78384D01*
X53374Y-78403D01*
X53393Y-78440D01*
X53412Y-78515D01*
X53412Y-78609D01*
X53393Y-78684D01*
X53374Y-78721D01*
X53356Y-78740D01*
X53318Y-78759D01*
X53281Y-78759D01*
X53243Y-78740D01*
X53225Y-78721D01*
X53206Y-78684D01*
X53187Y-78609D01*
X53187Y-78515D01*
X53206Y-78440D01*
X53225Y-78403D01*
X53243Y-78384D01*
X53281Y-78365D01*
X54003Y-53684D02*
X53965Y-53665D01*
X53909Y-53665D01*
X53853Y-53684D01*
X53815Y-53721D01*
X53796Y-53759D01*
X53778Y-53834D01*
X53778Y-53890D01*
X53796Y-53965D01*
X53815Y-54003D01*
X53853Y-54040D01*
X53909Y-54059D01*
X53946Y-54059D01*
X54003Y-54040D01*
X54021Y-54021D01*
X54021Y-53890D01*
X53946Y-53890D01*
X33374Y-78496D02*
X33374Y-78759D01*
X33281Y-78346D02*
X33187Y-78628D01*
X33431Y-78628D01*
X38168Y-78365D02*
X38412Y-78365D01*
X38281Y-78515D01*
X38337Y-78515D01*
X38374Y-78534D01*
X38393Y-78553D01*
X38412Y-78590D01*
X38412Y-78684D01*
X38393Y-78721D01*
X38374Y-78740D01*
X38337Y-78759D01*
X38225Y-78759D01*
X38187Y-78740D01*
X38168Y-78721D01*
X53623Y-37604D02*
X53623Y-37829D01*
X53623Y-37716D02*
X53230Y-37716D01*
X53286Y-37754D01*
X53323Y-37791D01*
X53342Y-37829D01*
X30391Y-40388D02*
X30391Y-40163D01*
X30391Y-40275D02*
X30785Y-40275D01*
X30729Y-40238D01*
X30691Y-40200D01*
X30673Y-40163D01*
G54D13*
X53250Y-83046D02*
X54749Y-83046D01*
X29250Y-27046D02*
X30749Y-27046D01*
X29250Y-83046D02*
X30749Y-83046D01*
X30000Y-83796D02*
X30000Y-82296D01*
X53250Y-27046D02*
X54749Y-27046D01*
X54000Y-27796D02*
X54000Y-26296D01*
G54D11*
X27837Y-47173D02*
X27556Y-47370D01*
X27837Y-47511D02*
X27246Y-47511D01*
X27246Y-47286D01*
X27275Y-47230D01*
X27303Y-47201D01*
X27359Y-47173D01*
X27443Y-47173D01*
X27500Y-47201D01*
X27528Y-47230D01*
X27556Y-47286D01*
X27556Y-47511D01*
X27246Y-46976D02*
X27837Y-46583D01*
X27246Y-46583D02*
X27837Y-46976D01*
X27218Y-45936D02*
X27978Y-46442D01*
X27246Y-45823D02*
X27246Y-45486D01*
X27837Y-45655D02*
X27246Y-45655D01*
X27246Y-45345D02*
X27837Y-44952D01*
X27246Y-44952D02*
X27837Y-45345D01*
X29929Y-53211D02*
X29929Y-53014D01*
X30239Y-52930D02*
X30239Y-53211D01*
X29648Y-53211D01*
X29648Y-52930D01*
X30239Y-52339D02*
X29957Y-52536D01*
X30239Y-52677D02*
X29648Y-52677D01*
X29648Y-52452D01*
X29676Y-52395D01*
X29704Y-52367D01*
X29760Y-52339D01*
X29845Y-52339D01*
X29901Y-52367D01*
X29929Y-52395D01*
X29957Y-52452D01*
X29957Y-52677D01*
X30239Y-51749D02*
X29957Y-51946D01*
X30239Y-52086D02*
X29648Y-52086D01*
X29648Y-51861D01*
X29676Y-51805D01*
X29704Y-51777D01*
X29760Y-51749D01*
X29845Y-51749D01*
X29901Y-51777D01*
X29929Y-51805D01*
X29957Y-51861D01*
X29957Y-52086D01*
X29648Y-51383D02*
X29648Y-51271D01*
X29676Y-51214D01*
X29732Y-51158D01*
X29845Y-51130D01*
X30042Y-51130D01*
X30154Y-51158D01*
X30210Y-51214D01*
X30239Y-51271D01*
X30239Y-51383D01*
X30210Y-51439D01*
X30154Y-51496D01*
X30042Y-51524D01*
X29845Y-51524D01*
X29732Y-51496D01*
X29676Y-51439D01*
X29648Y-51383D01*
X30239Y-50539D02*
X29957Y-50736D01*
X30239Y-50877D02*
X29648Y-50877D01*
X29648Y-50652D01*
X29676Y-50596D01*
X29704Y-50568D01*
X29760Y-50539D01*
X29845Y-50539D01*
X29901Y-50568D01*
X29929Y-50596D01*
X29957Y-50652D01*
X29957Y-50877D01*
G54D13*
X27352Y-36060D02*
X27493Y-36107D01*
X27727Y-36107D01*
X27821Y-36060D01*
X27868Y-36013D01*
X27915Y-35919D01*
X27915Y-35825D01*
X27868Y-35732D01*
X27821Y-35685D01*
X27727Y-35638D01*
X27540Y-35591D01*
X27446Y-35544D01*
X27399Y-35497D01*
X27352Y-35404D01*
X27352Y-35310D01*
X27399Y-35216D01*
X27446Y-35169D01*
X27540Y-35122D01*
X27774Y-35122D01*
X27915Y-35169D01*
X28337Y-36107D02*
X28337Y-35122D01*
X28712Y-35122D01*
X28805Y-35169D01*
X28852Y-35216D01*
X28899Y-35310D01*
X28899Y-35450D01*
X28852Y-35544D01*
X28805Y-35591D01*
X28712Y-35638D01*
X28337Y-35638D01*
X29321Y-36107D02*
X29321Y-35122D01*
X54358Y-35591D02*
X54499Y-35638D01*
X54546Y-35685D01*
X54593Y-35778D01*
X54593Y-35919D01*
X54546Y-36013D01*
X54499Y-36060D01*
X54405Y-36107D01*
X54030Y-36107D01*
X54030Y-35122D01*
X54358Y-35122D01*
X54452Y-35169D01*
X54499Y-35216D01*
X54546Y-35310D01*
X54546Y-35404D01*
X54499Y-35497D01*
X54452Y-35544D01*
X54358Y-35591D01*
X54030Y-35591D01*
X55014Y-36107D02*
X55014Y-35122D01*
X55249Y-35122D01*
X55389Y-35169D01*
X55483Y-35263D01*
X55530Y-35357D01*
X55577Y-35544D01*
X55577Y-35685D01*
X55530Y-35872D01*
X55483Y-35966D01*
X55389Y-36060D01*
X55249Y-36107D01*
X55014Y-36107D01*
X55999Y-36107D02*
X55999Y-35122D01*
X56327Y-35825D01*
X56655Y-35122D01*
X56655Y-36107D01*
X55249Y-48390D02*
X55436Y-48390D01*
X55530Y-48437D01*
X55624Y-48531D01*
X55671Y-48718D01*
X55671Y-49046D01*
X55624Y-49234D01*
X55530Y-49327D01*
X55436Y-49374D01*
X55249Y-49374D01*
X55155Y-49327D01*
X55061Y-49234D01*
X55014Y-49046D01*
X55014Y-48718D01*
X55061Y-48531D01*
X55155Y-48437D01*
X55249Y-48390D01*
X56092Y-49374D02*
X56092Y-48390D01*
X56655Y-49374D01*
X56655Y-48390D01*
X54553Y-43154D02*
X54741Y-43154D01*
X54835Y-43201D01*
X54928Y-43294D01*
X54975Y-43482D01*
X54975Y-43810D01*
X54928Y-43997D01*
X54835Y-44091D01*
X54741Y-44138D01*
X54553Y-44138D01*
X54460Y-44091D01*
X54366Y-43997D01*
X54319Y-43810D01*
X54319Y-43482D01*
X54366Y-43294D01*
X54460Y-43201D01*
X54553Y-43154D01*
X55725Y-43622D02*
X55397Y-43622D01*
X55397Y-44138D02*
X55397Y-43154D01*
X55866Y-43154D01*
X56569Y-43622D02*
X56241Y-43622D01*
X56241Y-44138D02*
X56241Y-43154D01*
X56709Y-43154D01*
G54D14*
X46122Y-41102D02*
X46122Y-40314D01*
X47519Y-40708D02*
X46968Y-40708D01*
X47086Y-40984D02*
X47086Y-40472D01*
X47244Y-40767D02*
X47244Y-40649D01*
X47302Y-40590D02*
X47302Y-40826D01*
X47362Y-40944D02*
X47362Y-40472D01*
X47362Y-40472D02*
X47126Y-40708D01*
X47126Y-40708D02*
X47362Y-40944D01*
X35610Y-44409D02*
X35610Y-43622D01*
X37007Y-44015D02*
X36456Y-44015D01*
X36574Y-44291D02*
X36574Y-43779D01*
X36732Y-44075D02*
X36732Y-43957D01*
X36790Y-43897D02*
X36790Y-44133D01*
X36850Y-44251D02*
X36850Y-43779D01*
X36850Y-43779D02*
X36614Y-44015D01*
X36614Y-44015D02*
X36850Y-44251D01*
X53011Y-47244D02*
X53011Y-48031D01*
X51614Y-47637D02*
X52165Y-47637D01*
X52047Y-47362D02*
X52047Y-47874D01*
X51889Y-47578D02*
X51889Y-47696D01*
X51831Y-47755D02*
X51831Y-47519D01*
X51771Y-47401D02*
X51771Y-47873D01*
X51771Y-47873D02*
X52007Y-47637D01*
X52007Y-47637D02*
X51771Y-47401D01*
X45846Y-48031D02*
X45846Y-47244D01*
X47244Y-47637D02*
X46692Y-47637D01*
X46811Y-47913D02*
X46811Y-47401D01*
X46968Y-47697D02*
X46968Y-47579D01*
X47027Y-47519D02*
X47027Y-47755D01*
X47086Y-47873D02*
X47086Y-47401D01*
X47086Y-47401D02*
X46850Y-47637D01*
X46850Y-47637D02*
X47086Y-47873D01*
X43129Y-47244D02*
X43129Y-48031D01*
X41732Y-47637D02*
X42283Y-47637D01*
X42165Y-47362D02*
X42165Y-47874D01*
X42007Y-47578D02*
X42007Y-47696D01*
X41949Y-47755D02*
X41949Y-47519D01*
X41889Y-47401D02*
X41889Y-47873D01*
X41889Y-47873D02*
X42125Y-47637D01*
X42125Y-47637D02*
X41889Y-47401D01*
X35925Y-48031D02*
X35925Y-47244D01*
X37322Y-47637D02*
X36771Y-47637D01*
X36889Y-47913D02*
X36889Y-47401D01*
X37047Y-47697D02*
X37047Y-47579D01*
X37105Y-47519D02*
X37105Y-47755D01*
X37165Y-47873D02*
X37165Y-47401D01*
X37165Y-47401D02*
X36929Y-47637D01*
X36929Y-47637D02*
X37165Y-47873D01*
X33248Y-47244D02*
X33248Y-48031D01*
X31850Y-47637D02*
X32401Y-47637D01*
X32283Y-47362D02*
X32283Y-47874D01*
X32125Y-47578D02*
X32125Y-47696D01*
X32067Y-47755D02*
X32067Y-47519D01*
X32007Y-47401D02*
X32007Y-47873D01*
X32007Y-47873D02*
X32243Y-47637D01*
X32243Y-47637D02*
X32007Y-47401D01*
X52952Y-43484D02*
X52165Y-43484D01*
X52559Y-42086D02*
X52559Y-42637D01*
X52834Y-42519D02*
X52322Y-42519D01*
X52618Y-42362D02*
X52500Y-42362D01*
X52441Y-42303D02*
X52677Y-42303D01*
X52795Y-42244D02*
X52323Y-42244D01*
X52323Y-42244D02*
X52559Y-42480D01*
X52559Y-42480D02*
X52795Y-42244D01*
X43129Y-40314D02*
X43129Y-41102D01*
X41732Y-40708D02*
X42283Y-40708D01*
X42165Y-40433D02*
X42165Y-40944D01*
X42007Y-40649D02*
X42007Y-40767D01*
X41949Y-40826D02*
X41949Y-40590D01*
X41889Y-40472D02*
X41889Y-40944D01*
X41889Y-40944D02*
X42125Y-40708D01*
X42125Y-40708D02*
X41889Y-40472D01*
X35610Y-41102D02*
X35610Y-40314D01*
X37007Y-40708D02*
X36456Y-40708D01*
X36574Y-40984D02*
X36574Y-40472D01*
X36732Y-40767D02*
X36732Y-40649D01*
X36790Y-40590D02*
X36790Y-40826D01*
X36850Y-40944D02*
X36850Y-40472D01*
X36850Y-40472D02*
X36614Y-40708D01*
X36614Y-40708D02*
X36850Y-40944D01*
X31811Y-43484D02*
X31023Y-43484D01*
X31417Y-42086D02*
X31417Y-42637D01*
X31692Y-42519D02*
X31181Y-42519D01*
X31476Y-42362D02*
X31358Y-42362D01*
X31299Y-42303D02*
X31535Y-42303D01*
X31653Y-42244D02*
X31181Y-42244D01*
X31181Y-42244D02*
X31417Y-42480D01*
X31417Y-42480D02*
X31653Y-42244D01*
X53011Y-36692D02*
X53011Y-37480D01*
X51614Y-37086D02*
X52165Y-37086D01*
X52047Y-36811D02*
X52047Y-37322D01*
X51889Y-37027D02*
X51889Y-37145D01*
X51831Y-37204D02*
X51831Y-36968D01*
X51771Y-36850D02*
X51771Y-37322D01*
X51771Y-37322D02*
X52007Y-37086D01*
X52007Y-37086D02*
X51771Y-36850D01*
X45846Y-37480D02*
X45846Y-36692D01*
X47244Y-37086D02*
X46692Y-37086D01*
X46811Y-37362D02*
X46811Y-36850D01*
X46968Y-37145D02*
X46968Y-37027D01*
X47027Y-36968D02*
X47027Y-37204D01*
X47086Y-37322D02*
X47086Y-36850D01*
X47086Y-36850D02*
X46850Y-37086D01*
X46850Y-37086D02*
X47086Y-37322D01*
X43129Y-36692D02*
X43129Y-37480D01*
X41732Y-37086D02*
X42283Y-37086D01*
X42165Y-36811D02*
X42165Y-37322D01*
X42007Y-37027D02*
X42007Y-37145D01*
X41949Y-37204D02*
X41949Y-36968D01*
X41889Y-36850D02*
X41889Y-37322D01*
X41889Y-37322D02*
X42125Y-37086D01*
X42125Y-37086D02*
X41889Y-36850D01*
X35925Y-37480D02*
X35925Y-36692D01*
X37322Y-37086D02*
X36771Y-37086D01*
X36889Y-37362D02*
X36889Y-36850D01*
X37047Y-37145D02*
X37047Y-37027D01*
X37105Y-36968D02*
X37105Y-37204D01*
X37165Y-37322D02*
X37165Y-36850D01*
X37165Y-36850D02*
X36929Y-37086D01*
X36929Y-37086D02*
X37165Y-37322D01*
X33248Y-36692D02*
X33248Y-37480D01*
X31850Y-37086D02*
X32401Y-37086D01*
X32283Y-36811D02*
X32283Y-37322D01*
X32125Y-37027D02*
X32125Y-37145D01*
X32067Y-37204D02*
X32067Y-36968D01*
X32007Y-36850D02*
X32007Y-37322D01*
X32007Y-37322D02*
X32243Y-37086D01*
X32243Y-37086D02*
X32007Y-36850D01*
X43129Y-43622D02*
X43129Y-44409D01*
X41732Y-44015D02*
X42283Y-44015D01*
X42165Y-43740D02*
X42165Y-44251D01*
X42007Y-43956D02*
X42007Y-44074D01*
X41949Y-44133D02*
X41949Y-43897D01*
X41889Y-43779D02*
X41889Y-44251D01*
X41889Y-44251D02*
X42125Y-44015D01*
X42125Y-44015D02*
X41889Y-43779D01*
X46122Y-44409D02*
X46122Y-43622D01*
X47519Y-44015D02*
X46968Y-44015D01*
X47086Y-44291D02*
X47086Y-43779D01*
X47244Y-44075D02*
X47244Y-43957D01*
X47302Y-43897D02*
X47302Y-44133D01*
X47362Y-44251D02*
X47362Y-43779D01*
X47362Y-43779D02*
X47126Y-44015D01*
X47126Y-44015D02*
X47362Y-44251D01*
X28681Y-47047D02*
X28011Y-47047D01*
X28011Y-51102D02*
X28681Y-51102D01*
X28838Y-51102D02*
X29507Y-51102D01*
X41606Y-73000D02*
X41488Y-73000D01*
X41724Y-73000D02*
X41842Y-73000D01*
X41488Y-73236D02*
X41488Y-72763D01*
X42000Y-73314D02*
X41724Y-72685D01*
X42000Y-72370D02*
X42000Y-72685D01*
X42000Y-73629D02*
X42000Y-73314D01*
X41606Y-77000D02*
X41488Y-77000D01*
X41724Y-77000D02*
X41842Y-77000D01*
X41488Y-77236D02*
X41488Y-76763D01*
X42000Y-77314D02*
X41724Y-76685D01*
X42000Y-76370D02*
X42000Y-76685D01*
X42000Y-77629D02*
X42000Y-77314D01*
X36606Y-77000D02*
X36488Y-77000D01*
X36724Y-77000D02*
X36842Y-77000D01*
X36488Y-77236D02*
X36488Y-76763D01*
X37000Y-77314D02*
X36724Y-76685D01*
X37000Y-76370D02*
X37000Y-76685D01*
X37000Y-77629D02*
X37000Y-77314D01*
X31606Y-77000D02*
X31488Y-77000D01*
X31724Y-77000D02*
X31842Y-77000D01*
X31488Y-77236D02*
X31488Y-76763D01*
X32000Y-77314D02*
X31724Y-76685D01*
X32000Y-76370D02*
X32000Y-76685D01*
X32000Y-77629D02*
X32000Y-77314D01*
X31606Y-53000D02*
X31488Y-53000D01*
X31724Y-53000D02*
X31842Y-53000D01*
X31488Y-53236D02*
X31488Y-52763D01*
X32000Y-53314D02*
X31724Y-52685D01*
X32000Y-52370D02*
X32000Y-52685D01*
X32000Y-53629D02*
X32000Y-53314D01*
X36606Y-69000D02*
X36488Y-69000D01*
X36724Y-69000D02*
X36842Y-69000D01*
X36488Y-69236D02*
X36488Y-68763D01*
X37000Y-69314D02*
X36724Y-68685D01*
X37000Y-68370D02*
X37000Y-68685D01*
X37000Y-69629D02*
X37000Y-69314D01*
X36606Y-65000D02*
X36488Y-65000D01*
X36724Y-65000D02*
X36842Y-65000D01*
X36488Y-65236D02*
X36488Y-64763D01*
X37000Y-65314D02*
X36724Y-64685D01*
X37000Y-64370D02*
X37000Y-64685D01*
X37000Y-65629D02*
X37000Y-65314D01*
X39606Y-61000D02*
X39488Y-61000D01*
X39724Y-61000D02*
X39842Y-61000D01*
X39488Y-61236D02*
X39488Y-60763D01*
X40000Y-61314D02*
X39724Y-60685D01*
X40000Y-60370D02*
X40000Y-60685D01*
X40000Y-61629D02*
X40000Y-61314D01*
X31606Y-73000D02*
X31488Y-73000D01*
X31724Y-73000D02*
X31842Y-73000D01*
X31488Y-73236D02*
X31488Y-72763D01*
X32000Y-73314D02*
X31724Y-72685D01*
X32000Y-72370D02*
X32000Y-72685D01*
X32000Y-73629D02*
X32000Y-73314D01*
X31606Y-69000D02*
X31488Y-69000D01*
X31724Y-69000D02*
X31842Y-69000D01*
X31488Y-69236D02*
X31488Y-68763D01*
X32000Y-69314D02*
X31724Y-68685D01*
X32000Y-68370D02*
X32000Y-68685D01*
X32000Y-69629D02*
X32000Y-69314D01*
X36606Y-73000D02*
X36488Y-73000D01*
X36724Y-73000D02*
X36842Y-73000D01*
X36488Y-73236D02*
X36488Y-72763D01*
X37000Y-73314D02*
X36724Y-72685D01*
X37000Y-72370D02*
X37000Y-72685D01*
X37000Y-73629D02*
X37000Y-73314D01*
X35606Y-53000D02*
X35488Y-53000D01*
X35724Y-53000D02*
X35842Y-53000D01*
X35488Y-53236D02*
X35488Y-52763D01*
X36000Y-53314D02*
X35724Y-52685D01*
X36000Y-52370D02*
X36000Y-52685D01*
X36000Y-53629D02*
X36000Y-53314D01*
X39606Y-53000D02*
X39488Y-53000D01*
X39724Y-53000D02*
X39842Y-53000D01*
X39488Y-53236D02*
X39488Y-52763D01*
X40000Y-53314D02*
X39724Y-52685D01*
X40000Y-52370D02*
X40000Y-52685D01*
X40000Y-53629D02*
X40000Y-53314D01*
X47606Y-57000D02*
X47488Y-57000D01*
X47724Y-57000D02*
X47842Y-57000D01*
X47488Y-57236D02*
X47488Y-56763D01*
X48000Y-57314D02*
X47724Y-56685D01*
X48000Y-56370D02*
X48000Y-56685D01*
X48000Y-57629D02*
X48000Y-57314D01*
X47606Y-61000D02*
X47488Y-61000D01*
X47724Y-61000D02*
X47842Y-61000D01*
X47488Y-61236D02*
X47488Y-60763D01*
X48000Y-61314D02*
X47724Y-60685D01*
X48000Y-60370D02*
X48000Y-60685D01*
X48000Y-61629D02*
X48000Y-61314D01*
X46606Y-65000D02*
X46488Y-65000D01*
X46724Y-65000D02*
X46842Y-65000D01*
X46488Y-65236D02*
X46488Y-64763D01*
X47000Y-65314D02*
X46724Y-64685D01*
X47000Y-64370D02*
X47000Y-64685D01*
X47000Y-65629D02*
X47000Y-65314D01*
X41606Y-69000D02*
X41488Y-69000D01*
X41724Y-69000D02*
X41842Y-69000D01*
X41488Y-69236D02*
X41488Y-68763D01*
X42000Y-69314D02*
X41724Y-68685D01*
X42000Y-68370D02*
X42000Y-68685D01*
X42000Y-69629D02*
X42000Y-69314D01*
X31606Y-65000D02*
X31488Y-65000D01*
X31724Y-65000D02*
X31842Y-65000D01*
X31488Y-65236D02*
X31488Y-64763D01*
X32000Y-65314D02*
X31724Y-64685D01*
X32000Y-64370D02*
X32000Y-64685D01*
X32000Y-65629D02*
X32000Y-65314D01*
X41606Y-65000D02*
X41488Y-65000D01*
X41724Y-65000D02*
X41842Y-65000D01*
X41488Y-65236D02*
X41488Y-64763D01*
X42000Y-65314D02*
X41724Y-64685D01*
X42000Y-64370D02*
X42000Y-64685D01*
X42000Y-65629D02*
X42000Y-65314D01*
X43606Y-61000D02*
X43488Y-61000D01*
X43724Y-61000D02*
X43842Y-61000D01*
X43488Y-61236D02*
X43488Y-60763D01*
X44000Y-61314D02*
X43724Y-60685D01*
X44000Y-60370D02*
X44000Y-60685D01*
X44000Y-61629D02*
X44000Y-61314D01*
X43606Y-57000D02*
X43488Y-57000D01*
X43724Y-57000D02*
X43842Y-57000D01*
X43488Y-57236D02*
X43488Y-56763D01*
X44000Y-57314D02*
X43724Y-56685D01*
X44000Y-56370D02*
X44000Y-56685D01*
X44000Y-57629D02*
X44000Y-57314D01*
X46606Y-77000D02*
X46488Y-77000D01*
X46724Y-77000D02*
X46842Y-77000D01*
X46488Y-77236D02*
X46488Y-76763D01*
X47000Y-77314D02*
X46724Y-76685D01*
X47000Y-76370D02*
X47000Y-76685D01*
X47000Y-77629D02*
X47000Y-77314D01*
X46606Y-69000D02*
X46488Y-69000D01*
X46724Y-69000D02*
X46842Y-69000D01*
X46488Y-69236D02*
X46488Y-68763D01*
X47000Y-69314D02*
X46724Y-68685D01*
X47000Y-68370D02*
X47000Y-68685D01*
X47000Y-69629D02*
X47000Y-69314D01*
X46606Y-73000D02*
X46488Y-73000D01*
X46724Y-73000D02*
X46842Y-73000D01*
X46488Y-73236D02*
X46488Y-72763D01*
X47000Y-73314D02*
X46724Y-72685D01*
X47000Y-72370D02*
X47000Y-72685D01*
X47000Y-73629D02*
X47000Y-73314D01*
X43606Y-53000D02*
X43488Y-53000D01*
X43724Y-53000D02*
X43842Y-53000D01*
X43488Y-53236D02*
X43488Y-52763D01*
X44000Y-53314D02*
X43724Y-52685D01*
X44000Y-52370D02*
X44000Y-52685D01*
X44000Y-53629D02*
X44000Y-53314D01*
X51606Y-77000D02*
X51488Y-77000D01*
X51724Y-77000D02*
X51842Y-77000D01*
X51488Y-77236D02*
X51488Y-76763D01*
X52000Y-77314D02*
X51724Y-76685D01*
X52000Y-76370D02*
X52000Y-76685D01*
X52000Y-77629D02*
X52000Y-77314D01*
X51606Y-73000D02*
X51488Y-73000D01*
X51724Y-73000D02*
X51842Y-73000D01*
X51488Y-73236D02*
X51488Y-72763D01*
X52000Y-73314D02*
X51724Y-72685D01*
X52000Y-72370D02*
X52000Y-72685D01*
X52000Y-73629D02*
X52000Y-73314D01*
X51606Y-69000D02*
X51488Y-69000D01*
X51724Y-69000D02*
X51842Y-69000D01*
X51488Y-69236D02*
X51488Y-68763D01*
X52000Y-69314D02*
X51724Y-68685D01*
X52000Y-68370D02*
X52000Y-68685D01*
X52000Y-69629D02*
X52000Y-69314D01*
X51606Y-65000D02*
X51488Y-65000D01*
X51724Y-65000D02*
X51842Y-65000D01*
X51488Y-65236D02*
X51488Y-64763D01*
X52000Y-65314D02*
X51724Y-64685D01*
X52000Y-64370D02*
X52000Y-64685D01*
X52000Y-65629D02*
X52000Y-65314D01*
X51606Y-61000D02*
X51488Y-61000D01*
X51724Y-61000D02*
X51842Y-61000D01*
X51488Y-61236D02*
X51488Y-60763D01*
X52000Y-61314D02*
X51724Y-60685D01*
X52000Y-60370D02*
X52000Y-60685D01*
X52000Y-61629D02*
X52000Y-61314D01*
X51606Y-53000D02*
X51488Y-53000D01*
X51724Y-53000D02*
X51842Y-53000D01*
X51488Y-53236D02*
X51488Y-52763D01*
X52000Y-53314D02*
X51724Y-52685D01*
X52000Y-52370D02*
X52000Y-52685D01*
X52000Y-53629D02*
X52000Y-53314D01*
X51606Y-57000D02*
X51488Y-57000D01*
X51724Y-57000D02*
X51842Y-57000D01*
X51488Y-57236D02*
X51488Y-56763D01*
X52000Y-57314D02*
X51724Y-56685D01*
X52000Y-56370D02*
X52000Y-56685D01*
X52000Y-57629D02*
X52000Y-57314D01*
X39606Y-57000D02*
X39488Y-57000D01*
X39724Y-57000D02*
X39842Y-57000D01*
X39488Y-57236D02*
X39488Y-56763D01*
X40000Y-57314D02*
X39724Y-56685D01*
X40000Y-56370D02*
X40000Y-56685D01*
X40000Y-57629D02*
X40000Y-57314D01*
X35606Y-57000D02*
X35488Y-57000D01*
X35724Y-57000D02*
X35842Y-57000D01*
X35488Y-57236D02*
X35488Y-56763D01*
X36000Y-57314D02*
X35724Y-56685D01*
X36000Y-56370D02*
X36000Y-56685D01*
X36000Y-57629D02*
X36000Y-57314D01*
X35606Y-61000D02*
X35488Y-61000D01*
X35724Y-61000D02*
X35842Y-61000D01*
X35488Y-61236D02*
X35488Y-60763D01*
X36000Y-61314D02*
X35724Y-60685D01*
X36000Y-60370D02*
X36000Y-60685D01*
X36000Y-61629D02*
X36000Y-61314D01*
X31606Y-61000D02*
X31488Y-61000D01*
X31724Y-61000D02*
X31842Y-61000D01*
X31488Y-61236D02*
X31488Y-60763D01*
X32000Y-61314D02*
X31724Y-60685D01*
X32000Y-60370D02*
X32000Y-60685D01*
X32000Y-61629D02*
X32000Y-61314D01*
X47606Y-53000D02*
X47488Y-53000D01*
X47724Y-53000D02*
X47842Y-53000D01*
X47488Y-53236D02*
X47488Y-52763D01*
X48000Y-53314D02*
X47724Y-52685D01*
X48000Y-52370D02*
X48000Y-52685D01*
X48000Y-53629D02*
X48000Y-53314D01*
X31606Y-57000D02*
X31488Y-57000D01*
X31724Y-57000D02*
X31842Y-57000D01*
X31488Y-57236D02*
X31488Y-56763D01*
X32000Y-57314D02*
X31724Y-56685D01*
X32000Y-56370D02*
X32000Y-56685D01*
X32000Y-57629D02*
X32000Y-57314D01*
M02*
