G04 (created by PCBNEW (2013-07-07 BZR 4022)-stable) date 12/4/2014 9:46:18 PM*
%MOIN*%
G04 Gerber Fmt 3.4, Leading zero omitted, Abs format*
%FSLAX34Y34*%
G01*
G70*
G90*
G04 APERTURE LIST*
%ADD10C,0.00590551*%
%ADD11R,0.059X0.059*%
%ADD12R,0.0472X0.0472*%
%ADD13R,0.0708661X0.0708661*%
%ADD14C,0.0708661*%
%ADD15C,0.0629921*%
%ADD16C,0.0354*%
%ADD17C,0.0787402*%
%ADD18R,0.11811X0.19685*%
%ADD19C,0.133858*%
%ADD20C,0.00393701*%
G04 APERTURE END LIST*
G54D10*
G54D11*
X47932Y-40708D03*
X46556Y-40708D03*
X37420Y-44015D03*
X36044Y-44015D03*
X51201Y-47637D03*
X52577Y-47637D03*
X47656Y-47637D03*
X46280Y-47637D03*
X41319Y-47637D03*
X42695Y-47637D03*
X37735Y-47637D03*
X36359Y-47637D03*
X31437Y-47637D03*
X32813Y-47637D03*
X52559Y-41674D03*
X52559Y-43050D03*
X41319Y-40708D03*
X42695Y-40708D03*
X37420Y-40708D03*
X36044Y-40708D03*
X31417Y-41674D03*
X31417Y-43050D03*
X51201Y-37086D03*
X52577Y-37086D03*
X47656Y-37086D03*
X46280Y-37086D03*
X41319Y-37086D03*
X42695Y-37086D03*
X37735Y-37086D03*
X36359Y-37086D03*
X31437Y-37086D03*
X32813Y-37086D03*
X41319Y-44015D03*
X42695Y-44015D03*
X47932Y-44015D03*
X46556Y-44015D03*
G54D12*
X28346Y-45846D03*
X28346Y-46672D03*
X28346Y-51476D03*
X28346Y-52302D03*
X29173Y-51476D03*
X29173Y-52302D03*
G54D13*
X52500Y-38000D03*
G54D14*
X51500Y-38000D03*
X52500Y-39000D03*
X51500Y-39000D03*
X52500Y-40000D03*
X51500Y-40000D03*
G54D13*
X31500Y-40000D03*
G54D14*
X32500Y-40000D03*
X31500Y-39000D03*
X32500Y-39000D03*
X31500Y-38000D03*
X32500Y-38000D03*
G54D15*
X53724Y-47259D03*
X53724Y-46259D03*
X53724Y-45259D03*
X54724Y-47259D03*
X54724Y-46259D03*
X54724Y-45259D03*
X54724Y-45259D03*
X54724Y-46259D03*
X54724Y-47259D03*
G54D16*
X29477Y-47124D03*
X29477Y-45393D03*
G54D17*
X43279Y-72114D03*
X40720Y-73885D03*
X43279Y-73885D03*
X40720Y-72114D03*
G54D15*
X42000Y-74000D03*
X42000Y-72000D03*
G54D17*
X43279Y-76114D03*
X40720Y-77885D03*
X43279Y-77885D03*
X40720Y-76114D03*
G54D15*
X42000Y-78000D03*
X42000Y-76000D03*
G54D17*
X38279Y-76114D03*
X35720Y-77885D03*
X38279Y-77885D03*
X35720Y-76114D03*
G54D15*
X37000Y-78000D03*
X37000Y-76000D03*
G54D17*
X33279Y-76114D03*
X30720Y-77885D03*
X33279Y-77885D03*
X30720Y-76114D03*
G54D15*
X32000Y-78000D03*
X32000Y-76000D03*
G54D17*
X33279Y-52114D03*
X30720Y-53885D03*
X33279Y-53885D03*
X30720Y-52114D03*
G54D15*
X32000Y-54000D03*
X32000Y-52000D03*
G54D17*
X38279Y-68114D03*
X35720Y-69885D03*
X38279Y-69885D03*
X35720Y-68114D03*
G54D15*
X37000Y-70000D03*
X37000Y-68000D03*
G54D17*
X38279Y-64114D03*
X35720Y-65885D03*
X38279Y-65885D03*
X35720Y-64114D03*
G54D15*
X37000Y-66000D03*
X37000Y-64000D03*
G54D17*
X41279Y-60114D03*
X38720Y-61885D03*
X41279Y-61885D03*
X38720Y-60114D03*
G54D15*
X40000Y-62000D03*
X40000Y-60000D03*
G54D17*
X33279Y-72114D03*
X30720Y-73885D03*
X33279Y-73885D03*
X30720Y-72114D03*
G54D15*
X32000Y-74000D03*
X32000Y-72000D03*
G54D17*
X33279Y-68114D03*
X30720Y-69885D03*
X33279Y-69885D03*
X30720Y-68114D03*
G54D15*
X32000Y-70000D03*
X32000Y-68000D03*
G54D17*
X38279Y-72114D03*
X35720Y-73885D03*
X38279Y-73885D03*
X35720Y-72114D03*
G54D15*
X37000Y-74000D03*
X37000Y-72000D03*
G54D17*
X37279Y-52114D03*
X34720Y-53885D03*
X37279Y-53885D03*
X34720Y-52114D03*
G54D15*
X36000Y-54000D03*
X36000Y-52000D03*
G54D17*
X41279Y-52114D03*
X38720Y-53885D03*
X41279Y-53885D03*
X38720Y-52114D03*
G54D15*
X40000Y-54000D03*
X40000Y-52000D03*
G54D17*
X49279Y-56114D03*
X46720Y-57885D03*
X49279Y-57885D03*
X46720Y-56114D03*
G54D15*
X48000Y-58000D03*
X48000Y-56000D03*
G54D17*
X49279Y-60114D03*
X46720Y-61885D03*
X49279Y-61885D03*
X46720Y-60114D03*
G54D15*
X48000Y-62000D03*
X48000Y-60000D03*
G54D17*
X48279Y-64114D03*
X45720Y-65885D03*
X48279Y-65885D03*
X45720Y-64114D03*
G54D15*
X47000Y-66000D03*
X47000Y-64000D03*
G54D17*
X43279Y-68114D03*
X40720Y-69885D03*
X43279Y-69885D03*
X40720Y-68114D03*
G54D15*
X42000Y-70000D03*
X42000Y-68000D03*
G54D17*
X33279Y-64114D03*
X30720Y-65885D03*
X33279Y-65885D03*
X30720Y-64114D03*
G54D15*
X32000Y-66000D03*
X32000Y-64000D03*
G54D17*
X43279Y-64114D03*
X40720Y-65885D03*
X43279Y-65885D03*
X40720Y-64114D03*
G54D15*
X42000Y-66000D03*
X42000Y-64000D03*
G54D17*
X45279Y-60114D03*
X42720Y-61885D03*
X45279Y-61885D03*
X42720Y-60114D03*
G54D15*
X44000Y-62000D03*
X44000Y-60000D03*
G54D17*
X45279Y-56114D03*
X42720Y-57885D03*
X45279Y-57885D03*
X42720Y-56114D03*
G54D15*
X44000Y-58000D03*
X44000Y-56000D03*
G54D17*
X48279Y-76114D03*
X45720Y-77885D03*
X48279Y-77885D03*
X45720Y-76114D03*
G54D15*
X47000Y-78000D03*
X47000Y-76000D03*
G54D17*
X48279Y-68114D03*
X45720Y-69885D03*
X48279Y-69885D03*
X45720Y-68114D03*
G54D15*
X47000Y-70000D03*
X47000Y-68000D03*
G54D17*
X48279Y-72114D03*
X45720Y-73885D03*
X48279Y-73885D03*
X45720Y-72114D03*
G54D15*
X47000Y-74000D03*
X47000Y-72000D03*
G54D17*
X45279Y-52114D03*
X42720Y-53885D03*
X45279Y-53885D03*
X42720Y-52114D03*
G54D15*
X44000Y-54000D03*
X44000Y-52000D03*
G54D17*
X53279Y-76114D03*
X50720Y-77885D03*
X53279Y-77885D03*
X50720Y-76114D03*
G54D15*
X52000Y-78000D03*
X52000Y-76000D03*
G54D17*
X53279Y-72114D03*
X50720Y-73885D03*
X53279Y-73885D03*
X50720Y-72114D03*
G54D15*
X52000Y-74000D03*
X52000Y-72000D03*
G54D17*
X53279Y-68114D03*
X50720Y-69885D03*
X53279Y-69885D03*
X50720Y-68114D03*
G54D15*
X52000Y-70000D03*
X52000Y-68000D03*
G54D17*
X53279Y-64114D03*
X50720Y-65885D03*
X53279Y-65885D03*
X50720Y-64114D03*
G54D15*
X52000Y-66000D03*
X52000Y-64000D03*
G54D17*
X53279Y-60114D03*
X50720Y-61885D03*
X53279Y-61885D03*
X50720Y-60114D03*
G54D15*
X52000Y-62000D03*
X52000Y-60000D03*
G54D17*
X53279Y-52114D03*
X50720Y-53885D03*
X53279Y-53885D03*
X50720Y-52114D03*
G54D15*
X52000Y-54000D03*
X52000Y-52000D03*
G54D17*
X53279Y-56114D03*
X50720Y-57885D03*
X53279Y-57885D03*
X50720Y-56114D03*
G54D15*
X52000Y-58000D03*
X52000Y-56000D03*
G54D17*
X41279Y-56114D03*
X38720Y-57885D03*
X41279Y-57885D03*
X38720Y-56114D03*
G54D15*
X40000Y-58000D03*
X40000Y-56000D03*
G54D17*
X37279Y-56114D03*
X34720Y-57885D03*
X37279Y-57885D03*
X34720Y-56114D03*
G54D15*
X36000Y-58000D03*
X36000Y-56000D03*
G54D17*
X37279Y-60114D03*
X34720Y-61885D03*
X37279Y-61885D03*
X34720Y-60114D03*
G54D15*
X36000Y-62000D03*
X36000Y-60000D03*
G54D17*
X33279Y-60114D03*
X30720Y-61885D03*
X33279Y-61885D03*
X30720Y-60114D03*
G54D15*
X32000Y-62000D03*
X32000Y-60000D03*
G54D17*
X49279Y-52114D03*
X46720Y-53885D03*
X49279Y-53885D03*
X46720Y-52114D03*
G54D15*
X48000Y-54000D03*
X48000Y-52000D03*
G54D17*
X33279Y-56114D03*
X30720Y-57885D03*
X33279Y-57885D03*
X30720Y-56114D03*
G54D15*
X32000Y-58000D03*
X32000Y-56000D03*
X51507Y-31948D03*
X50507Y-31948D03*
X49507Y-31948D03*
X48507Y-31948D03*
X47507Y-31948D03*
X46507Y-31948D03*
X45507Y-31948D03*
X44507Y-31948D03*
X43507Y-31948D03*
X42507Y-31948D03*
X41507Y-31948D03*
X40507Y-31948D03*
X39507Y-31948D03*
X38507Y-31948D03*
X37507Y-31948D03*
X36507Y-31948D03*
X35507Y-31948D03*
X34507Y-31948D03*
X33507Y-31948D03*
X32507Y-31948D03*
X51507Y-50948D03*
X50507Y-50948D03*
X49507Y-50948D03*
X32507Y-50948D03*
X33507Y-50948D03*
X34507Y-50948D03*
G54D18*
X31377Y-28543D03*
X52637Y-28543D03*
X52637Y-81456D03*
X31377Y-81456D03*
G54D19*
X29000Y-80000D03*
X55000Y-80000D03*
X29000Y-30000D03*
X55000Y-30000D03*
X29000Y-55000D03*
X55000Y-55000D03*
G54D10*
G36*
X56023Y-31574D02*
X55826Y-31574D01*
X55826Y-31417D01*
X56023Y-31417D01*
X56023Y-31574D01*
X56023Y-31574D01*
G37*
G54D20*
X56023Y-31574D02*
X55826Y-31574D01*
X55826Y-31417D01*
X56023Y-31417D01*
X56023Y-31574D01*
G54D10*
G36*
X28188Y-31574D02*
X27992Y-31574D01*
X27992Y-31417D01*
X28188Y-31417D01*
X28188Y-31574D01*
X28188Y-31574D01*
G37*
G54D20*
X28188Y-31574D02*
X27992Y-31574D01*
X27992Y-31417D01*
X28188Y-31417D01*
X28188Y-31574D01*
G54D10*
G36*
X28188Y-78582D02*
X27992Y-78582D01*
X27992Y-78425D01*
X28188Y-78425D01*
X28188Y-78582D01*
X28188Y-78582D01*
G37*
G54D20*
X28188Y-78582D02*
X27992Y-78582D01*
X27992Y-78425D01*
X28188Y-78425D01*
X28188Y-78582D01*
M02*
