M48
;DRILL file {Pcbnew (2013-07-07 BZR 4022)-stable} date 12/4/2014 9:36:15 PM
;FORMAT={-:-/ absolute / metric / decimal}
FMAT,2
METRIC,TZ
T1C0.300
T2C0.500
T3C0.800
T4C1.000
%
G90
G05
M71
T1
X71.75Y-128.65
X72.Y-129.55
X72.Y-132.752
X72.644Y-80.518
X72.644Y-88.646
X72.644Y-109.474
X72.644Y-198.882
X73.05Y-129.65
X73.15Y-117.4
X73.66Y-134.62
X73.66Y-144.78
X73.66Y-154.94
X73.66Y-165.1
X73.66Y-175.26
X73.66Y-185.42
X73.66Y-195.58
X74.1Y-132.752
X74.35Y-113.05
X74.35Y-121.9
X76.6Y-131.6
X77.35Y-120.2
X78.85Y-122.3
X79.35Y-92.85
X79.35Y-103.1
X79.75Y-137.6
X80.4Y-119.1
X81.25Y-129.95
X81.28Y-134.62
X81.28Y-144.78
X81.28Y-154.94
X81.28Y-165.1
X81.28Y-175.26
X81.28Y-175.26
X81.28Y-185.42
X81.28Y-195.58
X81.5Y-102.7
X81.65Y-126.6
X81.65Y-128.2
X81.9Y-93.85
X82.2Y-112.95
X82.4Y-87.05
X82.85Y-131.65
X83.4Y-128.15
X83.5Y-112.3
X83.5Y-123.2
X83.5Y-126.55
X84.Y-101.05
X84.1Y-98.5
X84.1Y-99.7
X84.45Y-119.7
X84.55Y-117.55
X84.7Y-95.15
X85.5Y-119.6
X85.65Y-115.55
X85.7Y-118.65
X86.35Y-83.45
X86.4Y-131.65
X86.7Y-115.35
X86.95Y-119.65
X87.1Y-104.7
X87.4Y-107.7
X87.66Y-138.42
X88.4Y-83.45
X88.7Y-119.75
X88.95Y-115.35
X89.6Y-103.5
X90.2Y-102.5
X90.2Y-112.35
X90.55Y-104.7
X90.65Y-95.1
X90.65Y-97.3
X90.65Y-98.5
X90.65Y-99.7
X90.65Y-101.05
X90.8Y-119.5
X90.95Y-83.45
X91.2Y-118.65
X91.44Y-134.62
X91.44Y-154.94
X92.Y-89.
X92.352Y-94.2
X92.5Y-98.5
X92.5Y-101.05
X92.5Y-130.4
X92.55Y-104.7
X93.2Y-112.3
X93.5Y-83.45
X93.5Y-115.
X93.7Y-102.5
X93.75Y-120.9
X93.9Y-88.4
X93.9Y-95.15
X93.98Y-165.1
X93.98Y-175.26
X93.98Y-175.26
X93.98Y-185.42
X93.98Y-195.58
X94.15Y-97.3
X94.15Y-99.7
X94.15Y-108.45
X94.3Y-127.4
X94.4Y-116.6
X94.4Y-126.5
X94.45Y-123.25
X94.5Y-118.55
X94.95Y-113.15
X95.048Y-111.8
X95.1Y-103.4
X95.45Y-130.8
X95.8Y-92.85
X95.9Y-87.8
X95.95Y-104.75
X95.95Y-110.25
X96.Y-83.4
X96.Y-96.
X96.Y-98.5
X96.Y-101.05
X96.75Y-112.7
X96.8Y-82.7
X97.1Y-95.3
X97.1Y-97.3
X97.1Y-99.7
X97.1Y-104.4
X97.1Y-107.2
X97.1Y-109.45
X97.6Y-115.1
X97.6Y-117.4
X97.6Y-119.7
X97.6Y-122.
X97.6Y-124.3
X97.6Y-126.7
X97.8Y-87.2
X98.3Y-93.3
X98.4Y-95.1
X98.4Y-97.3
X98.4Y-98.5
X98.4Y-99.7
X98.4Y-101.
X98.4Y-104.4
X98.4Y-107.7
X98.4Y-109.7
X98.75Y-83.6
X98.8Y-114.25
X99.5Y-131.2
X99.55Y-118.
X99.6Y-93.3
X99.6Y-96.
X99.6Y-97.3
X99.6Y-98.5
X99.6Y-99.7
X99.6Y-101.
X99.6Y-104.4
X99.6Y-107.7
X99.6Y-109.5
X99.6Y-111.
X99.6Y-121.05
X99.6Y-124.9
X99.6Y-128.5
X100.4Y-115.
X100.8Y-85.7
X100.8Y-93.3
X100.8Y-95.1
X100.8Y-97.3
X100.8Y-98.5
X100.8Y-99.7
X100.8Y-101.
X100.8Y-104.4
X100.8Y-107.7
X100.8Y-109.7
X100.8Y-111.
X100.85Y-120.7
X101.6Y-115.6
X101.6Y-134.62
X101.6Y-154.94
X102.Y-90.25
X102.Y-93.3
X102.Y-96.
X102.Y-97.3
X102.Y-98.5
X102.Y-99.7
X102.Y-101.
X102.Y-104.4
X102.Y-107.7
X102.Y-109.5
X102.Y-111.
X102.75Y-131.45
X102.95Y-119.95
X103.Y-116.15
X103.25Y-111.
X103.3Y-88.4
X103.3Y-90.25
X103.3Y-93.3
X103.3Y-95.1
X103.3Y-98.5
X103.3Y-101.
X103.3Y-104.4
X103.3Y-109.7
X103.3Y-112.7
X103.3Y-120.8
X103.65Y-118.65
X103.7Y-115.45
X103.9Y-128.
X104.025Y-107.7
X104.05Y-97.3
X104.05Y-99.7
X104.05Y-130.35
X104.1Y-110.4
X104.15Y-119.3
X104.25Y-118.05
X104.5Y-128.6
X104.65Y-122.3
X104.9Y-111.8
X104.95Y-117.35
X105.3Y-119.7
X105.55Y-116.8
X105.825Y-114.525
X105.875Y-109.525
X105.9Y-96.
X105.9Y-98.5
X105.9Y-101.05
X105.9Y-118.3
X105.95Y-128.6
X106.5Y-124.95
X106.68Y-165.1
X106.68Y-175.26
X106.68Y-175.26
X106.68Y-185.42
X106.68Y-195.58
X106.7Y-104.5
X107.1Y-112.675
X107.1Y-120.4
X107.4Y-125.6
X107.5Y-97.3
X107.5Y-99.7
X107.525Y-107.7
X107.625Y-131.025
X107.8Y-138.35
X108.15Y-122.35
X108.4Y-94.2
X108.5Y-125.4
X108.7Y-128.6
X108.8Y-118.95
X109.375Y-109.525
X109.4Y-96.
X109.4Y-97.3
X109.4Y-98.5
X109.5Y-128.3
X109.6Y-119.
X109.9Y-111.275
X110.025Y-115.925
X110.05Y-99.7
X110.1Y-101.05
X110.1Y-104.1
X110.1Y-107.7
X110.49Y-134.239
X110.8Y-100.3
X111.2Y-116.35
X111.275Y-98.5
X111.4Y-101.025
X111.4Y-103.9
X111.4Y-107.7
X111.4Y-110.55
X111.4Y-113.15
X111.4Y-115.
X111.75Y-116.925
X111.76Y-154.94
X111.8Y-86.95
X112.Y-99.1
X112.Y-119.4
X112.15Y-120.7
X112.275Y-117.525
X112.475Y-97.325
X112.6Y-99.8
X112.6Y-103.7
X112.6Y-107.7
X112.6Y-109.475
X112.6Y-111.975
X112.6Y-116.275
X112.7Y-128.3
X112.8Y-118.125
X112.8Y-123.05
X112.8Y-125.1
X112.8Y-127.4
X112.9Y-91.55
X113.2Y-97.9
X113.8Y-96.
X113.8Y-98.575
X113.8Y-103.2
X113.8Y-107.7
X113.8Y-110.775
X113.8Y-116.225
X113.85Y-118.1
X113.9Y-131.2
X114.4Y-96.7
X114.7Y-120.75
X115.1Y-102.7
X115.1Y-107.7
X115.1Y-116.3
X115.1Y-128.15
X115.125Y-109.525
X115.15Y-97.3
X115.4Y-117.5
X116.15Y-118.15
X116.15Y-120.75
X116.35Y-124.45
X116.65Y-116.8
X116.65Y-119.4
X117.3Y-101.1
X117.3Y-130.85
X117.35Y-95.6
X117.35Y-107.7
X117.552Y-121.
X117.65Y-92.85
X117.8Y-128.15
X118.5Y-118.15
X119.175Y-109.525
X119.225Y-93.825
X119.38Y-165.1
X119.38Y-175.26
X119.38Y-175.26
X119.38Y-185.42
X119.38Y-195.58
X119.775Y-130.425
X120.Y-101.1
X120.1Y-116.8
X120.1Y-119.4
X120.142Y-135.001
X120.15Y-122.35
X120.85Y-107.7
X121.35Y-124.5
X121.92Y-154.94
X121.95Y-116.8
X121.95Y-118.15
X121.95Y-122.7
X122.2Y-90.25
X122.65Y-109.55
X122.7Y-95.15
X122.7Y-101.1
X122.7Y-130.025
X122.85Y-126.3
X122.9Y-88.45
X123.19Y-145.161
X124.Y-92.
X124.1Y-128.1
X124.2Y-113.2
X125.75Y-107.7
X125.8Y-109.5
X125.8Y-116.8
X125.8Y-119.4
X126.5Y-92.
X126.5Y-97.8
X126.5Y-118.8
X126.5Y-130.6
X126.6Y-96.9
X126.619Y-144.526
X127.1Y-100.875
X127.1Y-105.95
X127.1Y-109.5
X127.1Y-116.8
X127.1Y-118.15
X127.7Y-99.
X127.7Y-120.
X128.425Y-99.975
X128.45Y-103.75
X128.45Y-109.5
X128.55Y-127.4
X128.65Y-120.1
X129.15Y-116.8
X129.15Y-118.2
X129.15Y-122.35
X129.3Y-98.4
X129.35Y-107.6
X130.Y-126.7
X130.95Y-122.65
X131.05Y-107.05
X131.3Y-120.1
X131.45Y-93.85
X131.65Y-125.25
X132.05Y-109.95
X132.075Y-100.35
X132.08Y-134.62
X132.08Y-144.78
X132.08Y-154.94
X132.08Y-165.1
X132.08Y-175.26
X132.08Y-175.26
X132.08Y-185.42
X132.08Y-195.58
X132.2Y-116.8
X132.3Y-128.6
X132.65Y-118.2
X132.65Y-122.3
X132.8Y-123.6
X133.5Y-121.
X134.Y-92.8
X134.Y-104.3
X134.45Y-111.9
X134.45Y-116.8
X134.45Y-118.25
X134.62Y-200.66
X135.45Y-107.1
X135.8Y-110.7
X136.Y-126.7
X137.75Y-118.75
X138.5Y-110.7
X138.6Y-128.8
X138.7Y-126.7
X139.05Y-124.6
X139.7Y-134.62
X139.7Y-144.78
X139.7Y-154.94
X139.7Y-165.1
X139.7Y-175.26
X139.7Y-185.42
X139.7Y-195.58
X139.7Y-209.55
X140.5Y-117.5
X140.716Y-80.518
X140.716Y-88.646
X141.35Y-124.6
X141.4Y-111.4
X143.95Y-122.35
T2
X78.7Y-72.5
X78.7Y-206.9
X134.7Y-72.5
X134.7Y-206.9
T3
X81.28Y-132.08
X81.28Y-137.16
X81.28Y-142.24
X81.28Y-147.32
X81.28Y-152.4
X81.28Y-157.48
X81.28Y-162.56
X81.28Y-167.64
X81.28Y-172.72
X81.28Y-177.8
X81.28Y-182.88
X81.28Y-187.96
X81.28Y-193.04
X81.28Y-198.12
X82.57Y-81.15
X82.57Y-129.41
X85.11Y-81.15
X85.11Y-129.41
X87.65Y-81.15
X87.65Y-129.41
X90.19Y-81.15
X91.44Y-132.08
X91.44Y-137.16
X91.44Y-142.24
X91.44Y-147.32
X91.44Y-152.4
X91.44Y-157.48
X92.73Y-81.15
X93.98Y-162.56
X93.98Y-167.64
X93.98Y-172.72
X93.98Y-177.8
X93.98Y-182.88
X93.98Y-187.96
X93.98Y-193.04
X93.98Y-198.12
X95.27Y-81.15
X97.81Y-81.15
X100.35Y-81.15
X101.6Y-132.08
X101.6Y-137.16
X101.6Y-142.24
X101.6Y-147.32
X101.6Y-152.4
X101.6Y-157.48
X102.89Y-81.15
X105.43Y-81.15
X106.68Y-162.56
X106.68Y-167.64
X106.68Y-172.72
X106.68Y-177.8
X106.68Y-182.88
X106.68Y-187.96
X106.68Y-193.04
X106.68Y-198.12
X107.97Y-81.15
X110.51Y-81.15
X111.76Y-132.08
X111.76Y-137.16
X111.76Y-142.24
X111.76Y-147.32
X111.76Y-152.4
X111.76Y-157.48
X113.05Y-81.15
X115.59Y-81.15
X118.13Y-81.15
X119.38Y-162.56
X119.38Y-167.64
X119.38Y-172.72
X119.38Y-177.8
X119.38Y-182.88
X119.38Y-187.96
X119.38Y-193.04
X119.38Y-198.12
X120.67Y-81.15
X121.92Y-132.08
X121.92Y-137.16
X121.92Y-142.24
X121.92Y-147.32
X121.92Y-152.4
X121.92Y-157.48
X123.21Y-81.15
X125.75Y-81.15
X125.75Y-129.41
X128.29Y-81.15
X128.29Y-129.41
X130.83Y-81.15
X130.83Y-129.41
X132.08Y-132.08
X132.08Y-137.16
X132.08Y-142.24
X132.08Y-147.32
X132.08Y-152.4
X132.08Y-157.48
X132.08Y-162.56
X132.08Y-167.64
X132.08Y-172.72
X132.08Y-177.8
X132.08Y-182.88
X132.08Y-187.96
X132.08Y-193.04
X132.08Y-198.12
X136.46Y-114.96
X136.46Y-117.5
X136.46Y-120.04
X139.Y-114.96
X139.Y-114.96
X139.Y-117.5
X139.Y-117.5
X139.Y-120.04
X139.Y-120.04
T4
X78.03Y-132.37
X78.03Y-136.87
X78.03Y-142.53
X78.03Y-147.03
X78.03Y-152.69
X78.03Y-157.19
X78.03Y-162.85
X78.03Y-167.35
X78.03Y-173.01
X78.03Y-177.51
X78.03Y-183.17
X78.03Y-187.67
X78.03Y-193.33
X78.03Y-197.83
X80.01Y-96.52
X80.01Y-99.06
X80.01Y-101.6
X82.55Y-96.52
X82.55Y-99.06
X82.55Y-101.6
X84.53Y-132.37
X84.53Y-136.87
X84.53Y-142.53
X84.53Y-147.03
X84.53Y-152.69
X84.53Y-157.19
X84.53Y-162.85
X84.53Y-167.35
X84.53Y-173.01
X84.53Y-177.51
X84.53Y-183.17
X84.53Y-187.67
X84.53Y-193.33
X84.53Y-197.83
X88.19Y-132.37
X88.19Y-136.87
X88.19Y-142.53
X88.19Y-147.03
X88.19Y-152.69
X88.19Y-157.19
X90.73Y-162.85
X90.73Y-167.35
X90.73Y-173.01
X90.73Y-177.51
X90.73Y-183.17
X90.73Y-187.67
X90.73Y-193.33
X90.73Y-197.83
X94.69Y-132.37
X94.69Y-136.87
X94.69Y-142.53
X94.69Y-147.03
X94.69Y-152.69
X94.69Y-157.19
X97.23Y-162.85
X97.23Y-167.35
X97.23Y-173.01
X97.23Y-177.51
X97.23Y-183.17
X97.23Y-187.67
X97.23Y-193.33
X97.23Y-197.83
X98.35Y-132.37
X98.35Y-136.87
X98.35Y-142.53
X98.35Y-147.03
X98.35Y-152.69
X98.35Y-157.19
X103.43Y-162.85
X103.43Y-167.35
X103.43Y-173.01
X103.43Y-177.51
X103.43Y-183.17
X103.43Y-187.67
X103.43Y-193.33
X103.43Y-197.83
X104.85Y-132.37
X104.85Y-136.87
X104.85Y-142.53
X104.85Y-147.03
X104.85Y-152.69
X104.85Y-157.19
X108.51Y-132.37
X108.51Y-136.87
X108.51Y-142.53
X108.51Y-147.03
X108.51Y-152.69
X108.51Y-157.19
X109.93Y-162.85
X109.93Y-167.35
X109.93Y-173.01
X109.93Y-177.51
X109.93Y-183.17
X109.93Y-187.67
X109.93Y-193.33
X109.93Y-197.83
X115.01Y-132.37
X115.01Y-136.87
X115.01Y-142.53
X115.01Y-147.03
X115.01Y-152.69
X115.01Y-157.19
X116.13Y-162.85
X116.13Y-167.35
X116.13Y-173.01
X116.13Y-177.51
X116.13Y-183.17
X116.13Y-187.67
X116.13Y-193.33
X116.13Y-197.83
X118.67Y-132.37
X118.67Y-136.87
X118.67Y-142.53
X118.67Y-147.03
X118.67Y-152.69
X118.67Y-157.19
X122.63Y-162.85
X122.63Y-167.35
X122.63Y-173.01
X122.63Y-177.51
X122.63Y-183.17
X122.63Y-187.67
X122.63Y-193.33
X122.63Y-197.83
X125.17Y-132.37
X125.17Y-136.87
X125.17Y-142.53
X125.17Y-147.03
X125.17Y-152.69
X125.17Y-157.19
X128.83Y-132.37
X128.83Y-136.87
X128.83Y-142.53
X128.83Y-147.03
X128.83Y-152.69
X128.83Y-157.19
X128.83Y-162.85
X128.83Y-167.35
X128.83Y-173.01
X128.83Y-177.51
X128.83Y-183.17
X128.83Y-187.67
X128.83Y-193.33
X128.83Y-197.83
X130.81Y-96.52
X130.81Y-99.06
X130.81Y-101.6
X133.35Y-96.52
X133.35Y-99.06
X133.35Y-101.6
X135.33Y-132.37
X135.33Y-136.87
X135.33Y-142.53
X135.33Y-147.03
X135.33Y-152.69
X135.33Y-157.19
X135.33Y-162.85
X135.33Y-167.35
X135.33Y-173.01
X135.33Y-177.51
X135.33Y-183.17
X135.33Y-187.67
X135.33Y-193.33
X135.33Y-197.83
T0
M30
