G04 (created by PCBNEW (2013-07-07 BZR 4022)-stable) date 12/5/2014 9:59:37 AM*
%MOIN*%
G04 Gerber Fmt 3.4, Leading zero omitted, Abs format*
%FSLAX34Y34*%
G01*
G70*
G90*
G04 APERTURE LIST*
%ADD10C,0.00590551*%
%ADD11R,0.0708661X0.0708661*%
%ADD12C,0.0708661*%
%ADD13C,0.0629921*%
%ADD14R,0.0512X0.059*%
%ADD15R,0.059X0.0512*%
%ADD16R,0.063X0.071*%
%ADD17R,0.0787402X0.0393701*%
%ADD18R,0.0393701X0.0492126*%
%ADD19R,0.0865X0.0865*%
%ADD20R,0.0865X0.0196*%
%ADD21C,0.0354*%
%ADD22C,0.0787402*%
%ADD23R,0.0624866X0.0219354*%
%ADD24R,0.0236X0.0394*%
%ADD25R,0.07X0.04*%
%ADD26R,0.016X0.065*%
%ADD27R,0.11811X0.19685*%
%ADD28C,0.133858*%
%ADD29C,0.00393701*%
%ADD30C,0.01*%
G04 APERTURE END LIST*
G54D10*
G54D11*
X52500Y-38000D03*
G54D12*
X51500Y-38000D03*
X52500Y-39000D03*
X51500Y-39000D03*
X52500Y-40000D03*
X51500Y-40000D03*
G54D11*
X31500Y-40000D03*
G54D12*
X32500Y-40000D03*
X31500Y-39000D03*
X32500Y-39000D03*
X31500Y-38000D03*
X32500Y-38000D03*
G54D13*
X53724Y-47259D03*
X53724Y-46259D03*
X53724Y-45259D03*
X54724Y-47259D03*
X54724Y-46259D03*
X54724Y-45259D03*
X54724Y-45259D03*
X54724Y-46259D03*
X54724Y-47259D03*
G54D14*
X52302Y-48661D03*
X53052Y-48661D03*
X54075Y-51102D03*
X53325Y-51102D03*
G54D15*
X51377Y-33839D03*
X51377Y-33089D03*
X50393Y-33839D03*
X50393Y-33089D03*
X49409Y-33839D03*
X49409Y-33089D03*
X48425Y-33839D03*
X48425Y-33089D03*
X47440Y-33839D03*
X47440Y-33089D03*
G54D14*
X45650Y-33070D03*
X44900Y-33070D03*
X43878Y-33070D03*
X43128Y-33070D03*
X41357Y-33070D03*
X42107Y-33070D03*
X40335Y-33070D03*
X39585Y-33070D03*
G54D15*
X32244Y-48404D03*
X32244Y-49154D03*
X36377Y-43721D03*
X36377Y-42971D03*
X35590Y-43721D03*
X35590Y-42971D03*
X51456Y-42617D03*
X51456Y-43367D03*
X33149Y-43721D03*
X33149Y-42971D03*
G54D10*
G36*
X39431Y-45662D02*
X39848Y-46080D01*
X39486Y-46442D01*
X39069Y-46024D01*
X39431Y-45662D01*
X39431Y-45662D01*
G37*
G36*
X39961Y-45132D02*
X40379Y-45549D01*
X40017Y-45911D01*
X39599Y-45494D01*
X39961Y-45132D01*
X39961Y-45132D01*
G37*
G36*
X43261Y-45332D02*
X43678Y-44914D01*
X44040Y-45276D01*
X43623Y-45694D01*
X43261Y-45332D01*
X43261Y-45332D01*
G37*
G36*
X42731Y-44801D02*
X43148Y-44384D01*
X43510Y-44746D01*
X43093Y-45163D01*
X42731Y-44801D01*
X42731Y-44801D01*
G37*
G54D15*
X53976Y-42617D03*
X53976Y-43367D03*
G54D16*
X50079Y-49881D03*
X51179Y-49881D03*
G54D14*
X38406Y-49881D03*
X37656Y-49881D03*
X38406Y-48031D03*
X37656Y-48031D03*
X38406Y-48937D03*
X37656Y-48937D03*
X51002Y-41614D03*
X51752Y-41614D03*
X53249Y-41614D03*
X52499Y-41614D03*
X38406Y-46220D03*
X37656Y-46220D03*
X37656Y-47125D03*
X38406Y-47125D03*
X34745Y-43700D03*
X33995Y-43700D03*
G54D15*
X29173Y-51514D03*
X29173Y-52264D03*
X28346Y-51514D03*
X28346Y-52264D03*
G54D14*
X33995Y-42913D03*
X34745Y-42913D03*
G54D15*
X32362Y-44469D03*
X32362Y-43719D03*
G54D14*
X37656Y-45314D03*
X38406Y-45314D03*
G54D17*
X55196Y-43385D03*
X55196Y-42598D03*
G54D18*
X55196Y-43828D03*
X55196Y-42155D03*
G54D17*
X55196Y-50275D03*
X55196Y-49488D03*
G54D18*
X55196Y-50718D03*
X55196Y-49045D03*
G54D19*
X30362Y-44515D03*
G54D20*
X30472Y-46888D03*
X30472Y-46573D03*
X30472Y-46259D03*
X30472Y-45945D03*
X30472Y-45630D03*
G54D21*
X29477Y-47124D03*
X29477Y-45393D03*
G54D19*
X30362Y-48003D03*
X28197Y-48003D03*
X28197Y-44515D03*
G54D22*
X43279Y-72114D03*
X40720Y-73885D03*
X43279Y-73885D03*
X40720Y-72114D03*
G54D13*
X42000Y-74000D03*
X42000Y-72000D03*
G54D22*
X43279Y-76114D03*
X40720Y-77885D03*
X43279Y-77885D03*
X40720Y-76114D03*
G54D13*
X42000Y-78000D03*
X42000Y-76000D03*
G54D22*
X38279Y-76114D03*
X35720Y-77885D03*
X38279Y-77885D03*
X35720Y-76114D03*
G54D13*
X37000Y-78000D03*
X37000Y-76000D03*
G54D22*
X33279Y-76114D03*
X30720Y-77885D03*
X33279Y-77885D03*
X30720Y-76114D03*
G54D13*
X32000Y-78000D03*
X32000Y-76000D03*
G54D22*
X33279Y-52114D03*
X30720Y-53885D03*
X33279Y-53885D03*
X30720Y-52114D03*
G54D13*
X32000Y-54000D03*
X32000Y-52000D03*
G54D22*
X38279Y-68114D03*
X35720Y-69885D03*
X38279Y-69885D03*
X35720Y-68114D03*
G54D13*
X37000Y-70000D03*
X37000Y-68000D03*
G54D22*
X38279Y-64114D03*
X35720Y-65885D03*
X38279Y-65885D03*
X35720Y-64114D03*
G54D13*
X37000Y-66000D03*
X37000Y-64000D03*
G54D22*
X41279Y-60114D03*
X38720Y-61885D03*
X41279Y-61885D03*
X38720Y-60114D03*
G54D13*
X40000Y-62000D03*
X40000Y-60000D03*
G54D22*
X33279Y-72114D03*
X30720Y-73885D03*
X33279Y-73885D03*
X30720Y-72114D03*
G54D13*
X32000Y-74000D03*
X32000Y-72000D03*
G54D22*
X33279Y-68114D03*
X30720Y-69885D03*
X33279Y-69885D03*
X30720Y-68114D03*
G54D13*
X32000Y-70000D03*
X32000Y-68000D03*
G54D22*
X38279Y-72114D03*
X35720Y-73885D03*
X38279Y-73885D03*
X35720Y-72114D03*
G54D13*
X37000Y-74000D03*
X37000Y-72000D03*
G54D22*
X37279Y-52114D03*
X34720Y-53885D03*
X37279Y-53885D03*
X34720Y-52114D03*
G54D13*
X36000Y-54000D03*
X36000Y-52000D03*
G54D22*
X41279Y-52114D03*
X38720Y-53885D03*
X41279Y-53885D03*
X38720Y-52114D03*
G54D13*
X40000Y-54000D03*
X40000Y-52000D03*
G54D22*
X49279Y-56114D03*
X46720Y-57885D03*
X49279Y-57885D03*
X46720Y-56114D03*
G54D13*
X48000Y-58000D03*
X48000Y-56000D03*
G54D22*
X49279Y-60114D03*
X46720Y-61885D03*
X49279Y-61885D03*
X46720Y-60114D03*
G54D13*
X48000Y-62000D03*
X48000Y-60000D03*
G54D22*
X48279Y-64114D03*
X45720Y-65885D03*
X48279Y-65885D03*
X45720Y-64114D03*
G54D13*
X47000Y-66000D03*
X47000Y-64000D03*
G54D22*
X43279Y-68114D03*
X40720Y-69885D03*
X43279Y-69885D03*
X40720Y-68114D03*
G54D13*
X42000Y-70000D03*
X42000Y-68000D03*
G54D22*
X33279Y-64114D03*
X30720Y-65885D03*
X33279Y-65885D03*
X30720Y-64114D03*
G54D13*
X32000Y-66000D03*
X32000Y-64000D03*
G54D22*
X43279Y-64114D03*
X40720Y-65885D03*
X43279Y-65885D03*
X40720Y-64114D03*
G54D13*
X42000Y-66000D03*
X42000Y-64000D03*
G54D22*
X45279Y-60114D03*
X42720Y-61885D03*
X45279Y-61885D03*
X42720Y-60114D03*
G54D13*
X44000Y-62000D03*
X44000Y-60000D03*
G54D22*
X45279Y-56114D03*
X42720Y-57885D03*
X45279Y-57885D03*
X42720Y-56114D03*
G54D13*
X44000Y-58000D03*
X44000Y-56000D03*
G54D22*
X48279Y-76114D03*
X45720Y-77885D03*
X48279Y-77885D03*
X45720Y-76114D03*
G54D13*
X47000Y-78000D03*
X47000Y-76000D03*
G54D22*
X48279Y-68114D03*
X45720Y-69885D03*
X48279Y-69885D03*
X45720Y-68114D03*
G54D13*
X47000Y-70000D03*
X47000Y-68000D03*
G54D22*
X48279Y-72114D03*
X45720Y-73885D03*
X48279Y-73885D03*
X45720Y-72114D03*
G54D13*
X47000Y-74000D03*
X47000Y-72000D03*
G54D22*
X45279Y-52114D03*
X42720Y-53885D03*
X45279Y-53885D03*
X42720Y-52114D03*
G54D13*
X44000Y-54000D03*
X44000Y-52000D03*
G54D22*
X53279Y-76114D03*
X50720Y-77885D03*
X53279Y-77885D03*
X50720Y-76114D03*
G54D13*
X52000Y-78000D03*
X52000Y-76000D03*
G54D22*
X53279Y-72114D03*
X50720Y-73885D03*
X53279Y-73885D03*
X50720Y-72114D03*
G54D13*
X52000Y-74000D03*
X52000Y-72000D03*
G54D22*
X53279Y-68114D03*
X50720Y-69885D03*
X53279Y-69885D03*
X50720Y-68114D03*
G54D13*
X52000Y-70000D03*
X52000Y-68000D03*
G54D22*
X53279Y-64114D03*
X50720Y-65885D03*
X53279Y-65885D03*
X50720Y-64114D03*
G54D13*
X52000Y-66000D03*
X52000Y-64000D03*
G54D22*
X53279Y-60114D03*
X50720Y-61885D03*
X53279Y-61885D03*
X50720Y-60114D03*
G54D13*
X52000Y-62000D03*
X52000Y-60000D03*
G54D22*
X53279Y-52114D03*
X50720Y-53885D03*
X53279Y-53885D03*
X50720Y-52114D03*
G54D13*
X52000Y-54000D03*
X52000Y-52000D03*
G54D22*
X53279Y-56114D03*
X50720Y-57885D03*
X53279Y-57885D03*
X50720Y-56114D03*
G54D13*
X52000Y-58000D03*
X52000Y-56000D03*
G54D22*
X41279Y-56114D03*
X38720Y-57885D03*
X41279Y-57885D03*
X38720Y-56114D03*
G54D13*
X40000Y-58000D03*
X40000Y-56000D03*
G54D22*
X37279Y-56114D03*
X34720Y-57885D03*
X37279Y-57885D03*
X34720Y-56114D03*
G54D13*
X36000Y-58000D03*
X36000Y-56000D03*
G54D22*
X37279Y-60114D03*
X34720Y-61885D03*
X37279Y-61885D03*
X34720Y-60114D03*
G54D13*
X36000Y-62000D03*
X36000Y-60000D03*
G54D22*
X33279Y-60114D03*
X30720Y-61885D03*
X33279Y-61885D03*
X30720Y-60114D03*
G54D13*
X32000Y-62000D03*
X32000Y-60000D03*
G54D22*
X49279Y-52114D03*
X46720Y-53885D03*
X49279Y-53885D03*
X46720Y-52114D03*
G54D13*
X48000Y-54000D03*
X48000Y-52000D03*
G54D22*
X33279Y-56114D03*
X30720Y-57885D03*
X33279Y-57885D03*
X30720Y-56114D03*
G54D13*
X32000Y-58000D03*
X32000Y-56000D03*
G54D23*
X52322Y-50265D03*
X52322Y-50009D03*
X52322Y-49753D03*
X52322Y-49498D03*
X54055Y-49498D03*
X54055Y-49753D03*
X54055Y-50009D03*
X54055Y-50265D03*
G54D24*
X53091Y-43408D03*
X52341Y-43408D03*
X52716Y-43408D03*
X52341Y-42576D03*
X53091Y-42576D03*
X52716Y-42576D03*
G54D25*
X32244Y-47712D03*
X32244Y-47012D03*
G54D26*
X34970Y-47676D03*
X34714Y-47676D03*
X34458Y-47676D03*
X34202Y-47676D03*
X35738Y-44842D03*
X35738Y-47676D03*
X35482Y-47676D03*
X35226Y-47676D03*
X33946Y-44842D03*
X34202Y-44842D03*
X34458Y-44842D03*
X34714Y-44842D03*
X34970Y-44842D03*
X35226Y-44842D03*
X33946Y-47676D03*
X35482Y-44842D03*
X35994Y-44842D03*
X36249Y-44842D03*
X36505Y-44842D03*
X36505Y-47676D03*
X36249Y-47676D03*
X35994Y-47676D03*
X33690Y-47676D03*
X33435Y-47676D03*
X33179Y-47676D03*
X33179Y-44842D03*
X33435Y-44842D03*
X33690Y-44842D03*
G54D10*
G36*
X42499Y-45894D02*
X42861Y-45532D01*
X42945Y-45615D01*
X42583Y-45977D01*
X42499Y-45894D01*
X42499Y-45894D01*
G37*
G36*
X42639Y-46033D02*
X43001Y-45671D01*
X43084Y-45754D01*
X42722Y-46116D01*
X42639Y-46033D01*
X42639Y-46033D01*
G37*
G36*
X42778Y-46172D02*
X43140Y-45810D01*
X43223Y-45894D01*
X42861Y-46256D01*
X42778Y-46172D01*
X42778Y-46172D01*
G37*
G36*
X42916Y-46311D02*
X43279Y-45949D01*
X43362Y-46032D01*
X43000Y-46394D01*
X42916Y-46311D01*
X42916Y-46311D01*
G37*
G36*
X43056Y-46450D02*
X43418Y-46088D01*
X43501Y-46172D01*
X43139Y-46534D01*
X43056Y-46450D01*
X43056Y-46450D01*
G37*
G36*
X42081Y-45476D02*
X42443Y-45114D01*
X42527Y-45197D01*
X42165Y-45559D01*
X42081Y-45476D01*
X42081Y-45476D01*
G37*
G36*
X42221Y-45615D02*
X42583Y-45253D01*
X42666Y-45337D01*
X42304Y-45699D01*
X42221Y-45615D01*
X42221Y-45615D01*
G37*
G36*
X42360Y-45754D02*
X42722Y-45392D01*
X42805Y-45476D01*
X42443Y-45838D01*
X42360Y-45754D01*
X42360Y-45754D01*
G37*
G36*
X43613Y-47480D02*
X43696Y-47396D01*
X44058Y-47758D01*
X43975Y-47842D01*
X43613Y-47480D01*
X43613Y-47480D01*
G37*
G36*
X43474Y-47619D02*
X43557Y-47536D01*
X43919Y-47898D01*
X43836Y-47981D01*
X43474Y-47619D01*
X43474Y-47619D01*
G37*
G36*
X43334Y-47758D02*
X43418Y-47675D01*
X43780Y-48037D01*
X43696Y-48120D01*
X43334Y-47758D01*
X43334Y-47758D01*
G37*
G36*
X43195Y-47898D02*
X43279Y-47814D01*
X43641Y-48176D01*
X43557Y-48260D01*
X43195Y-47898D01*
X43195Y-47898D01*
G37*
G36*
X43056Y-48037D02*
X43139Y-47954D01*
X43501Y-48316D01*
X43418Y-48399D01*
X43056Y-48037D01*
X43056Y-48037D01*
G37*
G36*
X42916Y-48176D02*
X43000Y-48093D01*
X43362Y-48455D01*
X43279Y-48538D01*
X42916Y-48176D01*
X42916Y-48176D01*
G37*
G36*
X42778Y-48315D02*
X42861Y-48231D01*
X43223Y-48593D01*
X43140Y-48677D01*
X42778Y-48315D01*
X42778Y-48315D01*
G37*
G36*
X42639Y-48454D02*
X42722Y-48371D01*
X43084Y-48733D01*
X43001Y-48816D01*
X42639Y-48454D01*
X42639Y-48454D01*
G37*
G36*
X41330Y-49290D02*
X41692Y-48928D01*
X41776Y-49011D01*
X41414Y-49373D01*
X41330Y-49290D01*
X41330Y-49290D01*
G37*
G36*
X41191Y-49151D02*
X41553Y-48789D01*
X41637Y-48872D01*
X41275Y-49234D01*
X41191Y-49151D01*
X41191Y-49151D01*
G37*
G36*
X41052Y-49011D02*
X41414Y-48649D01*
X41497Y-48733D01*
X41135Y-49095D01*
X41052Y-49011D01*
X41052Y-49011D01*
G37*
G36*
X40913Y-48872D02*
X41275Y-48510D01*
X41358Y-48593D01*
X40996Y-48956D01*
X40913Y-48872D01*
X40913Y-48872D01*
G37*
G36*
X40773Y-48733D02*
X41135Y-48371D01*
X41219Y-48454D01*
X40857Y-48816D01*
X40773Y-48733D01*
X40773Y-48733D01*
G37*
G36*
X40634Y-48593D02*
X40996Y-48231D01*
X41079Y-48315D01*
X40717Y-48677D01*
X40634Y-48593D01*
X40634Y-48593D01*
G37*
G36*
X40495Y-48455D02*
X40857Y-48093D01*
X40941Y-48176D01*
X40579Y-48538D01*
X40495Y-48455D01*
X40495Y-48455D01*
G37*
G36*
X40356Y-48316D02*
X40718Y-47954D01*
X40802Y-48037D01*
X40439Y-48399D01*
X40356Y-48316D01*
X40356Y-48316D01*
G37*
G36*
X39799Y-46729D02*
X39882Y-46645D01*
X40244Y-47007D01*
X40161Y-47091D01*
X39799Y-46729D01*
X39799Y-46729D01*
G37*
G36*
X39938Y-46590D02*
X40022Y-46506D01*
X40384Y-46868D01*
X40300Y-46952D01*
X39938Y-46590D01*
X39938Y-46590D01*
G37*
G36*
X40077Y-46450D02*
X40161Y-46367D01*
X40523Y-46729D01*
X40439Y-46812D01*
X40077Y-46450D01*
X40077Y-46450D01*
G37*
G36*
X40217Y-46311D02*
X40300Y-46227D01*
X40662Y-46590D01*
X40579Y-46673D01*
X40217Y-46311D01*
X40217Y-46311D01*
G37*
G36*
X40356Y-46172D02*
X40439Y-46088D01*
X40802Y-46450D01*
X40718Y-46534D01*
X40356Y-46172D01*
X40356Y-46172D01*
G37*
G36*
X40495Y-46032D02*
X40579Y-45949D01*
X40941Y-46311D01*
X40857Y-46394D01*
X40495Y-46032D01*
X40495Y-46032D01*
G37*
G36*
X40634Y-45894D02*
X40717Y-45810D01*
X41079Y-46172D01*
X40996Y-46256D01*
X40634Y-45894D01*
X40634Y-45894D01*
G37*
G36*
X40773Y-45754D02*
X40857Y-45671D01*
X41219Y-46033D01*
X41135Y-46116D01*
X40773Y-45754D01*
X40773Y-45754D01*
G37*
G36*
X43195Y-46590D02*
X43557Y-46227D01*
X43641Y-46311D01*
X43279Y-46673D01*
X43195Y-46590D01*
X43195Y-46590D01*
G37*
G36*
X43334Y-46729D02*
X43696Y-46367D01*
X43780Y-46450D01*
X43418Y-46812D01*
X43334Y-46729D01*
X43334Y-46729D01*
G37*
G36*
X43474Y-46868D02*
X43836Y-46506D01*
X43919Y-46590D01*
X43557Y-46952D01*
X43474Y-46868D01*
X43474Y-46868D01*
G37*
G36*
X43613Y-47007D02*
X43975Y-46645D01*
X44058Y-46729D01*
X43696Y-47091D01*
X43613Y-47007D01*
X43613Y-47007D01*
G37*
G36*
X42499Y-48593D02*
X42583Y-48510D01*
X42945Y-48872D01*
X42861Y-48956D01*
X42499Y-48593D01*
X42499Y-48593D01*
G37*
G36*
X42360Y-48733D02*
X42443Y-48649D01*
X42805Y-49011D01*
X42722Y-49095D01*
X42360Y-48733D01*
X42360Y-48733D01*
G37*
G36*
X42221Y-48872D02*
X42304Y-48789D01*
X42666Y-49151D01*
X42583Y-49234D01*
X42221Y-48872D01*
X42221Y-48872D01*
G37*
G36*
X42081Y-49011D02*
X42165Y-48928D01*
X42527Y-49290D01*
X42443Y-49373D01*
X42081Y-49011D01*
X42081Y-49011D01*
G37*
G36*
X40217Y-48176D02*
X40579Y-47814D01*
X40662Y-47898D01*
X40300Y-48260D01*
X40217Y-48176D01*
X40217Y-48176D01*
G37*
G36*
X40077Y-48037D02*
X40439Y-47675D01*
X40523Y-47758D01*
X40161Y-48120D01*
X40077Y-48037D01*
X40077Y-48037D01*
G37*
G36*
X39938Y-47898D02*
X40300Y-47536D01*
X40384Y-47619D01*
X40022Y-47981D01*
X39938Y-47898D01*
X39938Y-47898D01*
G37*
G36*
X39799Y-47758D02*
X40161Y-47396D01*
X40244Y-47480D01*
X39882Y-47842D01*
X39799Y-47758D01*
X39799Y-47758D01*
G37*
G36*
X40913Y-45615D02*
X40996Y-45532D01*
X41358Y-45894D01*
X41275Y-45977D01*
X40913Y-45615D01*
X40913Y-45615D01*
G37*
G36*
X41052Y-45476D02*
X41135Y-45392D01*
X41497Y-45754D01*
X41414Y-45838D01*
X41052Y-45476D01*
X41052Y-45476D01*
G37*
G36*
X41191Y-45337D02*
X41275Y-45253D01*
X41637Y-45615D01*
X41553Y-45699D01*
X41191Y-45337D01*
X41191Y-45337D01*
G37*
G36*
X41330Y-45197D02*
X41414Y-45114D01*
X41776Y-45476D01*
X41692Y-45559D01*
X41330Y-45197D01*
X41330Y-45197D01*
G37*
G54D13*
X51507Y-31948D03*
X50507Y-31948D03*
X49507Y-31948D03*
X48507Y-31948D03*
X47507Y-31948D03*
X46507Y-31948D03*
X45507Y-31948D03*
X44507Y-31948D03*
X43507Y-31948D03*
X42507Y-31948D03*
X41507Y-31948D03*
X40507Y-31948D03*
X39507Y-31948D03*
X38507Y-31948D03*
X37507Y-31948D03*
X36507Y-31948D03*
X35507Y-31948D03*
X34507Y-31948D03*
X33507Y-31948D03*
X32507Y-31948D03*
X51507Y-50948D03*
X50507Y-50948D03*
X49507Y-50948D03*
X32507Y-50948D03*
X33507Y-50948D03*
X34507Y-50948D03*
G54D27*
X31377Y-28543D03*
X52637Y-28543D03*
X52637Y-81456D03*
X31377Y-81456D03*
G54D15*
X35748Y-48719D03*
X35748Y-49469D03*
G54D28*
X29000Y-80000D03*
X55000Y-80000D03*
X29000Y-30000D03*
X55000Y-30000D03*
X29000Y-55000D03*
X55000Y-55000D03*
G54D10*
G36*
X31338Y-46200D02*
X31181Y-46200D01*
X31181Y-46006D01*
X31338Y-46021D01*
X31338Y-46200D01*
X31338Y-46200D01*
G37*
G54D29*
X31338Y-46200D02*
X31181Y-46200D01*
X31181Y-46006D01*
X31338Y-46021D01*
X31338Y-46200D01*
G54D10*
G36*
X31338Y-46515D02*
X31181Y-46515D01*
X31181Y-46318D01*
X31338Y-46318D01*
X31338Y-46515D01*
X31338Y-46515D01*
G37*
G54D29*
X31338Y-46515D02*
X31181Y-46515D01*
X31181Y-46318D01*
X31338Y-46318D01*
X31338Y-46515D01*
G54D10*
G36*
X31338Y-46830D02*
X31181Y-46830D01*
X31181Y-46633D01*
X31338Y-46633D01*
X31338Y-46830D01*
X31338Y-46830D01*
G37*
G54D29*
X31338Y-46830D02*
X31181Y-46830D01*
X31181Y-46633D01*
X31338Y-46633D01*
X31338Y-46830D01*
G54D10*
G36*
X31338Y-47145D02*
X31181Y-47145D01*
X31181Y-46948D01*
X31338Y-46948D01*
X31338Y-47145D01*
X31338Y-47145D01*
G37*
G54D29*
X31338Y-47145D02*
X31181Y-47145D01*
X31181Y-46948D01*
X31338Y-46948D01*
X31338Y-47145D01*
G54D10*
G36*
X31338Y-47460D02*
X31181Y-47460D01*
X31181Y-47263D01*
X31338Y-47263D01*
X31338Y-47460D01*
X31338Y-47460D01*
G37*
G54D29*
X31338Y-47460D02*
X31181Y-47460D01*
X31181Y-47263D01*
X31338Y-47263D01*
X31338Y-47460D01*
G54D10*
G36*
X29035Y-48307D02*
X28838Y-48307D01*
X28838Y-48149D01*
X29035Y-48149D01*
X29035Y-48307D01*
X29035Y-48307D01*
G37*
G54D29*
X29035Y-48307D02*
X28838Y-48307D01*
X28838Y-48149D01*
X29035Y-48149D01*
X29035Y-48307D01*
G54D10*
G36*
X29035Y-44370D02*
X28838Y-44370D01*
X28838Y-44212D01*
X29035Y-44212D01*
X29035Y-44370D01*
X29035Y-44370D01*
G37*
G54D29*
X29035Y-44370D02*
X28838Y-44370D01*
X28838Y-44212D01*
X29035Y-44212D01*
X29035Y-44370D01*
G54D10*
G36*
X50619Y-40304D02*
X50483Y-40304D01*
X50483Y-40089D01*
X50619Y-40089D01*
X50619Y-40304D01*
X50619Y-40304D01*
G37*
G54D30*
X50619Y-40304D02*
X50483Y-40304D01*
X50483Y-40089D01*
X50619Y-40089D01*
X50619Y-40304D01*
G54D10*
G36*
X50855Y-43060D02*
X50719Y-43060D01*
X50719Y-42845D01*
X50855Y-42845D01*
X50855Y-43060D01*
X50855Y-43060D01*
G37*
G54D30*
X50855Y-43060D02*
X50719Y-43060D01*
X50719Y-42845D01*
X50855Y-42845D01*
X50855Y-43060D01*
G54D10*
G36*
X33493Y-39713D02*
X33435Y-39713D01*
X33435Y-37845D01*
X33493Y-37845D01*
X33493Y-39713D01*
X33493Y-39713D01*
G37*
G54D30*
X33493Y-39713D02*
X33435Y-39713D01*
X33435Y-37845D01*
X33493Y-37845D01*
X33493Y-39713D01*
G54D10*
G36*
X32430Y-40737D02*
X32175Y-40737D01*
X32175Y-40601D01*
X32430Y-40601D01*
X32430Y-40737D01*
X32430Y-40737D01*
G37*
G54D30*
X32430Y-40737D02*
X32175Y-40737D01*
X32175Y-40601D01*
X32430Y-40601D01*
X32430Y-40737D01*
G54D10*
G36*
X32824Y-40737D02*
X32569Y-40737D01*
X32569Y-40601D01*
X32824Y-40601D01*
X32824Y-40737D01*
X32824Y-40737D01*
G37*
G54D30*
X32824Y-40737D02*
X32569Y-40737D01*
X32569Y-40601D01*
X32824Y-40601D01*
X32824Y-40737D01*
G54D10*
G36*
X50579Y-39201D02*
X50522Y-39201D01*
X50522Y-38278D01*
X50579Y-38278D01*
X50579Y-39201D01*
X50579Y-39201D01*
G37*
G54D30*
X50579Y-39201D02*
X50522Y-39201D01*
X50522Y-38278D01*
X50579Y-38278D01*
X50579Y-39201D01*
G54D10*
G36*
X50855Y-42666D02*
X50719Y-42666D01*
X50719Y-42451D01*
X50855Y-42451D01*
X50855Y-42666D01*
X50855Y-42666D01*
G37*
G54D30*
X50855Y-42666D02*
X50719Y-42666D01*
X50719Y-42451D01*
X50855Y-42451D01*
X50855Y-42666D01*
G54D10*
G36*
X50619Y-39910D02*
X50483Y-39910D01*
X50483Y-39695D01*
X50619Y-39695D01*
X50619Y-39910D01*
X50619Y-39910D01*
G37*
G54D30*
X50619Y-39910D02*
X50483Y-39910D01*
X50483Y-39695D01*
X50619Y-39695D01*
X50619Y-39910D01*
G54D10*
G36*
X53178Y-46446D02*
X53120Y-46446D01*
X53120Y-46073D01*
X53178Y-46073D01*
X53178Y-46446D01*
X53178Y-46446D01*
G37*
G54D30*
X53178Y-46446D02*
X53120Y-46446D01*
X53120Y-46073D01*
X53178Y-46073D01*
X53178Y-46446D01*
M02*
